<svg width="17" height="13" viewBox="0 0 17 13" fill="none" xmlns="http://www.w3.org/2000/svg">
<path d="M13.7636 6L11.6364 7.5L14 8.7L13.7636 6Z" fill="#333333"/>
<path d="M1 7.8C1 7.8 2.41818 12 7.14545 12C11.8727 12 13.0545 7.8 13.0545 7.8M11.6364 7.5L13.7636 6L14 8.7L11.6364 7.5Z" stroke="#333333" stroke-linecap="round" stroke-linejoin="round"/>
<path d="M3.23636 7L5.36364 5.5L3 4.3L3.23636 7Z" fill="#333333"/>
<path d="M16 5.2C16 5.2 14.5818 1 9.85455 1C5.12727 1 3.94545 5.2 3.94545 5.2M5.36364 5.5L3.23636 7L3 4.3L5.36364 5.5Z" stroke="#333333" stroke-linecap="round" stroke-linejoin="round"/>
</svg>
