<svg width="550" height="550" viewBox="0 0 550 550" fill="none" xmlns="http://www.w3.org/2000/svg">
<mask id="mask0" mask-type="alpha" maskUnits="userSpaceOnUse" x="0" y="0" width="550" height="550">
<circle cx="275" cy="275" r="275" fill="#4C6FFF"/>
</mask>
<g mask="url(#mask0)">
<ellipse cx="274.561" cy="275" rx="333.427" ry="285.543" fill="#4C6FFF"/>
<g clip-path="url(#clip0)">
<circle cx="146.572" cy="327.286" r="45.7144" fill="#EAC0B3"/>
<path d="M146.572 363.858H302.001V591.245C302.001 591.245 268.694 610.715 224.286 610.715C179.878 610.715 146.572 578.922 146.572 578.922V363.858Z" fill="#EAC0B3"/>
<path d="M300.276 474.598C300.276 523.829 292.311 519.168 240.539 519.168C188.767 519.168 164.872 479.259 164.872 430.027C164.872 380.796 162.907 336.429 204.697 336.429C322.845 340.783 300.276 425.367 300.276 474.598Z" fill="#C99688"/>
<path d="M401.529 319.05C401.529 378.04 349.715 478.816 336.073 489.799C322.432 500.781 319.55 509.128 291.704 509.128C270.178 509.128 247.279 503.973 230.642 495.949C169.551 466.486 141.347 383.167 141.347 319.05C119.144 222.143 123.715 107.857 274.573 107.857C425.43 107.857 401.529 237.473 401.529 319.05Z" fill="#F4D4C9"/>
<path fill-rule="evenodd" clip-rule="evenodd" d="M323.926 403.365V418.04C323.926 440.583 306.191 458.859 284.312 458.859C262.435 458.859 244.7 440.583 244.7 418.04V403.365H323.926Z" fill="#393939"/>
<mask id="mask1" mask-type="alpha" maskUnits="userSpaceOnUse" x="244" y="396" width="80" height="63">
<path fill-rule="evenodd" clip-rule="evenodd" d="M323.403 396.668C323.747 398.825 323.926 401.039 323.926 403.296V418.25C323.926 440.708 306.191 458.913 284.313 458.913C262.435 458.913 244.7 440.708 244.7 418.25V403.296C244.7 401.039 244.88 398.825 245.224 396.668H323.403Z" fill="white"/>
</mask>
<g mask="url(#mask1)">
<path d="M282.2 473.223C269.007 473.223 258.311 467.244 258.311 459.868C258.311 452.492 269.007 446.513 282.2 446.513C295.394 446.513 306.089 452.492 306.089 459.868C306.089 467.244 295.394 473.223 282.2 473.223Z" fill="#FF6C6C"/>
<rect width="79.2259" height="16.7715" transform="matrix(-1 0 0 1 323.926 401.522)" fill="white"/>
</g>
<path d="M315.882 233.443C316.181 227.77 320.503 223.416 325.597 223.59L325.861 223.603L382.53 227.267C387.737 227.603 391.712 232.555 391.409 238.327C391.11 244 386.787 248.354 381.694 248.18L381.43 248.167L324.761 244.503C319.553 244.167 315.578 239.215 315.882 233.443Z" fill="#4C3C2C"/>
<path d="M240.872 227.116C246.011 226.808 250.42 230.835 250.72 236.11C251.014 241.296 247.228 245.758 242.218 246.2L241.958 246.219L186.033 249.568C180.894 249.875 176.485 245.848 176.186 240.573C175.891 235.387 179.677 230.926 184.687 230.484L184.948 230.464L240.872 227.116Z" fill="#4C3C2C"/>
<path d="M297.204 316.123L284.02 325.145C288.5 332.044 292.01 342.401 292.01 349.935C292.01 357.2 289.454 360.254 281.629 360.339L281.291 360.34V376.606C298.574 376.606 307.855 365.888 307.855 349.935C307.855 339.128 303.475 326.01 297.53 316.63L297.204 316.123Z" fill="#EBBAAA"/>
<path d="M297.204 316.123L284.02 325.145C283.11 322.137 280.359 314.824 276.631 309.632C272.902 304.439 275.077 286.419 276.631 278.058H292.01V301.499C292.01 308.388 295.472 314.118 297.204 316.123Z" fill="#EBBAAA"/>
<path d="M229.087 260.486C235.17 260.486 240.118 265.469 240.269 271.675L240.272 271.967V298.652C240.272 304.993 235.265 310.133 229.087 310.133C223.005 310.133 215.857 300.518 215.706 294.312V273.665C215.706 267.324 222.91 260.486 229.087 260.486Z" fill="black"/>
<path d="M361.755 256.971C367.838 256.971 372.786 261.955 372.937 268.161L372.94 268.453V295.138C372.94 301.479 367.933 306.619 361.755 306.619C355.673 306.619 348.525 297.003 348.374 290.797V270.15C348.374 263.809 355.578 256.971 361.755 256.971Z" fill="black"/>
<path fill-rule="evenodd" clip-rule="evenodd" d="M257.663 58.9092C267.539 53.9212 278.914 50.8698 292.007 50.5294C319.119 49.8247 328.351 62.6408 331.08 73.4189L331.685 73.4479C353.84 74.8178 363.994 86.167 367.974 98.0817C370.691 97.8476 372.981 98.1422 374.733 99.07C379.508 101.598 382.505 106.087 382.548 111.353L382.802 111.614C384.405 111.402 385.951 111.29 387.431 111.29C402.397 111.29 415.207 131.531 408.163 140.692C412.307 148.542 411.567 157.009 414.269 166.04L374.733 140.692L313.714 117.714H227.188L137.995 180.973C138.565 175.968 139.229 170.963 139.994 166.04C144.196 139.007 149.57 138.45 155.962 132.211C158.082 130.141 153.417 123.383 158.158 122.107C172.118 94.3144 223.696 58.553 244.608 58.553C249.4 57.9666 253.729 58.1766 257.663 58.9092Z" fill="#4C3C2C"/>
<path d="M405.429 123.867C414.914 137.414 418.204 211.627 400.42 265.318C397.228 263.528 403.038 236.324 400.42 228.417C391.325 221.885 392.206 181.221 383.542 171.308C374.878 161.396 307.392 163.516 279.122 163.516C250.85 163.516 179.583 158.803 168.639 174.911C157.696 191.018 161.343 224.471 154.96 231.492C154.96 240.717 136.26 278.34 134.436 285.086C129.604 257.411 126.58 193.738 142.208 145.829C147.866 128.483 190.119 72.4672 279.122 72.4665C339.853 72.4659 347.519 84.6309 364.846 97.0212C378.525 104.868 377.158 108.173 383.542 115.194C386.734 115.194 399.684 115.662 405.429 123.867Z" fill="#4D3C2C"/>
<path d="M211.73 165.524C198.076 165.821 174.427 173.239 162.586 187.562C155.991 195.54 156.64 187.441 157.05 193.021L143.459 160.183L196.255 126.061L344.629 128.138C365.11 128.237 406.8 129.028 409.713 131.402C413.354 134.369 409.258 140.897 409.713 150.688C410.168 160.48 403.796 168.195 396.514 173.239C389.232 178.283 372.392 180.657 361.014 182.437C349.635 184.217 329.609 180.36 310.949 179.47C292.288 178.58 264.98 171.162 258.153 169.678C251.326 168.195 225.384 165.228 211.73 165.524Z" fill="#4C3C2C"/>
</g>
</g>
<defs>
<clipPath id="clip0">
<rect width="585.144" height="585.144" fill="white" transform="translate(-18 -11)"/>
</clipPath>
</defs>
</svg>
