<svg width="56" height="33" viewBox="0 0 56 33" fill="none" xmlns="http://www.w3.org/2000/svg">
<path d="M38.3323 28.3222C38.3323 30.3593 33.686 33 27.9884 33C22.2908 33 17.6561 30.3651 17.6561 28.3222C17.6561 26.2793 22.3024 24.631 28 24.631C33.6976 24.631 38.3323 26.2851 38.3323 28.3222Z" fill="#F6E300"/>
<path d="M37.6876 9.82571C37.6865 10.9631 37.49 12.0919 37.1068 13.1629C34.0989 13.6791 31.052 13.9354 28 13.9289C24.9462 13.9377 21.8974 13.6833 18.8874 13.1687C18.5042 12.0977 18.3077 10.9689 18.3066 9.83151C18.3066 8.56024 18.5572 7.30141 19.044 6.1269C19.5308 4.95239 20.2444 3.88521 21.144 2.98628C22.0436 2.08735 23.1115 1.37428 24.2869 0.887787C25.4623 0.401291 26.722 0.150894 27.9942 0.150894C29.2664 0.150894 30.5261 0.401291 31.7015 0.887787C32.8768 1.37428 33.9448 2.08735 34.8444 2.98628C35.744 3.88521 36.4575 4.95239 36.9444 6.1269C37.4312 7.30141 37.6818 8.56024 37.6818 9.83151L37.6876 9.82571Z" fill="#8AD1E6"/>
<g style="mix-blend-mode:multiply" opacity="0.86">
<path d="M28 1.54748e-06C27.6118 -0.000218546 27.2238 0.0230389 26.8384 0.0696463C29.2084 0.373018 31.3853 1.53284 32.9582 3.3302C34.5311 5.12756 35.3912 7.43811 35.3761 9.82571C35.3749 10.9631 35.1785 12.0919 34.7953 13.1629C32.1683 13.6198 29.5102 13.8759 26.8442 13.9289H28.0058C31.0578 13.9354 34.1047 13.6791 37.1126 13.1629C37.4958 12.0919 37.6923 10.9631 37.6934 9.82571C37.7026 8.54452 37.4592 7.27406 36.977 6.08689C36.4948 4.89971 35.7834 3.81907 34.8832 2.90666C33.9831 1.99425 32.9119 1.26795 31.7309 0.769224C30.5499 0.270497 29.2821 0.00911485 28 1.54748e-06V1.54748e-06Z" fill="#8AD1E6"/>
</g>
<path d="M54.6526 19.1523C54.6484 19.8216 54.4788 20.4795 54.1589 21.0675C51.766 25.6293 40.9633 29.0767 28.0232 29.0767H27.5063C14.7521 28.978 4.21075 25.5364 1.84692 21.0617C1.5259 20.476 1.35434 19.8201 1.34744 19.1523C1.34767 18.4756 1.53673 17.8123 1.89338 17.2371C4.38498 13.1164 15.1006 11.3115 28 11.3115C30.3871 11.3115 32.6986 11.3695 34.894 11.503C44.57 12.0834 52.0738 13.8767 54.1066 17.2313C54.4643 17.8082 54.6534 18.4736 54.6526 19.1523V19.1523Z" fill="#D3D3D3"/>
<path d="M54.3041 17.2313H1.69591C0.759286 17.2313 0 17.99 0 18.926V19.367C0 20.303 0.759286 21.0617 1.69591 21.0617H54.3041C55.2407 21.0617 56 20.303 56 19.367V18.926C56 17.99 55.2407 17.2313 54.3041 17.2313Z" fill="#72C400"/>
<path d="M4.30948 20.7135C5.17554 20.7135 5.87762 20.0119 5.87762 19.1465C5.87762 18.2811 5.17554 17.5795 4.30948 17.5795C3.44342 17.5795 2.74134 18.2811 2.74134 19.1465C2.74134 20.0119 3.44342 20.7135 4.30948 20.7135Z" fill="#F6E300"/>
<path d="M10.2336 20.7135C11.0996 20.7135 11.8017 20.0119 11.8017 19.1465C11.8017 18.2811 11.0996 17.5795 10.2336 17.5795C9.3675 17.5795 8.66542 18.2811 8.66542 19.1465C8.66542 20.0119 9.3675 20.7135 10.2336 20.7135Z" fill="#F6E300"/>
<path d="M16.1576 20.7135C17.0237 20.7135 17.7258 20.0119 17.7258 19.1465C17.7258 18.2811 17.0237 17.5795 16.1576 17.5795C15.2916 17.5795 14.5895 18.2811 14.5895 19.1465C14.5895 20.0119 15.2916 20.7135 16.1576 20.7135Z" fill="#F6E300"/>
<path d="M22.0759 20.7135C22.942 20.7135 23.6441 20.0119 23.6441 19.1465C23.6441 18.2811 22.942 17.5795 22.0759 17.5795C21.2099 17.5795 20.5078 18.2811 20.5078 19.1465C20.5078 20.0119 21.2099 20.7135 22.0759 20.7135Z" fill="#F6E300"/>
<path d="M28 20.7135C28.8661 20.7135 29.5681 20.0119 29.5681 19.1465C29.5681 18.2811 28.8661 17.5795 28 17.5795C27.1339 17.5795 26.4319 18.2811 26.4319 19.1465C26.4319 20.0119 27.1339 20.7135 28 20.7135Z" fill="#F6E300"/>
<path d="M33.9241 20.7135C34.7901 20.7135 35.4922 20.0119 35.4922 19.1465C35.4922 18.2811 34.7901 17.5795 33.9241 17.5795C33.058 17.5795 32.3559 18.2811 32.3559 19.1465C32.3559 20.0119 33.058 20.7135 33.9241 20.7135Z" fill="#F6E300"/>
<path d="M39.8424 20.7135C40.7084 20.7135 41.4105 20.0119 41.4105 19.1465C41.4105 18.2811 40.7084 17.5795 39.8424 17.5795C38.9763 17.5795 38.2742 18.2811 38.2742 19.1465C38.2742 20.0119 38.9763 20.7135 39.8424 20.7135Z" fill="#F6E300"/>
<path d="M45.7664 20.7135C46.6325 20.7135 47.3346 20.0119 47.3346 19.1465C47.3346 18.2811 46.6325 17.5795 45.7664 17.5795C44.9004 17.5795 44.1983 18.2811 44.1983 19.1465C44.1983 20.0119 44.9004 20.7135 45.7664 20.7135Z" fill="#F6E300"/>
<path d="M51.6905 20.7135C52.5566 20.7135 53.2587 20.0119 53.2587 19.1465C53.2587 18.2811 52.5566 17.5795 51.6905 17.5795C50.8245 17.5795 50.1224 18.2811 50.1224 19.1465C50.1224 20.0119 50.8245 20.7135 51.6905 20.7135Z" fill="#F6E300"/>
<g style="mix-blend-mode:overlay">
<path d="M22.0411 4.85772C20.5542 7.25466 20.1361 8.20647 19.9967 8.15424C19.8573 8.102 20.2 6.17516 21.3035 4.39922C22.407 2.62328 23.9403 1.41611 24.0913 1.5612C24.2423 1.70629 23.5279 2.46078 22.0411 4.85772Z" fill="white"/>
</g>
<g style="mix-blend-mode:multiply">
<path d="M56 18.926V19.367C55.9985 19.816 55.8193 20.2462 55.5016 20.5637C55.1839 20.8812 54.7534 21.0602 54.3041 21.0617H54.1531C51.7602 25.6235 40.9575 29.0709 28.0174 29.0709H27.5005C34.3829 26.8132 42.363 23.5631 45.5574 21.0617C46.4634 20.3537 46.9861 19.6978 46.9861 19.1523C46.9861 18.6067 46.4924 17.9335 45.6677 17.2371C43.4955 15.4031 38.9944 13.2557 34.894 11.5088C44.57 12.0892 52.0738 13.8825 54.1066 17.2371H54.3041C54.7524 17.2386 55.182 17.4168 55.4996 17.7331C55.8171 18.0493 55.9969 18.478 56 18.926V18.926Z" fill="#E0E0E0"/>
</g>
<path d="M38.1058 12.3561H17.9C17.6228 12.3561 17.3568 12.2461 17.1608 12.0502C16.9647 11.8542 16.8546 11.5885 16.8546 11.3115V11.3115C16.8546 11.0344 16.9647 10.7687 17.1608 10.5728C17.3568 10.3769 17.6228 10.2668 17.9 10.2668H38.1058C38.3831 10.2668 38.649 10.3769 38.845 10.5728C39.0411 10.7687 39.1512 11.0344 39.1512 11.3115V11.3115C39.1512 11.5885 39.0411 11.8542 38.845 12.0502C38.649 12.2461 38.3831 12.3561 38.1058 12.3561V12.3561Z" fill="#72C400"/>
<path d="M42.665 29.3611H13.3582C13.081 29.3611 12.8151 29.251 12.619 29.0551C12.4229 28.8592 12.3128 28.5935 12.3128 28.3164V28.3164C12.3143 28.0403 12.4252 27.7761 12.621 27.5814C12.8169 27.3868 13.082 27.2775 13.3582 27.2775H42.665C42.9423 27.2775 43.2082 27.3876 43.4042 27.5835C43.6003 27.7794 43.7104 28.0451 43.7104 28.3222C43.7089 28.5983 43.5981 28.8625 43.4022 29.0571C43.2063 29.2518 42.9413 29.3611 42.665 29.3611V29.3611Z" fill="#72C400"/>
<g style="mix-blend-mode:overlay">
<path d="M8.71189 14.7821C6.02862 15.6701 4.77992 16.4768 4.64634 16.3259C4.51276 16.175 5.99378 14.695 8.08463 13.9406C10.373 13.1164 12.6845 13.3602 12.6729 13.6097C12.6613 13.8593 11.279 13.929 8.71189 14.7821Z" fill="white"/>
</g>
</svg>
