<svg width="23" height="30" viewBox="0 0 23 30" fill="none" xmlns="http://www.w3.org/2000/svg">
<path d="M3.60911 19.7564C3.46904 19.5932 3.29329 19.4651 3.09575 19.3822C2.89821 19.2993 2.68429 19.264 2.47089 19.2789C2.27305 19.3032 2.08269 19.3702 1.91275 19.4753C1.7428 19.5804 1.59725 19.7212 1.48595 19.8881C1.36528 20.0527 1.04893 20.6388 1.53161 20.4281C1.69847 20.333 1.84308 20.2027 1.95559 20.0462L1.97842 20.0165C1.97842 20.0692 1.94581 20.1219 1.9295 20.1746C1.87406 20.359 1.57401 21.0768 1.499 21.2579C1.45986 21.3567 1.39463 21.5015 1.499 21.5871C1.60336 21.6728 1.69794 21.5871 1.76643 21.5575C1.88711 21.4559 1.98119 21.3258 2.04039 21.1789C2.09257 21.0867 2.13823 20.9879 2.18063 20.8924C2.1578 20.9912 2.13497 21.0867 2.10561 21.1821C2.0503 21.3199 2.0162 21.4653 2.00451 21.6135C2.00451 21.8308 2.24585 21.8111 2.36652 21.6892C2.49101 21.5214 2.57074 21.3241 2.59808 21.1163C2.61765 21.0307 2.64374 20.9451 2.66983 20.8595C2.66983 20.9549 2.66983 21.0504 2.66983 21.1459C2.66983 21.2974 2.62743 21.4456 2.63396 21.6003C2.64048 21.7551 2.81007 21.9592 2.9601 21.7485C3.11845 21.4736 3.2236 21.1707 3.26993 20.8562C3.33841 21.0537 3.22753 21.6497 3.43299 21.7057C3.78522 21.8012 3.87002 20.1384 3.60911 19.7564Z" fill="#989A9E"/>
<path d="M3.50801 21.7617C3.47305 21.7732 3.43534 21.7732 3.40038 21.7617C3.24384 21.7221 3.22427 21.5081 3.21774 21.2776C3.1661 21.4547 3.09153 21.6241 2.99597 21.7814C2.91117 21.9065 2.79377 21.9395 2.69592 21.8736C2.65461 21.8412 2.62111 21.7998 2.59795 21.7525C2.57479 21.7051 2.56257 21.6531 2.56221 21.6003C2.55913 21.5521 2.55913 21.5037 2.56221 21.4554C2.52856 21.5569 2.47411 21.65 2.4024 21.7287C2.36463 21.7669 2.31897 21.7961 2.26868 21.8143C2.23135 21.8337 2.18998 21.8438 2.14801 21.8438C2.10604 21.8438 2.06468 21.8337 2.02734 21.8143C1.99728 21.7928 1.97294 21.7641 1.95645 21.7308C1.93995 21.6975 1.93182 21.6606 1.93276 21.6234C1.93968 21.5622 1.95505 21.5024 1.97842 21.4456C1.93606 21.5125 1.87918 21.5688 1.81209 21.6102C1.78393 21.6268 1.75448 21.6411 1.72403 21.653C1.68453 21.6737 1.64006 21.6829 1.59567 21.6794C1.55128 21.6759 1.50875 21.6599 1.47291 21.6332C1.34571 21.5246 1.41746 21.3501 1.47291 21.2447L1.50552 21.169C1.59032 20.9615 1.76969 20.5104 1.86101 20.2898C1.78399 20.3778 1.68955 20.4484 1.58379 20.4972C1.42073 20.5697 1.31962 20.5631 1.25766 20.4972C1.13046 20.3227 1.45008 19.8716 1.45334 19.8683C1.57026 19.6908 1.72429 19.5413 1.9046 19.4304C2.08491 19.3195 2.28712 19.2498 2.49698 19.2263C2.72181 19.2109 2.94708 19.2488 3.15487 19.3368C3.36266 19.4248 3.54723 19.5606 3.69391 19.7333C3.88959 20.0626 3.88307 21.0504 3.72978 21.4982C3.65803 21.6398 3.5928 21.732 3.50801 21.7617ZM3.23405 20.7969C3.24804 20.796 3.26193 20.7997 3.27368 20.8074C3.28543 20.8151 3.2944 20.8264 3.29928 20.8397C3.32607 20.954 3.33704 21.0714 3.33189 21.1887C3.33189 21.3632 3.33189 21.6267 3.41995 21.6464C3.42942 21.6499 3.43983 21.6499 3.4493 21.6464V21.6464C3.46887 21.6464 3.52431 21.6036 3.5765 21.4423C3.72978 20.9846 3.71673 20.0429 3.55367 19.7959C3.41942 19.6431 3.25236 19.5234 3.06527 19.4458C2.87818 19.3682 2.67599 19.3348 2.47415 19.3481C2.28209 19.369 2.09704 19.4327 1.93235 19.5347C1.76766 19.6366 1.62744 19.7742 1.52183 19.9375C1.42399 20.0857 1.30332 20.3524 1.32615 20.4149C1.34898 20.4775 1.37833 20.4149 1.49248 20.3787C1.62069 20.3173 1.73251 20.2259 1.81861 20.112L1.90993 20.0132L1.93928 19.9836C1.9475 19.9692 1.96105 19.9586 1.97695 19.9543C1.99286 19.95 2.00981 19.9522 2.02408 19.9605C2.03835 19.9688 2.04878 19.9825 2.05306 19.9986C2.05734 20.0146 2.05513 20.0317 2.04691 20.0461L2.01756 20.1416L1.99799 20.2042C1.94907 20.3721 1.7012 20.9648 1.59684 21.2216L1.56749 21.2941C1.51857 21.4126 1.48921 21.5015 1.5414 21.5476C1.59358 21.5937 1.63272 21.5476 1.66859 21.5476L1.73708 21.5147C1.8329 21.4369 1.90799 21.3361 1.95559 21.2216L1.98821 21.1624C2.03386 21.0834 2.073 20.9977 2.11214 20.9154V20.8792C2.11916 20.8652 2.1309 20.8542 2.14525 20.8481C2.1596 20.8421 2.17562 20.8414 2.19041 20.8463C2.20523 20.8515 2.21751 20.8623 2.22477 20.8763C2.23204 20.8904 2.23374 20.9067 2.22955 20.922C2.20672 21.0307 2.18063 21.1295 2.15454 21.2151C2.15454 21.2513 2.13171 21.2875 2.11866 21.327C2.07976 21.4223 2.05768 21.5237 2.05343 21.6267C2.05266 21.6435 2.0558 21.6603 2.0626 21.6758C2.06939 21.6912 2.07965 21.7048 2.09257 21.7156C2.12999 21.728 2.17017 21.7294 2.20834 21.7195C2.2465 21.7096 2.28104 21.6888 2.30782 21.6596C2.4177 21.5121 2.48843 21.3387 2.51329 21.1558V21.1163C2.53612 21.0241 2.55895 20.9352 2.58504 20.8562C2.5872 20.8396 2.5958 20.8245 2.60895 20.8143C2.6221 20.8041 2.63872 20.7996 2.65516 20.8018C2.67159 20.804 2.68649 20.8127 2.69659 20.826C2.70668 20.8392 2.71113 20.856 2.70897 20.8726C2.70897 20.9681 2.70897 21.0669 2.70897 21.1624C2.70897 21.2579 2.70897 21.2974 2.6894 21.3632C2.67603 21.4449 2.66949 21.5275 2.66983 21.6102C2.66928 21.6433 2.67601 21.6761 2.68955 21.7063C2.70308 21.7365 2.72308 21.7633 2.74811 21.7847C2.75604 21.7893 2.76504 21.7918 2.7742 21.7918C2.78336 21.7918 2.79236 21.7893 2.80029 21.7847C2.83061 21.7696 2.85564 21.7454 2.87204 21.7156C3.02525 21.4486 3.12705 21.1548 3.17208 20.8496C3.17443 20.8347 3.18198 20.8213 3.19336 20.8116C3.20474 20.8019 3.21918 20.7967 3.23405 20.7969V20.7969Z" fill="#7B7D7F"/>
<path d="M21.9152 12.2391C21.7913 12.0646 21.2629 12.3807 21.0705 12.3873C21.3459 12.2321 21.5894 12.0254 21.788 11.7781C21.9315 11.5707 21.726 11.4686 21.5402 11.5312C21.3543 11.5937 21.2727 11.6695 21.1325 11.7254C20.9922 11.7814 20.9564 11.7979 20.865 11.8275C20.9335 11.7748 21.0053 11.7188 21.077 11.6695C21.2593 11.57 21.4132 11.4249 21.5238 11.248C21.5923 11.0932 21.5238 10.866 21.3249 10.9187C21.1922 10.9828 21.07 11.0672 20.9629 11.169C20.8846 11.2282 20.8031 11.2875 20.7215 11.3402C20.7966 11.2645 20.8683 11.1887 20.9368 11.1064C21.0521 10.9988 21.1394 10.8642 21.1912 10.7146C21.1912 10.6355 21.2075 10.5005 21.126 10.4511C21.0444 10.4018 20.9042 10.5005 20.8259 10.5763C20.6824 10.7113 20.1247 11.2348 19.9747 11.3665L19.8442 11.4686L19.8605 11.4324C19.9654 11.2702 20.0343 11.0872 20.0627 10.8957C20.0888 10.3655 19.6551 10.8726 19.5474 11.0438C19.4219 11.2125 19.3377 11.4088 19.3017 11.6167C19.2657 11.8245 19.2789 12.038 19.3403 12.2397C19.4017 12.4414 19.5095 12.6255 19.6549 12.7771C19.8003 12.9286 19.9792 13.0433 20.1769 13.1117C20.6237 13.217 22.1337 12.5486 21.9152 12.2391Z" fill="#989A9E"/>
<path d="M20.989 13.0327C20.7284 13.1445 20.4468 13.1973 20.1638 13.1874C19.9581 13.1144 19.7722 12.9936 19.6213 12.8346C19.4704 12.6757 19.3587 12.4831 19.2952 12.2725C19.2317 12.0619 19.2182 11.8391 19.2558 11.6222C19.2934 11.4053 19.381 11.2004 19.5116 11.0241C19.6115 10.8586 19.7504 10.7206 19.916 10.6224C19.9388 10.6091 19.9647 10.6021 19.991 10.6021C20.0173 10.6021 20.0432 10.6091 20.066 10.6224C20.1247 10.6652 20.1475 10.7541 20.141 10.899C20.1328 11.0142 20.1006 11.1264 20.0464 11.2282C20.2356 11.0603 20.5748 10.7376 20.7346 10.5697L20.7966 10.5104C20.8503 10.4534 20.9145 10.4075 20.9857 10.3754C21.0132 10.3622 21.0433 10.3554 21.0738 10.3554C21.1042 10.3554 21.1343 10.3622 21.1618 10.3754C21.2858 10.4479 21.2727 10.629 21.2597 10.7047C21.245 10.7825 21.2126 10.8558 21.1651 10.9187C21.2077 10.8892 21.2537 10.8649 21.3021 10.8463C21.3431 10.8277 21.3889 10.8229 21.4329 10.8323C21.4769 10.8418 21.5167 10.8651 21.5467 10.899C21.5841 10.9481 21.607 11.007 21.6128 11.0687C21.6186 11.1305 21.607 11.1926 21.5793 11.248C21.5317 11.3431 21.465 11.4272 21.3836 11.4949L21.488 11.4489H21.5141C21.5745 11.4237 21.641 11.4175 21.705 11.431C21.7689 11.4445 21.8274 11.4771 21.8728 11.5246C21.8997 11.5664 21.9117 11.6162 21.907 11.6658C21.9023 11.7155 21.881 11.762 21.8467 11.7979C21.7347 11.944 21.6042 12.0746 21.4586 12.1864C21.6739 12.1107 21.8793 12.0547 21.9707 12.1864C21.987 12.2101 21.9975 12.2374 22.0015 12.266C22.0055 12.2946 22.0027 12.3237 21.9935 12.3511C21.9185 12.5947 21.4358 12.8647 20.989 13.0327ZM19.9453 10.7277C19.7997 10.8192 19.6778 10.9445 19.5898 11.0932C19.4786 11.2518 19.4024 11.4326 19.3664 11.6235C19.3304 11.8144 19.3354 12.0108 19.3811 12.1996C19.4398 12.3951 19.5421 12.5745 19.68 12.724C19.8179 12.8735 19.9879 12.9892 20.1769 13.0623C20.4369 13.0709 20.6955 13.0203 20.9335 12.9141C21.413 12.7363 21.8108 12.4828 21.8598 12.3313C21.864 12.3232 21.8663 12.3141 21.8663 12.305C21.8663 12.2958 21.864 12.2867 21.8598 12.2786C21.8108 12.2062 21.5662 12.2984 21.4032 12.3576C21.2994 12.4047 21.1896 12.4368 21.077 12.4531C21.0631 12.4536 21.0494 12.4493 21.0381 12.441C21.0269 12.4326 21.0187 12.4206 21.0151 12.407C21.0119 12.393 21.0134 12.3784 21.0193 12.3653C21.0252 12.3522 21.0352 12.3414 21.0477 12.3346C21.3142 12.1844 21.5499 11.9844 21.7424 11.7452C21.7652 11.7156 21.7945 11.6596 21.7684 11.6234C21.7393 11.5956 21.7024 11.5776 21.6627 11.5717C21.623 11.5658 21.5825 11.5723 21.5467 11.5904H21.5238C21.4544 11.6189 21.3868 11.6519 21.3216 11.6892C21.2662 11.7189 21.2042 11.7518 21.1423 11.7781L20.927 11.8637L20.8716 11.8835C20.8576 11.8877 20.8426 11.8871 20.829 11.8818C20.8154 11.8764 20.804 11.8666 20.7966 11.8539C20.7887 11.8405 20.786 11.8247 20.789 11.8095C20.792 11.7943 20.8005 11.7808 20.8129 11.7715C20.8748 11.7221 20.9498 11.6662 21.0281 11.6135L21.0607 11.5904C21.2206 11.5023 21.3554 11.3742 21.4521 11.2184C21.4704 11.1863 21.4801 11.15 21.4801 11.113C21.4801 11.076 21.4704 11.0397 21.4521 11.0076C21.4521 11.0076 21.4162 10.9681 21.3445 11.0076C21.2508 11.0485 21.1647 11.1053 21.0901 11.1756L20.9988 11.248C20.9237 11.304 20.8422 11.3632 20.7509 11.4225C20.7445 11.4277 20.7371 11.4316 20.7292 11.4339C20.7213 11.4362 20.713 11.4369 20.7048 11.436C20.6967 11.4351 20.6887 11.4325 20.6815 11.4285C20.6743 11.4245 20.668 11.4191 20.6628 11.4126C20.6577 11.4061 20.6539 11.3987 20.6516 11.3907C20.6493 11.3827 20.6486 11.3744 20.6495 11.3661C20.6504 11.3579 20.6529 11.3499 20.6569 11.3426C20.6608 11.3353 20.6662 11.3289 20.6726 11.3237L20.6987 11.2974C20.7607 11.2315 20.8259 11.1624 20.8846 11.0932L20.9303 11.0406C21.0203 10.9557 21.0876 10.8492 21.126 10.731C21.126 10.6487 21.126 10.5565 21.0901 10.5335C21.0542 10.5104 20.9401 10.5763 20.8748 10.6388L20.8063 10.7047C20.6107 10.8924 20.1541 11.3336 20.0106 11.4423L19.9584 11.4851L19.8801 11.5443C19.8691 11.5546 19.8548 11.5604 19.8398 11.5608C19.8248 11.5612 19.8102 11.5561 19.7987 11.5464C19.7872 11.5368 19.7795 11.5233 19.7771 11.5084C19.7746 11.4935 19.7777 11.4782 19.7855 11.4653L19.8051 11.4258L19.8671 11.3073C19.9421 11.1891 19.989 11.055 20.004 10.9154C20.004 10.7738 19.9812 10.7475 19.9779 10.7475C19.9747 10.7475 19.9616 10.7376 19.9453 10.7442V10.7277Z" fill="#7B7D7F"/>
<path d="M14.8087 23.1216L17.1471 23.408L16.9677 24.9786L14.6326 25.0511L14.5869 24.949L14.6326 24.1653L14.8087 23.1216Z" fill="#84888A"/>
<path d="M17.0068 25.0807H16.9742L14.6358 25.1564C14.6139 25.1571 14.5923 25.1512 14.5738 25.1395C14.5552 25.1277 14.5405 25.1107 14.5315 25.0906L14.4858 24.9852C14.482 24.969 14.482 24.9521 14.4858 24.9358L14.5315 24.1522L14.7076 23.0985C14.7116 23.0702 14.7266 23.0446 14.7491 23.0274C14.7717 23.0101 14.8002 23.0025 14.8282 23.0063L17.1666 23.2895C17.1808 23.2911 17.1945 23.2955 17.207 23.3026C17.2194 23.3096 17.2304 23.3191 17.2392 23.3304C17.248 23.3417 17.2545 23.3547 17.2583 23.3686C17.262 23.3825 17.263 23.397 17.2612 23.4113L17.0851 24.9819C17.0835 25.0044 17.0751 25.0259 17.0611 25.0435C17.0472 25.0612 17.0282 25.0741 17.0068 25.0807ZM14.6978 24.9391L16.8666 24.87L17.0231 23.5035L14.8935 23.2434L14.7369 24.1818L14.6978 24.9292V24.9391Z" fill="#9CA1A3"/>
<path d="M16.1524 24.2048C16.1524 24.2048 19.5051 24.7679 18.8528 26.839C18.8528 26.839 15.9175 27.2308 14.2869 25.6339C14.2601 25.3652 14.2889 25.0938 14.3716 24.837C14.5184 24.2048 14.6978 24.1554 14.6978 24.1554C15.1814 24.0799 15.6748 24.0967 16.1524 24.2048Z" fill="#DFE0E1"/>
<path d="M18.8887 26.9411H18.8658C18.3022 27.0031 17.7335 27.0031 17.1699 26.9411C16.2991 26.8456 15.0794 26.5559 14.2151 25.7096C14.2003 25.6955 14.19 25.6771 14.1857 25.6569C14.1495 25.3729 14.174 25.0844 14.2575 24.8107C14.3977 24.2114 14.5836 24.0797 14.6619 24.0534C15.1604 23.9726 15.6695 23.9882 16.1621 24.0995C16.2372 24.0995 18.1451 24.4288 18.8071 25.5351C18.9268 25.7337 19.001 25.9569 19.0241 26.1882C19.0473 26.4195 19.0188 26.6532 18.9408 26.872C18.9373 26.8865 18.9309 26.9001 18.9219 26.912C18.9129 26.9239 18.9016 26.9338 18.8887 26.9411V26.9411ZM14.3945 25.5779C15.8327 26.9576 18.3081 26.7798 18.768 26.7369C18.8247 26.557 18.8424 26.3668 18.8199 26.1793C18.7973 25.9918 18.7352 25.8114 18.6375 25.6504C18.0277 24.6428 16.1556 24.3333 16.1361 24.3135C15.6766 24.2109 15.2024 24.1942 14.7369 24.2641C14.7174 24.2641 14.5836 24.3827 14.4728 24.8634C14.4085 25.0957 14.3821 25.337 14.3945 25.5779Z" fill="#C1C3C4"/>
<path d="M18.9376 26.3715C18.9319 26.5304 18.9044 26.6877 18.856 26.839C18.856 26.839 15.9208 27.2309 14.2901 25.6339C14.2798 25.5486 14.2798 25.4624 14.2901 25.3771C15.5881 26.3649 17.3069 26.6415 18.9376 26.3715Z" fill="#84888A"/>
<path d="M18.8887 26.9411H18.8658C18.3022 27.0031 17.7335 27.0031 17.1699 26.9411C16.2991 26.8456 15.0794 26.5559 14.2151 25.7096C14.2004 25.6953 14.1902 25.677 14.1858 25.6569C14.1737 25.5618 14.1737 25.4656 14.1858 25.3705C14.1865 25.3506 14.1926 25.3313 14.2035 25.3146C14.2144 25.298 14.2295 25.2847 14.2474 25.2763C14.2652 25.2678 14.285 25.2644 14.3046 25.2665C14.3243 25.2686 14.3429 25.2761 14.3586 25.2882C15.0151 25.7537 15.7577 26.0811 16.5421 26.2508C17.3265 26.4205 18.1368 26.4291 18.9245 26.276C18.9404 26.2736 18.9566 26.2747 18.972 26.2793C18.9874 26.2838 19.0016 26.2917 19.0137 26.3023C19.0258 26.313 19.0355 26.3261 19.042 26.3409C19.0486 26.3557 19.0519 26.3717 19.0517 26.3879C19.0461 26.5568 19.0175 26.7241 18.9669 26.8851C18.9591 26.8999 18.9479 26.9127 18.9343 26.9224C18.9207 26.9321 18.9051 26.9385 18.8887 26.9411ZM14.4434 25.624C15.8882 26.9411 18.3244 26.7765 18.7647 26.7337C18.7858 26.6559 18.801 26.5766 18.8104 26.4966C17.2995 26.756 15.7467 26.4467 14.4467 25.6273L14.4434 25.624Z" fill="#9CA1A3"/>
<path d="M15.4747 25.0241C15.502 24.782 15.3298 24.5633 15.09 24.5357C14.8502 24.508 14.6336 24.6819 14.6063 24.924C14.5789 25.1661 14.7511 25.3848 14.9909 25.4124C15.2307 25.44 15.4473 25.2662 15.4747 25.0241Z" fill="white"/>
<path d="M15.2229 25.4824C15.1299 25.5169 15.0293 25.5247 14.9322 25.5052C14.8351 25.4856 14.7452 25.4393 14.6724 25.3715C14.5997 25.3037 14.5469 25.2169 14.5198 25.1207C14.4928 25.0245 14.4926 24.9226 14.5192 24.8263C14.5458 24.73 14.5983 24.643 14.6707 24.5749C14.7432 24.5067 14.8329 24.4601 14.9299 24.4401C15.0269 24.4201 15.1275 24.4275 15.2207 24.4615C15.3138 24.4955 15.3958 24.5548 15.4577 24.6329C15.5454 24.7432 15.5864 24.8841 15.5718 25.0247C15.5622 25.1264 15.5243 25.2233 15.4626 25.3043C15.4009 25.3852 15.3178 25.447 15.2229 25.4824V25.4824ZM14.9196 24.6527C14.8604 24.6732 14.8083 24.7106 14.7696 24.7602C14.7308 24.8098 14.707 24.8696 14.701 24.9326C14.6913 24.9912 14.6975 25.0513 14.7189 25.1067C14.7403 25.162 14.7761 25.2105 14.8226 25.2469C14.8691 25.2834 14.9245 25.3065 14.9829 25.3137C15.0413 25.321 15.1005 25.3122 15.1544 25.2882C15.2136 25.2676 15.2656 25.2303 15.3044 25.1806C15.3431 25.131 15.3669 25.0712 15.3729 25.0083C15.3823 24.9501 15.376 24.8904 15.3547 24.8355C15.3334 24.7806 15.298 24.7325 15.252 24.6962C15.206 24.6598 15.1512 24.6366 15.0933 24.629C15.0354 24.6213 14.9765 24.6295 14.9228 24.6527H14.9196Z" fill="#9CA1A3"/>
<path d="M11.319 24.87L9.28064 26.0587L10.0536 27.4317L12.2322 26.5756V26.4604L11.8865 25.759L11.319 24.87Z" fill="#84888A"/>
<path d="M10.0895 27.5371C10.0654 27.5458 10.0391 27.5456 10.0152 27.5366C9.99135 27.5275 9.97142 27.5102 9.959 27.4877L9.1828 26.1113C9.1697 26.0859 9.1668 26.0563 9.17469 26.0287C9.18258 26.0011 9.20066 25.9777 9.22519 25.9632L11.2668 24.7745C11.2913 24.7607 11.32 24.7567 11.3473 24.7635C11.3745 24.7702 11.3982 24.7871 11.4136 24.8107L11.9778 25.6997L12.33 26.411C12.3336 26.4272 12.3336 26.4441 12.33 26.4604V26.5756C12.3302 26.5976 12.3237 26.6192 12.3115 26.6374C12.2993 26.6556 12.2818 26.6697 12.2615 26.6777L10.0829 27.5338L10.0895 27.5371ZM9.43718 26.1015L10.1123 27.2967L12.1343 26.5032L11.8082 25.8249L11.2864 25.0247L9.43718 26.1015Z" fill="#9CA1A3"/>
<path d="M10.5037 26.3978C10.5037 26.3978 7.63691 28.2417 9.04256 29.8881C9.04256 29.8881 11.8897 29.088 12.7671 26.974C12.6916 26.7165 12.5638 26.4777 12.392 26.2727C12.0137 25.7491 11.818 25.7821 11.818 25.7821C11.3456 25.9025 10.8998 26.1113 10.5037 26.3978V26.3978Z" fill="#DFE0E1"/>
<path d="M9.45349 29.8683C9.22193 29.9539 9.07843 29.9968 9.07191 29.9968C9.05224 30.0025 9.03136 30.0024 9.01172 29.9966C8.99207 29.9908 8.97449 29.9794 8.96102 29.9638C8.80383 29.7934 8.68649 29.5896 8.61763 29.3674C8.54878 29.1451 8.53015 28.9101 8.56313 28.6797C8.74903 27.412 10.3765 26.3517 10.4449 26.3056C10.7408 26.0934 11.0632 25.9218 11.4038 25.7952C11.5317 25.7493 11.6624 25.7119 11.7952 25.6833C11.8636 25.6833 12.0919 25.6833 12.4833 26.2167C12.6666 26.4355 12.8012 26.6915 12.8779 26.9675C12.8836 26.9868 12.8836 27.0074 12.8779 27.0267C12.1702 28.7027 10.246 29.572 9.45349 29.8683ZM9.07843 29.763C9.1404 29.7432 9.24476 29.7103 9.37848 29.6609C10.1384 29.3777 11.9876 28.5512 12.6399 26.9642C12.5616 26.7399 12.4482 26.5298 12.3039 26.3418C12.0202 25.9467 11.8571 25.9006 11.8278 25.894C11.7095 25.9236 11.593 25.9598 11.4788 26.0027C11.1542 26.1232 10.8471 26.2871 10.5656 26.49C10.5428 26.49 8.93493 27.547 8.77838 28.7126C8.75143 28.8994 8.76457 29.0899 8.8169 29.2711C8.86923 29.4523 8.95953 29.6201 9.08169 29.763H9.07843Z" fill="#C1C3C4"/>
<path d="M8.78817 29.4929C8.85512 29.6373 8.94185 29.7714 9.04582 29.8914C9.04582 29.8914 11.893 29.0912 12.7703 26.9773C12.7497 26.8937 12.719 26.813 12.679 26.7369C11.8637 28.1627 10.3732 29.1044 8.78817 29.4929Z" fill="#84888A"/>
<path d="M9.45349 29.8683C9.22194 29.9539 9.07844 29.9967 9.07191 29.9967C9.05224 30.0025 9.03136 30.0024 9.01172 29.9966C8.99208 29.9908 8.97449 29.9794 8.96103 29.9638C8.85061 29.8358 8.7584 29.6928 8.68707 29.5391C8.67987 29.5242 8.67612 29.5079 8.67612 29.4913C8.67612 29.4748 8.67987 29.4584 8.68707 29.4436C8.6939 29.4289 8.70389 29.416 8.7163 29.4057C8.72871 29.3955 8.74324 29.3882 8.75882 29.3843C9.02193 29.3194 9.2811 29.2391 9.53503 29.1439C10.8057 28.7033 11.8841 27.8287 12.5844 26.6711C12.5941 26.654 12.6081 26.6398 12.625 26.6299C12.6419 26.62 12.6611 26.6148 12.6806 26.6148C12.7002 26.6148 12.7193 26.62 12.7362 26.6299C12.7531 26.6398 12.7671 26.654 12.7768 26.6711C12.8221 26.7562 12.8561 26.847 12.8779 26.9411C12.8842 26.9615 12.8842 26.9833 12.8779 27.0037C12.167 28.7027 10.246 29.572 9.45349 29.8683ZM9.07844 29.763C9.1404 29.7432 9.24477 29.7103 9.37848 29.6609C10.1286 29.381 11.9224 28.5743 12.6399 27.0267C11.9062 28.1051 10.8503 28.9185 9.62635 29.3481C9.40784 29.4304 9.18606 29.4995 8.97407 29.5588C9.00504 29.6294 9.04101 29.6976 9.0817 29.763H9.07844Z" fill="#9CA1A3"/>
<path d="M12.0382 27.0485C12.2481 26.9282 12.3216 26.6589 12.2024 26.447C12.0833 26.2351 11.8165 26.1609 11.6066 26.2812C11.3967 26.4015 11.3232 26.6708 11.4424 26.8827C11.5616 27.0946 11.8283 27.1689 12.0382 27.0485Z" fill="white"/>
<path d="M12.0104 27.1716C11.879 27.22 11.7342 27.2153 11.6062 27.1583C11.4783 27.1013 11.3771 26.9966 11.3239 26.866C11.2708 26.7354 11.2697 26.5891 11.321 26.4577C11.3723 26.3263 11.472 26.2201 11.5991 26.1613C11.7263 26.1024 11.871 26.0956 12.0031 26.1421C12.1351 26.1886 12.2442 26.2849 12.3075 26.4108C12.3708 26.5368 12.3833 26.6825 12.3425 26.8176C12.3018 26.9526 12.2108 27.0665 12.0887 27.1354L12.0104 27.1716ZM11.7104 26.3418L11.6582 26.3649C11.5844 26.4055 11.5291 26.4734 11.5036 26.5542C11.4782 26.6351 11.4847 26.7227 11.5217 26.7989C11.5587 26.8751 11.6234 26.9339 11.7023 26.963C11.7812 26.9922 11.8682 26.9895 11.9452 26.9555C12.0222 26.9215 12.0832 26.8588 12.1155 26.7805C12.1479 26.7022 12.149 26.6143 12.1187 26.5352C12.0884 26.4561 12.0291 26.3918 11.953 26.3558C11.8769 26.3197 11.79 26.3147 11.7104 26.3418Z" fill="#9CA1A3"/>
<path d="M6.10406 13.1709L5.85293 13.3553C5.69639 13.4772 5.47135 13.6484 5.20066 13.8756C4.56964 14.4282 4.00386 15.0524 3.51453 15.736C3.0229 16.4304 2.62275 17.1864 2.32412 17.9849C2.26542 18.1495 2.20998 18.3142 2.17084 18.436L2.07952 18.7686L2.00451 19.0978V19.1637L3.96133 19.6214V19.5687L4.02004 19.325L4.10484 19.0484C4.13419 18.9398 4.17985 18.8245 4.22551 18.6928C4.46205 18.0614 4.77889 17.4637 5.16804 16.9148C5.56812 16.3586 6.02988 15.8504 6.54434 15.4001C6.75633 15.2157 6.94223 15.0708 7.06943 14.9721L7.27815 14.8173C7.55911 14.6273 7.78438 14.3646 7.93043 14.0567C7.9937 13.9297 8.02908 13.7904 8.03415 13.6483C8.03921 13.5063 8.01385 13.3648 7.95978 13.2335C7.88663 13.096 7.77569 12.9827 7.6403 12.9074C7.50491 12.832 7.35084 12.7978 7.19662 12.8087C6.80297 12.8054 6.41912 12.9326 6.10406 13.1709V13.1709Z" fill="#DFE0E1"/>
<path d="M3.95807 19.6773C3.94635 19.6807 3.93392 19.6807 3.9222 19.6773L1.97842 19.223C1.97019 19.2214 1.96237 19.2182 1.95541 19.2135C1.94845 19.2088 1.94251 19.2027 1.93793 19.1956C1.93336 19.1886 1.93026 19.1806 1.92881 19.1723C1.92736 19.164 1.92759 19.1554 1.9295 19.1472V19.0814L2.02082 18.7686L2.12518 18.4129C2.15127 18.3207 2.18715 18.222 2.22628 18.1166L2.28173 17.9585C2.58139 17.1541 2.98376 16.3925 3.47865 15.6932C3.97193 15.0088 4.54091 14.3836 5.17457 13.8295C5.43548 13.599 5.66377 13.4245 5.82684 13.3092L6.07797 13.1215C6.40162 12.8791 6.79362 12.7476 7.19662 12.7462C7.35575 12.7423 7.51284 12.783 7.65044 12.8638C7.78805 12.9446 7.90077 13.0623 7.97609 13.2039C8.03481 13.3432 8.06261 13.4938 8.05754 13.6451C8.05247 13.7964 8.01465 13.9447 7.94674 14.0797C7.80176 14.3955 7.57675 14.6669 7.29446 14.8667L7.089 15.0181C6.95528 15.1202 6.76286 15.2618 6.56718 15.4429C6.05786 15.8896 5.6005 16.3933 5.20392 16.9444C4.81513 17.4888 4.49828 18.0821 4.26138 18.7093L4.21246 18.8509C4.18637 18.9233 4.16028 18.9958 4.14397 19.0616L4.06244 19.3382L3.98743 19.6345C3.98587 19.6434 3.98244 19.6518 3.97737 19.6592C3.97231 19.6666 3.96572 19.6728 3.95807 19.6773V19.6773ZM2.06322 19.0978L3.88959 19.5259L3.93524 19.3053L4.02004 19.0254C4.03961 18.9595 4.0657 18.8871 4.09179 18.8081C4.11788 18.729 4.1244 18.7159 4.14071 18.6665C4.37955 18.0291 4.69969 17.4258 5.09303 16.872C5.4955 16.3127 5.9594 15.8013 6.47586 15.3474C6.68458 15.163 6.86722 15.0181 7.00094 14.9194L7.21619 14.7613C7.48829 14.5795 7.70685 14.3269 7.8489 14.0303C7.90828 13.9116 7.94191 13.7815 7.94754 13.6486C7.95316 13.5158 7.93065 13.3832 7.88151 13.2598C7.81496 13.1367 7.71544 13.035 7.59432 12.9663C7.47321 12.8976 7.33539 12.8647 7.19662 12.8713C6.81293 12.867 6.43838 12.9896 6.13015 13.2203L5.87902 13.4047C5.729 13.52 5.50397 13.6945 5.24632 13.9217C4.61921 14.4705 4.05672 15.0903 3.56997 15.7689C3.08074 16.4578 2.68274 17.2083 2.38609 18.0014L2.33065 18.1594C2.29477 18.2615 2.2589 18.3603 2.23281 18.4492L2.14149 18.8015L2.06322 19.0978Z" fill="#C1C3C4"/>
<path opacity="0.7" d="M5.03107 17.0959L5.16804 16.8983C5.25284 16.7831 5.36699 16.625 5.49418 16.4768C5.73552 16.1772 6.00948 15.8973 6.00948 15.8973L4.58752 14.488C4.58752 14.488 4.26138 14.8173 3.95481 15.1993C3.80153 15.3837 3.66129 15.5779 3.55366 15.7228L3.38407 15.9698L5.03107 17.0959Z" fill="white"/>
<g style="mix-blend-mode:multiply" opacity="0.2">
<path d="M3.02206 19.4041L3.93524 19.6181V19.5654L3.99395 19.3218L4.07874 19.0452C4.10809 18.9365 4.15375 18.8213 4.19941 18.6896C4.43596 18.0581 4.7528 17.4604 5.14195 16.9115C5.55036 16.355 6.02093 15.8478 6.54434 15.4001C6.75633 15.2157 6.94223 15.0709 7.06943 14.9721L7.27815 14.8173C7.54441 14.6316 7.75891 14.3799 7.90108 14.0863C7.96478 13.9643 8.00365 13.8307 8.01541 13.6932C8.02718 13.5558 8.01159 13.4174 7.96957 13.2862C7.96957 13.2862 7.85542 13.3389 7.663 13.4475C7.47057 13.5562 7.19662 13.7175 6.87048 13.9316C6.51588 14.1777 6.1761 14.4449 5.85293 14.7317C5.48301 15.0637 5.13748 15.4225 4.81908 15.8051C4.22276 16.5197 3.74278 17.3255 3.39711 18.1924C3.3221 18.3669 3.27318 18.5216 3.221 18.6797L3.10685 19.0649L3.02206 19.4041Z" fill="#36373A"/>
</g>
<path d="M2.23933 18.2681C2.23933 18.2681 2.20672 18.3537 2.18389 18.4393L2.13171 18.6105L4.05266 19.1834L4.09179 19.0484C4.11136 18.9793 4.13419 18.9134 4.13419 18.9134L2.23933 18.2681Z" fill="#ED1042"/>
<path d="M2.35674 17.9289L2.29803 18.1001L4.18311 18.785L4.22877 18.65L2.35674 17.9289Z" fill="#ED1042"/>
<path d="M12.9334 14.0764L13.2302 14.1489C13.4193 14.1917 13.69 14.2542 14.0194 14.3135C14.8354 14.4675 15.6649 14.5359 16.4948 14.5177C17.3768 14.5057 18.2494 14.334 19.0713 14.0106C19.355 13.8953 19.6288 13.7566 19.8899 13.5957C19.9653 13.5515 20.0382 13.5031 20.1084 13.4508L20.1834 13.3981L20.2421 13.352L19.0582 11.7254L19.0191 11.7518L18.9734 11.7847C18.9312 11.8178 18.8865 11.8475 18.8397 11.8736C18.6738 11.9776 18.4992 12.0668 18.3179 12.1403C17.7178 12.3773 17.0804 12.5033 16.4361 12.5124C15.7434 12.522 15.0515 12.4591 14.3716 12.3247C14.0879 12.2753 13.8531 12.2193 13.6868 12.1831L13.4291 12.1173C13.0942 12.0222 12.7399 12.0222 12.405 12.1173C12.2634 12.1509 12.1315 12.2176 12.0199 12.312C11.9084 12.4063 11.8202 12.5257 11.7625 12.6606C11.718 12.8018 11.7114 12.9525 11.7435 13.0971C11.7756 13.2418 11.8452 13.3752 11.9452 13.4837C12.2031 13.7832 12.5496 13.991 12.9334 14.0764V14.0764Z" fill="#DFE0E1"/>
<path d="M18.8789 14.1587C18.1123 14.426 17.3089 14.5704 16.4981 14.5868C15.6637 14.6037 14.8299 14.5342 14.0096 14.3793C13.6835 14.3201 13.403 14.2575 13.2204 14.2147L12.9236 14.1423C12.5318 14.0493 12.1792 13.8338 11.9158 13.5265C11.8089 13.4094 11.7347 13.2656 11.7009 13.11C11.6671 12.9543 11.6749 12.7924 11.7234 12.6408C11.783 12.4994 11.8745 12.3739 11.9906 12.2745C12.1066 12.175 12.2441 12.1043 12.392 12.0679C12.7376 11.97 13.1031 11.97 13.4487 12.0679L13.7226 12.137C13.8857 12.1732 14.114 12.2259 14.3749 12.2753C15.0512 12.4027 15.7385 12.4601 16.4263 12.4465C17.0089 12.4384 17.5866 12.3384 18.1385 12.1502L18.282 12.0909C18.4612 12.0187 18.6336 11.9305 18.7973 11.8275C18.8346 11.8067 18.8706 11.7836 18.905 11.7583L19.0126 11.6826C19.0246 11.6715 19.0403 11.6653 19.0566 11.6653C19.0729 11.6653 19.0886 11.6715 19.1006 11.6826L20.2845 13.3092C20.2903 13.315 20.295 13.322 20.2981 13.3296C20.3013 13.3372 20.3029 13.3454 20.3029 13.3537C20.3029 13.3619 20.3013 13.3701 20.2981 13.3777C20.295 13.3854 20.2903 13.3923 20.2845 13.3981L20.1215 13.5167C20.0725 13.5496 20.0073 13.5957 19.9258 13.6451C19.6629 13.8076 19.3868 13.9475 19.1006 14.0632L18.8789 14.1587ZM12.3561 12.2094C12.2393 12.2451 12.1315 12.3059 12.0402 12.3878C11.949 12.4697 11.8765 12.5706 11.8278 12.6836C11.7873 12.8145 11.7819 12.9539 11.8123 13.0875C11.8426 13.2212 11.9077 13.3443 12.0006 13.4442C12.2462 13.7303 12.5749 13.9308 12.9399 14.0172L13.2334 14.0896C13.4128 14.1324 13.6868 14.195 14.0162 14.2542C14.8279 14.4068 15.653 14.4752 16.4785 14.4584C17.276 14.444 18.0662 14.3029 18.8202 14.0402V14.0402L19.0289 13.9546C19.3098 13.8413 19.5804 13.7036 19.8377 13.543C19.9019 13.5059 19.9639 13.4652 20.0236 13.4212L20.1345 13.3421L19.0256 11.8143L18.9702 11.8538C18.932 11.8832 18.8917 11.9097 18.8495 11.9329C18.6807 12.0387 18.5028 12.1291 18.3179 12.2029L18.1679 12.2621C17.6034 12.4553 17.0125 12.5587 16.4165 12.5684C15.7306 12.5771 15.0456 12.5165 14.3717 12.3873C14.0944 12.3379 13.8661 12.2852 13.6998 12.249L13.4128 12.1831C13.0926 12.0939 12.7546 12.0939 12.4344 12.1831L12.3561 12.2094Z" fill="#C1C3C4"/>
<path opacity="0.7" d="M16.6546 12.4894C16.6546 12.4894 16.56 12.4894 16.4165 12.4894C16.273 12.4894 16.0904 12.4894 15.8849 12.4894C15.6795 12.4894 15.4936 12.4663 15.3468 12.4564L15.0989 12.4301L14.8674 14.4386L15.1576 14.4716C15.3338 14.4716 15.5686 14.5045 15.8099 14.5144C16.0513 14.5243 16.2861 14.5144 16.4622 14.5144C16.6383 14.5144 16.7655 14.5144 16.7655 14.5144L16.6546 12.4894Z" fill="white"/>
<g style="mix-blend-mode:multiply" opacity="0.2">
<path d="M19.6159 12.4926L19.0615 11.7287L19.0224 11.7551L18.9767 11.788C18.9345 11.821 18.8898 11.8508 18.843 11.8769C18.677 11.9809 18.5024 12.0701 18.3212 12.1436C17.7199 12.3799 17.0813 12.5048 16.4361 12.5124C15.7434 12.522 15.0515 12.4591 14.3716 12.3247C14.0879 12.2753 13.8531 12.2193 13.6868 12.1831L13.4291 12.1173C12.7247 11.9395 12.0365 12.1173 11.7984 12.6046C11.7984 12.6046 12.2713 12.789 13.0084 12.9898C13.9076 13.2376 14.8303 13.3888 15.761 13.4409C16.2563 13.4661 16.7529 13.4474 17.2449 13.385C17.6731 13.3304 18.0942 13.2288 18.5006 13.082C18.7866 12.9762 19.0618 12.8428 19.3224 12.6836C19.3954 12.6401 19.4662 12.5929 19.5344 12.542L19.6159 12.4926Z" fill="#36373A"/>
</g>
<path d="M19.3713 13.8789L19.5442 13.7933C19.6034 13.7645 19.6611 13.7326 19.717 13.6978L18.7386 11.9362L18.5201 12.0514L19.3713 13.8789Z" fill="#ED1042"/>
<path d="M19.0191 14.0336L19.1952 13.9579L18.3962 12.1041L18.2788 12.1535L19.0191 14.0336Z" fill="#ED1042"/>
<path d="M9.13714 19.3678C9.13714 19.3678 7.93369 21.5509 10.595 26.0125L9.13714 19.3678Z" fill="#84888A"/>
<path d="M7.64669 20.5598C7.64669 20.5598 7.64669 20.5861 7.64669 20.6355C7.64669 20.6849 7.64669 20.7574 7.64669 20.8496C7.64669 21.0372 7.64669 21.2908 7.68257 21.6003C7.76487 22.3181 7.92454 23.0248 8.15873 23.7076C8.22395 23.8855 8.28266 24.0698 8.35115 24.2411L8.56314 24.7416L8.66424 24.9786L8.77187 25.1992L8.97081 25.601L9.05887 25.7788L9.14692 25.9335L9.28716 26.1871L9.4111 26.4077L9.44045 26.4538L11.5082 25.2289L11.4886 25.1861L11.381 24.9951L11.257 24.7745L11.182 24.6395L11.1103 24.4814L10.9439 24.1522L10.8526 23.9678L10.7678 23.7702L10.595 23.3586C10.5395 23.217 10.4939 23.0721 10.4417 22.9306C10.2647 22.4219 10.1433 21.8952 10.0797 21.3599C10.0797 21.1525 10.0503 20.9813 10.0568 20.866C10.0568 20.8068 10.0568 20.7607 10.0568 20.731C10.0568 20.7014 10.0568 20.6816 10.0568 20.6816C10.0663 20.4248 9.97618 20.1744 9.80572 19.9836C9.715 19.8725 9.61338 19.771 9.50241 19.6806C9.37467 19.5783 9.23435 19.4931 9.08496 19.4271C8.9377 19.3568 8.77391 19.3294 8.61206 19.3481C8.44328 19.3721 8.28363 19.4402 8.14894 19.5456C7.99868 19.669 7.87617 19.8232 7.78957 19.9981C7.70297 20.1729 7.65426 20.3644 7.64669 20.5598V20.5598Z" fill="#DFE0E1"/>
<path d="M9.4111 26.5493L9.34261 26.4406L8.99038 25.8117L8.59575 25.0083L8.26962 24.2674C8.22396 24.1489 8.18156 24.027 8.13916 23.9085L8.07719 23.7307C7.83966 23.0439 7.67778 22.3328 7.59451 21.6102V21.5542C7.5718 21.3211 7.56092 21.0871 7.5619 20.8529V20.6421C7.5619 20.5894 7.5619 20.5598 7.5619 20.5598C7.57003 20.3531 7.62163 20.1504 7.71329 19.9653C7.80494 19.7803 7.93455 19.617 8.0935 19.4864C8.23852 19.3729 8.41067 19.3002 8.59249 19.2756C8.76879 19.2555 8.94718 19.2851 9.10779 19.3613C9.25754 19.432 9.39781 19.5216 9.52524 19.628C9.64522 19.7257 9.75455 19.8361 9.85138 19.9572C10.0314 20.1521 10.1316 20.4086 10.1319 20.6751C10.1309 20.6893 10.1309 20.7036 10.1319 20.7179V20.8562C10.1256 20.9658 10.1256 21.0758 10.1319 21.1854C10.1319 21.2348 10.1319 21.2875 10.1319 21.3435C10.1963 21.8708 10.3166 22.3896 10.4906 22.8911L10.5461 23.0557C10.5754 23.1446 10.608 23.2302 10.6406 23.3191L10.8983 23.925L11.306 24.7317L11.5897 25.2486L9.4111 26.5493ZM8.43268 19.4666C8.34507 19.4994 8.26267 19.5448 8.18808 19.6016C8.04681 19.7194 7.93168 19.8659 7.85021 20.0315C7.76873 20.1972 7.72272 20.3783 7.71518 20.5631C7.71518 20.5631 7.71518 20.5894 7.71518 20.6355V20.8496C7.71518 21.0241 7.71518 21.2612 7.7478 21.5377V21.5937C7.83006 22.303 7.98975 23.0009 8.22396 23.6747L8.28592 23.8525C8.32832 23.9711 8.37072 24.0896 8.41312 24.2049L8.73925 24.9391L9.21868 25.8874L9.46328 26.3418L11.4201 25.1927L11.094 24.623L10.7678 23.9908L10.5167 23.3784C10.4808 23.2895 10.4482 23.2006 10.4189 23.1084L10.3602 22.947C10.1811 22.4329 10.0576 21.9008 9.99162 21.3599C9.99162 21.3007 9.99162 21.2513 9.99162 21.1986C9.98514 21.0834 9.98514 20.968 9.99162 20.8529V20.7211C9.99162 20.6849 9.99162 20.6652 9.99162 20.6652C9.9949 20.4309 9.90843 20.2044 9.75028 20.033C9.66295 19.9251 9.56456 19.8269 9.45676 19.7399C9.33953 19.6412 9.21018 19.5582 9.07191 19.493C8.93138 19.4275 8.77502 19.4046 8.62184 19.4271C8.55971 19.4334 8.49845 19.4467 8.43921 19.4666H8.43268Z" fill="#C1C3C4"/>
<g style="mix-blend-mode:multiply" opacity="0.2">
<path d="M9.43392 19.5786H9.40131C9.39268 19.5968 9.38505 19.6155 9.37848 19.6346C9.35675 19.6916 9.33823 19.7499 9.32304 19.8091C9.25924 20.0324 9.21987 20.262 9.20563 20.494C9.1976 20.653 9.1976 20.8124 9.20563 20.9714C9.20563 21.057 9.20563 21.1459 9.20563 21.2348C9.20563 21.3237 9.20563 21.4159 9.22846 21.5081C9.25781 21.6925 9.27412 21.8868 9.31978 22.0811C9.33934 22.1765 9.35891 22.2753 9.38174 22.3741C9.40457 22.4729 9.43392 22.5684 9.46001 22.6672L9.54155 22.9602C9.5709 23.059 9.60678 23.1512 9.63939 23.2467C9.70788 23.4344 9.76658 23.6253 9.84486 23.7999L10.0601 24.3102L10.2786 24.758C10.4091 25.0379 10.5395 25.2585 10.6276 25.4166L10.7678 25.6635L11.5016 25.2289L11.4788 25.1861L11.3712 24.9951L11.2473 24.7745L11.1722 24.6395L11.1103 24.4814L10.9439 24.1522L10.8526 23.9678L10.7678 23.7702L10.595 23.3586C10.5395 23.217 10.4939 23.0722 10.4417 22.9306C10.2647 22.4219 10.1433 21.8952 10.0797 21.3599C10.0797 21.1525 10.0503 20.9813 10.0568 20.866C10.0568 20.8068 10.0568 20.7607 10.0568 20.731C10.0568 20.7014 10.0568 20.6816 10.0568 20.6816C10.0729 20.4519 10.0207 20.2226 9.90682 20.0231C9.80046 19.8276 9.63468 19.6717 9.43392 19.5786V19.5786Z" fill="#36373A"/>
</g>
<path d="M8.43268 24.4288L8.54356 24.6955L10.7483 23.7274L10.6537 23.5068L8.43268 24.4288Z" fill="#ED1042"/>
<path d="M8.32179 24.162C8.32179 24.162 8.32179 24.195 8.34788 24.2279L8.37724 24.2937L10.6113 23.3948C10.6113 23.3948 10.5624 23.2862 10.5656 23.2862L8.32179 24.162Z" fill="#ED1042"/>
<path d="M10.3471 22.4762C10.3785 22.6039 10.3843 22.7367 10.3641 22.8668C10.344 22.9969 10.2983 23.1215 10.2297 23.2335C10.0741 23.498 9.83697 23.7039 9.5546 23.8196C9.41299 23.8813 9.26039 23.9131 9.10616 23.9131C8.95193 23.9131 8.79932 23.8813 8.65772 23.8196C8.44281 23.7192 8.26627 23.5507 8.15499 23.3397C8.04372 23.1287 8.0038 22.8867 8.04132 22.6507C8.06818 22.4978 8.12591 22.3521 8.21091 22.2226C8.29515 22.0951 8.40658 21.9882 8.53705 21.9098C8.67333 21.8292 8.82408 21.7766 8.98059 21.7551C9.13499 21.7291 9.29257 21.7291 9.44697 21.7551C9.58887 21.7823 9.72616 21.83 9.85464 21.8966C9.97199 21.9564 10.0771 22.0379 10.1645 22.137C10.2492 22.2352 10.3116 22.351 10.3471 22.4762V22.4762Z" fill="#DFE0E1"/>
<path d="M9.54807 23.9151C9.40009 23.9739 9.242 24.0025 9.083 23.9991C8.92399 23.9957 8.76723 23.9604 8.62184 23.8953C8.39225 23.7851 8.20443 23.6024 8.08675 23.3749C7.96907 23.1474 7.92794 22.8874 7.96957 22.6342C7.99837 22.4695 8.06055 22.3126 8.15221 22.1732C8.24533 22.0385 8.3667 21.926 8.5077 21.844C8.65387 21.7568 8.81571 21.6997 8.98386 21.676C9.14685 21.6482 9.31333 21.6482 9.47632 21.676C9.62611 21.7044 9.77109 21.7543 9.90683 21.8242C10.0307 21.8895 10.1414 21.9778 10.233 22.0843C10.3259 22.1886 10.3949 22.3123 10.4352 22.4465C10.4694 22.5854 10.4757 22.7297 10.4539 22.8711C10.4321 23.0124 10.3824 23.148 10.308 23.2697C10.1421 23.5503 9.89023 23.7687 9.59047 23.892L9.54807 23.9151ZM8.75556 21.8966C8.69445 21.9198 8.63551 21.9485 8.57945 21.9823C8.45935 22.0537 8.35679 22.1516 8.2794 22.2687C8.20081 22.3881 8.14752 22.5227 8.12285 22.6638C8.08867 22.8816 8.12594 23.1047 8.22898 23.2991C8.33202 23.4934 8.49518 23.6485 8.69359 23.7406C8.82012 23.7941 8.95593 23.8217 9.09311 23.8217C9.2303 23.8217 9.36611 23.7941 9.49263 23.7406H9.52524C9.78936 23.6309 10.0113 23.4381 10.158 23.1907C10.2209 23.088 10.2628 22.9736 10.2813 22.8543C10.2998 22.735 10.2944 22.6131 10.2656 22.4959C10.2316 22.3864 10.1749 22.2853 10.0992 22.1996C10.0193 22.1086 9.92301 22.0338 9.81551 21.979C9.69395 21.9171 9.56441 21.8728 9.43067 21.8473C9.286 21.8228 9.13831 21.8228 8.99364 21.8473C8.91277 21.8552 8.83297 21.8717 8.75556 21.8966V21.8966Z" fill="#C1C3C4"/>
<path opacity="0.7" d="M10.0373 22.5486C10.0601 22.6438 10.0601 22.7432 10.0373 22.8384C10.0231 22.9372 9.98986 23.0323 9.93944 23.1182C9.8242 23.3114 9.64697 23.459 9.43718 23.5364C9.3338 23.5797 9.22297 23.602 9.11105 23.602C8.99912 23.602 8.88829 23.5797 8.78491 23.5364C8.68477 23.4903 8.5949 23.4242 8.52074 23.3422C8.44805 23.2546 8.39469 23.1525 8.36419 23.0425C8.33482 22.9354 8.32705 22.8234 8.34136 22.7132C8.36121 22.6026 8.40339 22.4972 8.46529 22.4037C8.52886 22.3102 8.61042 22.2305 8.7051 22.1694C8.79979 22.1083 8.90567 22.0671 9.01647 22.0481C9.23836 22.0057 9.46791 22.0393 9.66874 22.1436C9.75566 22.1886 9.83317 22.2501 9.89704 22.3247C9.95966 22.3879 10.0076 22.4644 10.0373 22.5486V22.5486Z" fill="white"/>
<path d="M11.7462 25.2289L9.37523 26.6612L9.06213 26.1015L11.4788 24.7547L11.7462 25.2289Z" fill="#DFE0E1"/>
<path d="M9.34913 26.7666L8.96102 26.0751L11.5114 24.6527L11.8376 25.2552L9.34913 26.7666ZM9.15344 26.1311L9.39152 26.5526L11.6321 25.1993L11.4397 24.87L9.15344 26.1311Z" fill="#C1C3C4"/>
<path d="M12.2844 18.5677C12.2844 18.5677 16.1295 18.6698 15.9632 23.836L12.2844 18.5677Z" fill="#84888A"/>
<path d="M13.0377 20.0231L13.0769 20.0396L13.1845 20.0922C13.3108 20.1579 13.4308 20.2351 13.5433 20.3227C13.8903 20.5934 14.1658 20.9462 14.3456 21.3501C14.4499 21.5879 14.5329 21.8348 14.5934 22.0876C14.6195 22.216 14.6489 22.3379 14.6652 22.463L14.6913 22.6408C14.6913 22.6968 14.6913 22.756 14.7076 22.812C14.7333 23.0603 14.7442 23.3099 14.7402 23.5595C14.7402 23.5595 14.7402 23.5891 14.7402 23.6056L17.1373 23.6319C17.1373 23.6122 17.1373 23.5924 17.1373 23.5759C17.1373 23.5595 17.1373 23.4772 17.1373 23.3059C17.1373 23.1347 17.1373 22.8845 17.0949 22.5815C17.0949 22.5058 17.0949 22.4268 17.0721 22.3445L17.0329 22.0909C17.0101 21.9164 16.9677 21.7287 16.9286 21.5377C16.8317 21.1262 16.6963 20.7248 16.5242 20.3392C16.3402 19.9367 16.108 19.5584 15.8327 19.2131C15.5853 18.9072 15.3028 18.632 14.9913 18.3932C14.7719 18.2248 14.5384 18.0761 14.2934 17.9487C14.2053 17.9026 14.1368 17.8664 14.0879 17.8466L14.0129 17.8137C13.8342 17.7274 13.6386 17.6827 13.4405 17.6827C13.2424 17.6827 13.0469 17.7274 12.8682 17.8137C12.7203 17.8869 12.5942 17.9982 12.5026 18.1364C12.4109 18.2746 12.357 18.4347 12.3463 18.6006C12.3292 18.9094 12.3933 19.2173 12.5322 19.493C12.635 19.7233 12.8136 19.9107 13.0377 20.0231V20.0231Z" fill="#DFE0E1"/>
<path d="M17.2123 23.7076H17.1373L14.6684 23.6813V23.5661C14.673 23.3176 14.6632 23.0692 14.6391 22.8219V22.7593C14.6391 22.7264 14.6391 22.6902 14.6391 22.654L14.613 22.4795C14.6021 22.3964 14.5868 22.3139 14.5673 22.2325L14.5412 22.1074C14.4827 21.8601 14.4019 21.6187 14.2999 21.3863C14.1233 20.9981 13.8558 20.659 13.5204 20.3985C13.412 20.3145 13.2963 20.2407 13.1747 20.1778L13.0704 20.1252L13.0084 20.0856C12.7708 19.9647 12.5819 19.7647 12.4735 19.5193C12.3292 19.2301 12.2628 18.9075 12.2811 18.5842C12.2922 18.4052 12.3499 18.2324 12.4484 18.0832C12.5469 17.934 12.6827 17.8138 12.8421 17.7346C12.8843 17.7121 12.9278 17.6923 12.9725 17.6754C13.3249 17.5528 13.7107 17.5729 14.0488 17.7313L14.1238 17.7643C14.1629 17.7807 14.2314 17.8137 14.3325 17.8696C14.581 17.999 14.8178 18.1499 15.0402 18.3207C15.3557 18.5633 15.6415 18.843 15.8915 19.1538C16.1715 19.5031 16.4081 19.8857 16.5959 20.2931C16.769 20.6832 16.9055 21.0889 17.0036 21.5048L17.0297 21.6332C17.0623 21.7847 17.0916 21.9263 17.1112 22.0646L17.1503 22.3181C17.1503 22.3774 17.1503 22.4334 17.1666 22.486V22.5552C17.1927 22.7824 17.1993 22.9767 17.2058 23.1347C17.2058 23.1907 17.2058 23.2401 17.2058 23.2862C17.2058 23.464 17.2058 23.5628 17.2058 23.5628L17.2123 23.7076ZM14.8152 23.543L17.0655 23.5661C17.0655 23.5331 17.0655 23.4475 17.0655 23.3158C17.0655 23.273 17.0655 23.2203 17.0655 23.1643C17.0655 23.0096 17.0655 22.8186 17.0297 22.5947V22.5223C17.0297 22.4696 17.0297 22.4169 17.0134 22.3609L16.9775 22.1074C16.9612 21.9724 16.9318 21.8341 16.8992 21.6859L16.8731 21.5608C16.777 21.1552 16.6438 20.7594 16.4752 20.3787C16.2936 19.9832 16.0647 19.6116 15.7936 19.2723C15.5467 18.961 15.263 18.6812 14.9489 18.4393C14.7334 18.2739 14.5043 18.1273 14.264 18.0013L14.0618 17.8993L13.9868 17.8631C13.6798 17.7178 13.3289 17.6989 13.0084 17.8104L12.8942 17.8631C12.7564 17.9316 12.6393 18.0362 12.555 18.1659C12.4707 18.2956 12.4223 18.4457 12.4148 18.6006C12.3995 18.8959 12.4614 19.19 12.5942 19.4534C12.6893 19.6708 12.8566 19.8478 13.0671 19.9539L13.1062 19.9737L13.2204 20.0297C13.3499 20.0964 13.4732 20.1746 13.5889 20.2635C13.9453 20.5425 14.2286 20.9054 14.414 21.3204C14.5196 21.5593 14.6036 21.8072 14.6652 22.0613L14.6913 22.1864C14.711 22.2722 14.7262 22.3591 14.7369 22.4465L14.763 22.621C14.763 22.6606 14.763 22.6968 14.763 22.733V22.7956C14.794 23.0391 14.8114 23.2843 14.8152 23.5298V23.543Z" fill="#C1C3C4"/>
<g style="mix-blend-mode:multiply" opacity="0.2">
<path d="M12.3855 18.2121C12.3855 18.2121 12.3855 18.2351 12.3855 18.245C12.4949 18.2548 12.6037 18.2702 12.7116 18.2911C12.9862 18.343 13.2549 18.4225 13.5139 18.5282C13.8829 18.676 14.2289 18.8767 14.5412 19.1242C14.897 19.4101 15.2044 19.7527 15.4512 20.1383C15.6893 20.5205 15.8748 20.9337 16.0023 21.3665C16.1114 21.739 16.1888 22.1201 16.2339 22.5058C16.2339 22.6737 16.2665 22.8351 16.273 22.9635C16.2796 23.0919 16.273 23.217 16.273 23.3158C16.273 23.5101 16.273 23.622 16.273 23.622H17.1242C17.1242 23.6023 17.1242 23.5825 17.1242 23.566C17.1242 23.5496 17.1242 23.4673 17.1242 23.296C17.1242 23.1248 17.1242 22.8746 17.0818 22.5716C17.0818 22.4959 17.0818 22.4169 17.059 22.3346L17.0199 22.081C16.9971 21.9065 16.9547 21.7188 16.9155 21.5278C16.8187 21.1163 16.6833 20.715 16.5111 20.3293C16.3272 19.9268 16.095 19.5486 15.8197 19.2032C15.5722 18.8973 15.2898 18.6221 14.9783 18.3833C14.7589 18.2149 14.5253 18.0662 14.2803 17.9388C14.1923 17.8927 14.1238 17.8565 14.0749 17.8367L13.9998 17.8038C13.65 17.636 13.253 17.5976 12.8779 17.6951C12.7551 17.724 12.6433 17.7882 12.5559 17.88C12.4685 17.9717 12.4093 18.0871 12.3855 18.2121Z" fill="#36373A"/>
</g>
<path d="M14.5315 21.8571L14.5869 22.0613L16.922 21.485L16.834 21.1689L14.5315 21.8571Z" fill="#ED1042"/>
<path d="M14.4695 21.6629L14.5021 21.7583L16.7883 21.0109L16.7329 20.8561L14.4695 21.6629Z" fill="#ED1042"/>
<path d="M16.2535 19.7235C16.3493 19.8731 16.41 20.0428 16.4309 20.2197C16.4518 20.3966 16.4324 20.576 16.3741 20.7442C16.3183 20.8901 16.2307 21.0216 16.1178 21.1287C16.0049 21.2359 15.8696 21.316 15.7219 21.3632C15.4326 21.4513 15.124 21.4513 14.8348 21.3632C14.6018 21.3093 14.3965 21.1711 14.2575 20.9747C14.1477 20.7666 14.1197 20.5244 14.1792 20.2964C14.2322 19.9974 14.3628 19.7179 14.5575 19.4864C14.659 19.3632 14.7886 19.2667 14.9352 19.2053C15.0818 19.144 15.2409 19.1195 15.399 19.1341C15.5762 19.161 15.745 19.2281 15.893 19.3301C16.0409 19.4322 16.1642 19.5666 16.2535 19.7235V19.7235Z" fill="#DFE0E1"/>
<path d="M15.7871 21.4258L15.7316 21.4455C15.4263 21.5379 15.1009 21.5379 14.7956 21.4455C14.5424 21.3883 14.3192 21.2381 14.1694 21.0241C14.0451 20.7996 14.0123 20.535 14.0781 20.2865C14.1322 19.9692 14.2696 19.6724 14.476 19.4271C14.5869 19.2946 14.7278 19.191 14.8868 19.125C15.0457 19.0591 15.2181 19.0329 15.3892 19.0484C15.5829 19.0741 15.7682 19.1441 15.931 19.2531C16.0938 19.3621 16.2297 19.5072 16.3285 19.6773C16.4318 19.8385 16.4971 20.0215 16.5191 20.2122C16.5412 20.403 16.5195 20.5962 16.4557 20.7771C16.3972 20.9275 16.3072 21.0634 16.1918 21.1754C16.0763 21.2874 15.9383 21.3728 15.7871 21.4258V21.4258ZM14.988 19.2756C14.839 19.3325 14.7066 19.4265 14.6032 19.5489C14.4205 19.769 14.2979 20.0335 14.2477 20.3161C14.1923 20.5227 14.2168 20.7428 14.3162 20.9319C14.4432 21.1112 14.6314 21.2367 14.8445 21.2842C15.1179 21.367 15.4094 21.367 15.6827 21.2842C15.8215 21.2426 15.9491 21.1697 16.0559 21.071C16.1626 20.9723 16.2458 20.8504 16.2991 20.7145C16.3547 20.5568 16.3734 20.3882 16.3536 20.2219C16.3338 20.0557 16.2761 19.8963 16.185 19.7564C16.0995 19.6104 15.9822 19.4859 15.8421 19.3924C15.702 19.2988 15.5427 19.2386 15.3762 19.2164C15.2437 19.207 15.111 19.2284 14.988 19.2789V19.2756Z" fill="#C1C3C4"/>
<path opacity="0.7" d="M15.973 19.8749C16.0402 19.9801 16.0835 20.099 16.0998 20.2231C16.1162 20.3472 16.1052 20.4734 16.0676 20.5927C16.0295 20.7024 15.9679 20.8024 15.8873 20.8855C15.8068 20.9685 15.7091 21.0327 15.6012 21.0734C15.393 21.1548 15.1647 21.1675 14.9489 21.1097C14.7663 21.072 14.6057 20.9632 14.5021 20.8067C14.4545 20.7326 14.4254 20.6478 14.4173 20.5598C14.4004 20.4662 14.4004 20.3702 14.4173 20.2766C14.4592 20.0566 14.5661 19.8546 14.7239 19.6971C14.8051 19.6151 14.9036 19.5527 15.012 19.5145C15.1204 19.4763 15.236 19.4633 15.3501 19.4765C15.4661 19.4951 15.5772 19.5377 15.6762 19.6016C15.7928 19.671 15.8938 19.7641 15.973 19.8749V19.8749Z" fill="white"/>
<path d="M17.3428 23.7998L14.5836 23.7307C14.5836 23.7307 14.5836 23.599 14.5836 23.4706C14.5836 23.4047 14.5836 23.3421 14.5836 23.2961C14.5836 23.25 14.5836 23.217 14.5836 23.217L17.3428 23.1051C17.3428 23.1051 17.3428 23.1479 17.3428 23.2137C17.3428 23.2796 17.3428 23.3685 17.3428 23.4541C17.346 23.6253 17.3428 23.7998 17.3428 23.7998Z" fill="#DFE0E1"/>
<path d="M17.4178 23.8789L14.5054 23.8031V23.4739C14.5054 23.408 14.5054 23.3487 14.5054 23.3026V23.1446L17.4178 23.0261V23.2137C17.4178 23.2862 17.4178 23.3751 17.4178 23.4607V23.8789ZM14.6586 23.655L17.2677 23.7208V23.4508C17.2677 23.3685 17.2677 23.2862 17.2677 23.2137V23.1808L14.6586 23.2862C14.6586 23.3389 14.6586 23.4014 14.6586 23.4673V23.655Z" fill="#C1C3C4"/>
<path d="M14.3032 16.8127L6.95202 18.2516C6.95202 18.2516 7.21293 19.8255 7.49667 20.1219C7.78041 20.4182 10.5689 21.0241 11.0842 20.8594L11.4364 20.7936C11.9778 20.7475 14.3423 19.1472 14.4923 18.7521C14.6423 18.357 14.3032 16.8127 14.3032 16.8127Z" fill="#DFE0E1"/>
<path d="M11.6582 20.7969C11.5892 20.825 11.5168 20.8438 11.4429 20.8528L11.1103 20.922C10.6113 21.08 7.77714 20.4939 7.46405 20.1647C7.15096 19.8354 6.91614 18.3273 6.90636 18.2615V18.2022L14.3716 16.7402V16.7929C14.3716 16.8588 14.7141 18.3767 14.5575 18.7686C14.401 19.1604 12.3887 20.5236 11.6582 20.7969ZM7.0205 18.301C7.10204 18.7718 7.32707 19.8617 7.53906 20.0823C7.75105 20.303 10.5461 20.9681 11.0679 20.8035L11.4364 20.7442C11.5014 20.7363 11.565 20.7197 11.6256 20.6948C12.4246 20.3984 14.326 19.0484 14.4467 18.7389C14.5673 18.4294 14.3651 17.3626 14.2673 16.8917L7.0205 18.301Z" fill="#C1C3C4"/>
<g style="mix-blend-mode:multiply">
<path d="M9.29369 19.9671C10.0878 19.9407 10.877 19.8303 11.6484 19.6378C12.6891 19.4073 13.6702 18.9586 14.5282 18.3208C14.4868 17.8146 14.4117 17.3119 14.3032 16.816L6.95202 18.2516C7.02984 18.7411 7.13878 19.225 7.27816 19.7004C7.92668 19.9197 8.61109 20.0103 9.29369 19.9671Z" fill="#909294"/>
</g>
<path d="M13.3932 13.678C12.6131 12.6916 11.4968 12.0341 10.2623 11.8341L8.71642 12.137C8.71642 12.137 6.98463 13.1084 6.49869 15.028C6.01274 16.9477 5.71269 19.6378 8.98711 19.7004C9.39944 19.7205 9.8127 19.7084 10.2232 19.6642C10.2232 19.6642 10.7189 19.6181 10.9472 19.5687C11.1755 19.5193 11.6517 19.3843 11.6517 19.3843C12.0492 19.2699 12.4374 19.1245 12.8127 18.9496C15.8458 17.6589 14.5739 15.275 13.3932 13.678Z" fill="#DFE0E1"/>
<path d="M12.3039 19.2295C12.105 19.3053 11.8963 19.3744 11.6843 19.437C11.6647 19.437 11.2016 19.5819 10.9733 19.6214C10.745 19.6609 10.2656 19.7169 10.246 19.7169C9.83229 19.7617 9.41574 19.7738 9.00016 19.7531C7.90434 19.7333 7.11508 19.4238 6.65523 18.8048C5.89207 17.7807 6.17581 16.1344 6.46281 15.0149C6.95202 13.0919 8.69033 12.0975 8.7099 12.0876L10.2819 11.7847C10.3014 11.7847 12.2844 12.0514 13.4487 13.6517C14.1368 14.5967 15.0109 15.9961 14.675 17.2407C14.4728 17.9816 13.8596 18.5776 12.8486 19.0089C12.8486 19.0056 12.6529 19.0978 12.3039 19.2295ZM8.75556 12.1831C8.63162 12.2556 7.03029 13.2236 6.57043 15.0346C6.28669 16.1476 5.99969 17.7412 6.74329 18.7323C7.18357 19.3152 7.94347 19.6181 9.00668 19.6378C9.41685 19.6572 9.82788 19.6451 10.2362 19.6016C10.2362 19.6016 10.732 19.5555 10.9537 19.5061C11.1755 19.4567 11.6517 19.325 11.6549 19.3217C11.8669 19.2592 12.0724 19.19 12.2681 19.1176C12.5942 18.9892 12.8062 18.8937 12.8094 18.8937C13.7879 18.4722 14.3814 17.9059 14.5739 17.1979C14.9 15.9994 14.039 14.6296 13.3639 13.7044C12.2648 12.1963 10.4286 11.9032 10.2819 11.8835L8.75556 12.1831Z" fill="#C1C3C4"/>
<g style="mix-blend-mode:multiply" opacity="0.2">
<path d="M11.169 12.0646C10.8805 11.9575 10.5823 11.8792 10.2786 11.8308L8.73273 12.1337C8.55074 12.2467 8.3774 12.3733 8.21417 12.5124L9.60026 19.7136C9.78289 19.7136 9.99815 19.6971 10.2525 19.6708C10.2525 19.6708 10.7483 19.6247 10.9766 19.5753C11.2049 19.5259 11.681 19.3909 11.681 19.3909C12.043 19.2822 12.3333 19.1769 12.529 19.0946L11.169 12.0646Z" fill="#36373A"/>
</g>
<g style="mix-blend-mode:screen">
<path d="M14.5282 15.8413C14.5043 15.7733 14.4782 15.7063 14.4499 15.6405L6.27692 17.2407C6.27692 17.3132 6.27692 17.3856 6.27692 17.4548L14.5282 15.8413Z" fill="#A3D0DE"/>
</g>
<path d="M3.93525 9.54893C3.96558 9.70526 3.96508 9.86609 3.93379 10.0222C3.90249 10.1784 3.84101 10.3267 3.75286 10.4588C3.66471 10.591 3.55162 10.7042 3.42007 10.7922C3.28851 10.8801 3.14107 10.941 2.98619 10.9714V10.9714C2.83112 11.002 2.6716 11.0013 2.51677 10.9695C2.36194 10.9377 2.21486 10.8754 2.08396 10.7861C1.95306 10.6967 1.84092 10.5822 1.75397 10.449C1.66702 10.3158 1.60697 10.1666 1.57727 10.0099L1.0848 7.4844C1.05447 7.32807 1.05497 7.16724 1.08626 7.01111C1.11756 6.85498 1.17904 6.70661 1.26719 6.57449C1.35534 6.44237 1.46843 6.32909 1.59998 6.24115C1.73153 6.1532 1.87897 6.0923 2.03386 6.06194V6.06194C2.18893 6.03136 2.34845 6.03198 2.50328 6.06379C2.65811 6.09559 2.80519 6.15795 2.93609 6.24728C3.06699 6.33661 3.17913 6.45115 3.26608 6.58434C3.35303 6.71753 3.41308 6.86674 3.44278 7.02342L3.93525 9.54893Z" fill="#DFE0E1"/>
<path d="M3.18513 10.978C3.12156 11.0021 3.05611 11.0208 2.98945 11.034C2.82669 11.066 2.65927 11.0654 2.49676 11.0321C2.33425 10.9988 2.17983 10.9335 2.04232 10.8399C1.90481 10.7464 1.78692 10.6263 1.69537 10.4868C1.60382 10.3472 1.54042 10.1907 1.50878 10.0264L1.02284 7.49757C0.964248 7.20051 1.01295 6.89209 1.16011 6.62815C1.30728 6.3642 1.54319 6.16218 1.82513 6.05866C1.88988 6.03472 1.9564 6.016 2.02408 6.00268C2.35229 5.9389 2.69216 6.00916 2.96913 6.19805C3.2461 6.38694 3.43755 6.67903 3.50148 7.01025L3.98743 9.54894C4.04347 9.84452 3.99353 10.1506 3.84654 10.4124C3.69955 10.6742 3.4651 10.8747 3.18513 10.978V10.978ZM1.88058 6.17061C1.62304 6.26534 1.40802 6.45072 1.27501 6.69268C1.142 6.93464 1.09994 7.21694 1.15655 7.4877L1.6425 10.0198C1.70469 10.3115 1.87622 10.5676 2.1212 10.7346C2.36617 10.9015 2.66561 10.9663 2.95683 10.9154C3.02111 10.9042 3.08437 10.8876 3.14599 10.866C3.40394 10.7719 3.61939 10.5866 3.75249 10.3445C3.88559 10.1023 3.92734 9.81975 3.87002 9.54894L3.38407 7.0333C3.32566 6.73381 3.15227 6.4698 2.90175 6.29892C2.65122 6.12804 2.34392 6.06416 2.04691 6.12122C1.98583 6.13398 1.92586 6.1516 1.86753 6.1739L1.88058 6.17061Z" fill="#C1C3C4"/>
<path d="M3.60911 9.32174C3.65602 9.56667 3.60476 9.82039 3.46657 10.0272C3.32838 10.234 3.11455 10.377 2.87204 10.4248V10.4248C2.62944 10.4722 2.37814 10.4204 2.1733 10.2809C1.96846 10.1414 1.82682 9.9255 1.77948 9.68065L1.40116 7.70501C1.35813 7.4616 1.41165 7.21086 1.55016 7.00694C1.68868 6.80302 1.90107 6.66229 2.14149 6.61512C2.38409 6.56776 2.63539 6.61952 2.84023 6.75904C3.04507 6.89856 3.18671 7.11443 3.23405 7.35928L3.60911 9.32174Z" fill="#4F5052"/>
<path d="M2.20654 8.30701C2.44528 8.26042 2.60141 8.02725 2.55527 7.78621C2.50912 7.54517 2.27817 7.38754 2.03942 7.43413C1.80068 7.48072 1.64455 7.71389 1.6907 7.95493C1.73685 8.19597 1.9678 8.3536 2.20654 8.30701Z" fill="#FFAC49"/>
<path d="M2.42568 9.46996C2.6644 9.42325 2.82041 9.18999 2.77414 8.94898C2.72787 8.70796 2.49683 8.55046 2.25811 8.59717C2.01939 8.64389 1.86339 8.87714 1.90966 9.11816C1.95593 9.35917 2.18696 9.51668 2.42568 9.46996Z" fill="#9ECC00"/>
<path d="M14.4728 7.48769C14.5025 7.64437 14.5625 7.79358 14.6494 7.92677C14.7364 8.05996 14.8485 8.1745 14.9794 8.26383C15.1103 8.35316 15.2574 8.41552 15.4123 8.44732C15.5671 8.47913 15.7266 8.47975 15.8817 8.44917C16.1947 8.3878 16.4707 8.20354 16.6493 7.93684C16.8278 7.67015 16.8943 7.34281 16.834 7.02671L16.348 4.49461C16.3183 4.33793 16.2583 4.18872 16.1713 4.05553C16.0844 3.92234 15.9723 3.8078 15.8414 3.71847C15.7105 3.62914 15.5634 3.56678 15.4085 3.53498C15.2537 3.50317 15.0942 3.50255 14.9391 3.53313V3.53313C14.6261 3.5945 14.3501 3.77876 14.1715 4.04546C13.9929 4.31215 13.9265 4.63949 13.9868 4.95559L14.4728 7.48769Z" fill="#DFE0E1"/>
<path d="M16.0904 8.45247C16.0267 8.47632 15.9613 8.49503 15.8947 8.50844C15.732 8.5405 15.5645 8.53987 15.402 8.50658C15.2395 8.47328 15.0851 8.40799 14.9476 8.31442C14.8101 8.22085 14.6922 8.10083 14.6006 7.96124C14.5091 7.82165 14.4457 7.66521 14.414 7.50087L13.9281 4.96877C13.8693 4.67212 13.9176 4.36402 14.0641 4.10014C14.2106 3.83626 14.4458 3.63398 14.7271 3.52985C14.792 3.50627 14.8585 3.48756 14.9261 3.47387C15.2543 3.41009 15.5942 3.48035 15.8711 3.66924C16.1481 3.85813 16.3396 4.15022 16.4035 4.48144L16.8894 7.01355C16.9482 7.3102 16.9 7.61829 16.7534 7.88217C16.6069 8.14606 16.3717 8.34834 16.0904 8.45247ZM14.7695 3.64509C14.5166 3.73929 14.305 3.92106 14.1724 4.15803C14.0398 4.39501 13.9949 4.67181 14.0455 4.93913L14.5315 7.47124C14.5623 7.6357 14.6284 7.79137 14.725 7.92737C14.8217 8.06336 14.9466 8.1764 15.0911 8.25856C15.2355 8.34073 15.396 8.39005 15.5613 8.40307C15.7266 8.41608 15.8927 8.39249 16.048 8.33393V8.33393C16.3026 8.24014 16.5156 8.05744 16.6484 7.81888C16.7812 7.58033 16.825 7.30167 16.772 7.0333L16.2861 4.5012C16.2285 4.20128 16.0552 3.93673 15.8045 3.7657C15.5538 3.59467 15.246 3.53115 14.9489 3.58912C14.8878 3.60302 14.8278 3.62173 14.7695 3.64509V3.64509Z" fill="#C1C3C4"/>
<path d="M14.6978 7.15183C14.743 7.3949 14.8814 7.61013 15.083 7.75071C15.2845 7.8913 15.5329 7.94587 15.774 7.90257C15.8943 7.87931 16.0089 7.83227 16.1111 7.76417C16.2133 7.69607 16.3012 7.60824 16.3697 7.50573C16.4382 7.40323 16.4859 7.28807 16.5102 7.16687C16.5345 7.04567 16.5348 6.92083 16.5111 6.79951L16.1328 4.82388C16.0855 4.57903 15.9438 4.36315 15.739 4.22364C15.5341 4.08412 15.2828 4.03236 15.0402 4.07972V4.07972C14.7977 4.12752 14.5839 4.27052 14.4457 4.47733C14.3075 4.68414 14.2563 4.93785 14.3032 5.18279L14.6978 7.15183Z" fill="#4F5052"/>
<path d="M15.6101 5.68066C15.8488 5.63386 16.0047 5.40055 15.9584 5.15955C15.912 4.91855 15.6809 4.76113 15.4422 4.80793C15.2035 4.85473 15.0476 5.08804 15.094 5.32904C15.1403 5.57003 15.3714 5.72746 15.6101 5.68066Z" fill="#FFAC49"/>
<path d="M15.8328 6.83935C16.0714 6.79247 16.2273 6.5591 16.1809 6.31812C16.1344 6.07714 15.9033 5.91979 15.6646 5.96668C15.4259 6.01357 15.2701 6.24693 15.3165 6.48791C15.3629 6.72889 15.5941 6.88624 15.8328 6.83935Z" fill="#9ECC00"/>
<path d="M15.5392 6.16073C16.3122 10.1746 13.6346 12.0876 10.021 12.7923C6.40737 13.4969 3.21774 12.7396 2.4448 8.72576C1.67185 4.71193 3.98091 0.882492 7.59451 0.174556C11.2081 -0.533379 14.7695 2.1469 15.5392 6.16073Z" fill="#DFE0E1"/>
<path d="M11.9387 12.3247C11.3185 12.5481 10.6816 12.721 10.034 12.8417C7.02051 13.4409 3.2471 13.2072 2.38609 8.73893C1.69468 5.1334 3.51453 1.54433 6.62262 0.388583C6.93551 0.271478 7.25726 0.180082 7.58473 0.115287C8.47084 -0.0529284 9.38216 -0.0301768 10.259 0.18205C11.1358 0.394277 11.9582 0.791187 12.6725 1.34676C14.2099 2.52124 15.2568 4.2336 15.6077 6.14756C16.1719 9.12747 14.9424 11.1953 11.9387 12.3247ZM6.66502 0.500535C3.60911 1.6464 1.82188 5.16962 2.5035 8.71588C3.34494 13.0853 7.04986 13.3257 10.0047 12.733C10.6468 12.6105 11.2783 12.4366 11.893 12.2128C14.8282 11.1196 16.035 9.08796 15.4805 6.1739C15.1376 4.2906 14.1106 2.60441 12.6007 1.44555C11.9001 0.899656 11.093 0.509498 10.2325 0.30067C9.37194 0.0918418 8.47741 0.0690618 7.60756 0.233825C7.28684 0.297226 6.97166 0.386413 6.66502 0.500535V0.500535Z" fill="#C1C3C4"/>
<path d="M10.7548 1.36652C10.9146 2.193 9.67526 2.72313 8.08371 3.03264C6.49216 3.34216 5.14847 3.3224 4.98866 2.49593C4.82886 1.66945 5.99317 0.744199 7.59777 0.434683C9.20236 0.125167 10.595 0.54005 10.7548 1.36652Z" fill="#DFE0E1"/>
<path d="M9.5285 2.70996C9.06211 2.87645 8.58336 3.00527 8.09676 3.0952C6.17254 3.47057 5.07672 3.26972 4.93322 2.5091C4.7995 1.82092 5.51375 1.06359 6.70741 0.615784C6.98981 0.511727 7.27988 0.430255 7.57494 0.372122C8.28608 0.218278 9.02286 0.23293 9.72744 0.414928C10.3504 0.596027 10.7385 0.931885 10.8167 1.35665C10.9178 1.89665 10.4873 2.35434 9.5285 2.70996ZM6.74655 0.734322C5.62789 1.1492 4.92996 1.87031 5.04737 2.48934C5.2137 3.35204 6.78242 3.23021 8.07067 2.97996C8.54971 2.88958 9.02084 2.76076 9.47958 2.59471C10.3732 2.26544 10.7841 1.85385 10.6896 1.3764C10.6243 0.987861 10.2656 0.701394 9.69157 0.533466C9.00584 0.357785 8.28905 0.345386 7.59777 0.497246C7.3081 0.551229 7.02338 0.629426 6.74655 0.731029V0.734322Z" fill="white"/>
<path d="M13.8368 4.25095C12.9366 2.27531 8.29244 3.16764 8.29244 3.16764L8.09676 3.20715C8.09676 3.20715 3.47539 4.11265 3.37755 6.29902C3.37755 6.29902 3.57975 9.52918 4.95932 11.5114C4.95932 11.5114 6.29648 12.6507 9.85138 11.8407C13.4617 11.2447 14.2803 9.68394 14.2803 9.68394C14.8445 7.32306 13.8368 4.25095 13.8368 4.25095Z" fill="#4F5052"/>
<g style="mix-blend-mode:screen">
<path d="M3.88306 9.09126C4.10853 9.956 4.47204 10.7779 4.95932 11.5246C4.95932 11.5246 6.29648 12.6639 9.85138 11.8539C13.4617 11.2579 14.2803 9.69712 14.2803 9.69712C14.4567 8.82395 14.492 7.92772 14.3847 7.04318L3.88306 9.09126Z" fill="#4F5052"/>
</g>
<path d="M13.4519 4.39252C12.6203 2.55189 8.3381 3.40471 8.3381 3.40471L8.15546 3.44093C8.15546 3.44093 3.87654 4.28057 3.78522 6.28584C3.78522 6.28584 3.97112 9.27234 5.24957 11.1031C5.24957 11.1031 6.48564 12.1568 9.78615 11.406C13.1258 10.866 13.8824 9.41393 13.8824 9.41393C14.3716 7.24402 13.4519 4.39252 13.4519 4.39252Z" fill="#00244E"/>
<g style="mix-blend-mode:screen">
<path d="M12.5388 4.2246C11.2831 3.31252 8.41964 3.87228 8.41964 3.87228L8.25657 3.90521C8.25657 3.90521 4.42771 4.65595 4.34292 6.46365C4.43862 7.71394 4.74411 8.93871 5.24632 10.0856C5.94099 6.27926 9.62961 4.88644 12.5388 4.2246Z" fill="#00244E"/>
</g>
<path d="M13.2334 16.8884C13.3052 17.2613 13.2273 17.6477 13.0169 17.9627C12.8065 18.2776 12.4809 18.4952 12.1115 18.5677L9.67853 19.0452C9.30918 19.1176 8.92645 19.039 8.61452 18.8266C8.3026 18.6142 8.08702 18.2854 8.01522 17.9125L7.54232 15.4561C7.47054 15.0832 7.54841 14.6968 7.75881 14.3819C7.96921 14.0669 8.2949 13.8493 8.66424 13.7768L11.1103 13.2994C11.4796 13.2269 11.8623 13.3055 12.1743 13.5179C12.4862 13.7303 12.7018 14.0592 12.7736 14.4321L13.2334 16.8884Z" fill="#B5B9BC"/>
<g style="mix-blend-mode:screen">
<path d="M13.0084 16.8324C13.0415 17.0026 13.0411 17.1777 13.007 17.3477C12.9729 17.5177 12.906 17.6793 12.8099 17.8231C12.7138 17.9668 12.5906 18.0901 12.4472 18.1856C12.3039 18.2812 12.1432 18.3473 11.9745 18.38L9.73397 18.8179C9.56587 18.8515 9.39286 18.8513 9.22484 18.8173C9.05681 18.7833 8.89707 18.7163 8.75472 18.6199C8.61238 18.5236 8.49022 18.3999 8.39523 18.2559C8.30024 18.1119 8.23429 17.9505 8.20112 17.7807L7.76736 15.5186C7.73421 15.3484 7.73468 15.1733 7.76874 15.0033C7.80281 14.8333 7.86979 14.6718 7.96585 14.528C8.06191 14.3842 8.18516 14.261 8.32852 14.1654C8.47187 14.0698 8.63251 14.0038 8.80122 13.971L11.0418 13.5331C11.2103 13.4996 11.3838 13.5001 11.5522 13.5345C11.7206 13.5689 11.8806 13.6365 12.023 13.7335C12.1654 13.8305 12.2875 13.9549 12.3821 14.0997C12.4768 14.2444 12.5422 14.4066 12.5746 14.5769L13.0084 16.8324Z" fill="#DFE0E1"/>
</g>
<path d="M11.9615 14.2806C11.9959 14.4622 11.9576 14.6502 11.8548 14.8033C11.7521 14.9564 11.5934 15.0621 11.4136 15.0972L9.09473 15.5516C8.91484 15.5863 8.72863 15.5476 8.57699 15.4439C8.42535 15.3402 8.32066 15.18 8.28591 14.9984V14.9984C8.25132 14.8177 8.2888 14.6306 8.39018 14.4776C8.49157 14.3247 8.64867 14.2184 8.8273 14.1818L11.1461 13.7274C11.326 13.6927 11.5122 13.7314 11.6639 13.8351C11.8155 13.9388 11.9202 14.099 11.955 14.2806H11.9615Z" fill="#B5B9BC"/>
<path d="M11.7626 14.3168C11.7782 14.3959 11.7782 14.4774 11.7625 14.5566C11.7469 14.6357 11.7159 14.711 11.6713 14.778C11.6268 14.845 11.5696 14.9025 11.5029 14.9471C11.4363 14.9917 11.3616 15.0225 11.2831 15.0379L9.24151 15.4396C9.16288 15.4554 9.08194 15.4552 9.00337 15.4392C8.9248 15.4232 8.85015 15.3916 8.78373 15.3463C8.71732 15.301 8.66046 15.2429 8.61644 15.1752C8.57241 15.1076 8.54211 15.0318 8.52727 14.9523C8.49663 14.7929 8.52992 14.6278 8.61982 14.4932C8.70971 14.3586 8.84886 14.2655 9.00669 14.2345L11.0483 13.8295C11.1269 13.8137 11.2079 13.8138 11.2864 13.8299C11.365 13.8459 11.4397 13.8774 11.5061 13.9228C11.5725 13.9681 11.6294 14.0262 11.6734 14.0939C11.7174 14.1615 11.7477 14.2373 11.7626 14.3168V14.3168Z" fill="#007670"/>
<g style="mix-blend-mode:screen">
<path d="M10.758 14.4617C10.7674 14.5104 10.7671 14.5605 10.757 14.609C10.7469 14.6576 10.7273 14.7036 10.6994 14.7445C10.6714 14.7853 10.6357 14.82 10.5942 14.8467C10.5528 14.8733 10.5064 14.8913 10.458 14.8996L9.23172 15.1466C9.13618 15.165 9.03731 15.1445 8.95667 15.0896C8.87603 15.0347 8.82015 14.9498 8.80121 14.8535C8.783 14.7571 8.80329 14.6572 8.85766 14.5758C8.91203 14.4944 8.99608 14.438 9.09148 14.4189L10.3275 14.1587C10.4231 14.1404 10.5219 14.1608 10.6026 14.2157C10.6832 14.2706 10.7391 14.3555 10.758 14.4518V14.4617Z" fill="#007670"/>
</g>
<path d="M9.26954 17.1209C9.58784 17.0587 9.79591 16.7477 9.73426 16.4263C9.67262 16.105 9.36462 15.8949 9.04631 15.9571C8.72801 16.0194 8.51994 16.3303 8.58158 16.6517C8.64322 16.9731 8.95123 17.1831 9.26954 17.1209Z" fill="#ED1042"/>
<path d="M9.21865 16.8623C9.40962 16.8248 9.53439 16.6382 9.49734 16.4454C9.46029 16.2526 9.27544 16.1266 9.08447 16.164C8.8935 16.2015 8.76873 16.3881 8.80578 16.5809C8.84283 16.7737 9.02768 16.8997 9.21865 16.8623Z" fill="#FF7500"/>
<path d="M9.55058 18.5755C9.84765 18.5173 10.0417 18.227 9.98411 17.9271C9.92647 17.6271 9.63893 17.4312 9.34187 17.4894C9.0448 17.5476 8.85071 17.8379 8.90834 18.1378C8.96598 18.4377 9.25352 18.6337 9.55058 18.5755Z" fill="#00244E"/>
<path d="M11.5912 16.3768C11.7875 16.3385 11.9159 16.1467 11.8779 15.9485C11.8399 15.7504 11.65 15.6208 11.4537 15.6591C11.2574 15.6975 11.1291 15.8892 11.167 16.0874C11.205 16.2856 11.3949 16.4151 11.5912 16.3768Z" fill="#ED1042"/>
<path d="M11.6539 16.3413C11.8148 16.3097 11.9198 16.1524 11.8886 15.99C11.8573 15.8276 11.7015 15.7215 11.5406 15.753C11.3797 15.7846 11.2746 15.9419 11.3059 16.1043C11.3372 16.2668 11.493 16.3729 11.6539 16.3413Z" fill="#2A2D30"/>
<path d="M11.9334 18.0642C12.1615 18.0195 12.3105 17.7965 12.2662 17.5662C12.2219 17.336 12.0011 17.1855 11.773 17.2302C11.5449 17.275 11.3959 17.4979 11.4402 17.7282C11.4845 17.9585 11.7053 18.1089 11.9334 18.0642Z" fill="#005F91"/>
<path d="M11.9081 17.9479C12.069 17.9162 12.174 17.7589 12.1426 17.5964C12.1113 17.434 11.9554 17.328 11.7946 17.3597C11.6337 17.3913 11.5287 17.5487 11.56 17.7111C11.5914 17.8735 11.7472 17.9795 11.9081 17.9479Z" fill="#2A2D30"/>
<path d="M12.9008 16.411C12.8916 16.3775 12.8807 16.3445 12.8682 16.3122L12.8192 16.2167C12.7836 16.1539 12.7398 16.0963 12.6888 16.0455C12.6388 15.9983 12.5842 15.9563 12.5257 15.9204C12.3363 15.8171 12.1245 15.7628 11.9093 15.7623C11.8003 15.761 11.6913 15.7676 11.5832 15.7821C11.5487 15.8064 11.5195 15.8376 11.4976 15.8739C11.4757 15.9102 11.4615 15.9507 11.456 15.9928C11.4511 16.0469 11.4596 16.1014 11.4807 16.1513C11.5017 16.2013 11.5347 16.2453 11.5766 16.2793C11.6845 16.2617 11.7936 16.254 11.9028 16.2562C12.0352 16.2549 12.166 16.2854 12.2844 16.3451C12.3397 16.3797 12.3851 16.4282 12.416 16.486C12.4469 16.5438 12.4622 16.6087 12.4605 16.6744C12.4875 16.8145 12.4594 16.9598 12.3822 17.0794C12.3027 17.1838 12.1968 17.2645 12.0756 17.3132C11.9862 17.3531 11.8934 17.385 11.7984 17.4087C11.7477 17.463 11.7195 17.5349 11.7195 17.6095C11.7195 17.6842 11.7477 17.756 11.7984 17.8104C11.837 17.848 11.8858 17.8732 11.9387 17.8828C12.0581 17.852 12.1748 17.8112 12.2876 17.761C12.4893 17.6762 12.6641 17.5372 12.7931 17.3593C12.9373 17.1404 12.9944 16.8746 12.9529 16.6151V16.5229C12.9203 16.4637 12.9073 16.4439 12.9008 16.411Z" fill="#6A6B6F"/>
<path d="M11.4364 15.9994C11.4316 16.0535 11.44 16.1079 11.4611 16.1579C11.4822 16.2079 11.5151 16.2518 11.5571 16.2858H11.5897L11.5245 15.8315C11.4762 15.875 11.4449 15.9346 11.4364 15.9994V15.9994Z" fill="#CECFD0"/>
<path d="M11.831 15.7689H11.6941L11.7299 16.2595H11.8376L11.831 15.7689Z" fill="#CECFD0"/>
<path d="M12.1996 15.8051H12.167H12.0985H12.0006L11.9648 16.2957H12.0332H12.0789H12.0887L12.1996 15.8051Z" fill="#CECFD0"/>
<path d="M12.5257 15.9269L12.454 15.8874C12.43 15.8741 12.4049 15.8631 12.379 15.8545L12.2028 16.3122C12.2288 16.3221 12.2539 16.3342 12.2778 16.3484L12.5257 15.9269Z" fill="#CECFD0"/>
<path d="M12.8323 16.2463L12.8127 16.2134C12.8011 16.1889 12.7869 16.1657 12.7703 16.1443L12.692 16.0521L12.3659 16.4011L12.3953 16.4373C12.3953 16.4538 12.4181 16.4801 12.4213 16.4801L12.8323 16.2463Z" fill="#CECFD0"/>
<path d="M12.9366 16.5921V16.5196C12.9379 16.5021 12.9379 16.4845 12.9366 16.467V16.4439L12.467 16.569C12.4683 16.5822 12.4683 16.5954 12.467 16.6085V16.6579L12.9366 16.5921Z" fill="#CECFD0"/>
<path d="M12.9301 16.9938C12.9437 16.9232 12.9514 16.8516 12.953 16.7798H12.4637C12.4673 16.8192 12.4673 16.8589 12.4637 16.8983L12.9301 16.9938Z" fill="#CECFD0"/>
<path d="M12.7931 17.3296V17.3099L12.8192 17.2605L12.8551 17.1847L12.4148 16.9905C12.4031 17.0143 12.3901 17.0374 12.3757 17.0596L12.7931 17.3296Z" fill="#CECFD0"/>
<path d="M12.5029 17.6227C12.5608 17.5822 12.6153 17.5371 12.6659 17.4877L12.3202 17.142C12.291 17.171 12.2594 17.1974 12.2257 17.221L12.5029 17.6227Z" fill="#CECFD0"/>
<path d="M12.2191 17.7807L12.2844 17.7511L12.3496 17.7215L12.1278 17.2835L12.0822 17.3066L12.0365 17.3263L12.2191 17.7807Z" fill="#CECFD0"/>
<path d="M11.7952 17.3988L11.7723 17.435L11.8734 17.8565H11.9256H11.968L12.0561 17.8301L11.906 17.3626L11.8343 17.3856L11.7952 17.3988Z" fill="#CECFD0"/>
<g style="mix-blend-mode:screen">
<path d="M11.9158 16.1574C11.9452 16.1574 12.6562 16.1377 12.5681 16.816C12.5681 16.816 12.6105 17.1881 12.0561 17.3889C12.0561 17.3889 12.8225 17.2276 12.6757 16.5789C12.661 16.4963 12.6282 16.4181 12.5797 16.35C12.5312 16.2819 12.4682 16.2255 12.3954 16.1851C12.3225 16.1447 12.2417 16.1213 12.1587 16.1165C12.0757 16.1117 11.9928 16.1257 11.9158 16.1574Z" fill="white"/>
</g>
<path d="M9.51732 18.3954C9.70649 18.3582 9.82998 18.1732 9.79314 17.9822C9.7563 17.7912 9.57308 17.6665 9.38391 17.7037C9.19473 17.7409 9.07124 17.9259 9.10808 18.1169C9.14492 18.3079 9.32814 18.4326 9.51732 18.3954Z" fill="#004D93"/>
</svg>
