<svg width="375" height="659" viewBox="0 0 375 659" fill="none" xmlns="http://www.w3.org/2000/svg">
<path d="M69 195.997C74.5219 195.997 78.9983 191.52 78.9983 185.998C78.9983 180.476 74.5219 176 69 176C63.478 176 59.0016 180.476 59.0016 185.998C59.0016 191.52 63.478 195.997 69 195.997Z" fill="#FF0025"/>
<g style="mix-blend-mode:overlay">
<path d="M65.4078 181.917C66.567 180.758 66.9624 179.274 66.2909 178.602C65.6195 177.931 64.1354 178.326 62.9762 179.485C61.817 180.645 61.4216 182.129 62.093 182.8C62.7645 183.472 64.2486 183.076 65.4078 181.917Z" fill="white"/>
</g>
<path d="M72.0776 181.552C73.459 181.552 74.5789 181.188 74.5789 180.737C74.5789 180.287 73.459 179.922 72.0776 179.922C70.6963 179.922 69.5764 180.287 69.5764 180.737C69.5764 181.188 70.6963 181.552 72.0776 181.552Z" fill="#E4001E"/>
<path d="M63.4873 189.056C64.8687 189.056 65.9885 188.691 65.9885 188.241C65.9885 187.791 64.8687 187.426 63.4873 187.426C62.1059 187.426 60.986 187.791 60.986 188.241C60.986 188.691 62.1059 189.056 63.4873 189.056Z" fill="#E4001E"/>
<path d="M72.7303 190.471C74.4721 190.471 75.8842 190.155 75.8842 189.765C75.8842 189.375 74.4721 189.059 72.7303 189.059C70.9885 189.059 69.5764 189.375 69.5764 189.765C69.5764 190.155 70.9885 190.471 72.7303 190.471Z" fill="#E4001E"/>
<path d="M66.9128 193.84C68.2046 193.84 69.2517 193.548 69.2517 193.187C69.2517 192.827 68.2046 192.535 66.9128 192.535C65.6211 192.535 64.5739 192.827 64.5739 193.187C64.5739 193.548 65.6211 193.84 66.9128 193.84Z" fill="#E4001E"/>
<path d="M70.557 185.468C73.8596 185.468 76.5368 185.127 76.5368 184.706C76.5368 184.285 73.8596 183.944 70.557 183.944C67.2545 183.944 64.5772 184.285 64.5772 184.706C64.5772 185.127 67.2545 185.468 70.557 185.468Z" fill="#E4001E"/>
<g style="mix-blend-mode:multiply" opacity="0.87">
<path d="M69 176C68.3324 176 67.6665 176.067 67.0122 176.199C68.1403 176.526 69.1833 177.095 70.0682 177.867C70.9531 178.64 71.6584 179.596 72.1347 180.67C72.6111 181.743 72.847 182.908 72.8258 184.082C72.8047 185.257 72.5271 186.412 72.0125 187.468C71.4979 188.524 70.7586 189.454 69.8466 190.194C68.9345 190.934 67.8717 191.466 66.7326 191.752C65.5935 192.038 64.4056 192.071 63.2521 191.85C62.0986 191.629 61.0075 191.158 60.0551 190.471C60.8511 192.064 62.0583 193.417 63.5519 194.387C65.0454 195.358 66.7712 195.913 68.5507 195.993C70.3303 196.074 72.0991 195.677 73.6742 194.845C75.2493 194.013 76.5737 192.776 77.5103 191.26C78.4469 189.745 78.9619 188.007 79.0019 186.226C79.0419 184.445 78.6055 182.686 77.7379 181.13C76.8703 179.574 75.6029 178.279 74.0667 177.377C72.5305 176.475 70.7813 176 69 176V176Z" fill="#FF0025"/>
</g>
<path d="M353.929 87.9961C361.384 87.9961 367.427 81.9528 367.427 74.4981C367.427 67.0433 361.384 61 353.929 61C346.474 61 340.431 67.0433 340.431 74.4981C340.431 81.9528 346.474 87.9961 353.929 87.9961Z" fill="#00B0BF"/>
<path opacity="0.4" d="M342.284 67.6673C342.05 68.0652 341.838 68.4749 341.646 68.8948C342.267 68.6755 342.926 68.5846 343.583 68.6278C344.46 68.7314 344.647 69.4009 344.157 70.0704C343.418 70.9637 342.53 71.7215 341.531 72.3102C341.2 72.5333 340.861 72.7525 340.519 72.9677C340.46 73.4758 340.431 73.9867 340.431 74.4981V74.5499C340.901 74.1513 341.395 73.7528 341.889 73.3543C342.76 72.7 343.595 72.0002 344.392 71.258C345.094 70.5646 345.883 69.7676 346.225 68.8111C346.907 66.954 344.229 67.1971 342.284 67.6673Z" fill="#541782"/>
<path opacity="0.4" d="M345.141 66.3363C346.63 66.004 348.087 65.5399 349.493 64.9494C351.814 63.9655 354 62.6921 356.001 61.1594C355.316 61.0539 354.623 61.0006 353.929 61C351.789 60.9962 349.679 61.5021 347.773 62.4758C345.867 63.4494 344.221 64.8629 342.969 66.5993C343.701 66.5967 344.43 66.5084 345.141 66.3363V66.3363Z" fill="#541782"/>
<path opacity="0.4" d="M359.285 69.1738C358.404 69.4248 357.292 69.7715 356.368 69.5245C355.571 69.3053 355.487 68.5122 355.91 67.8706C356.77 66.5714 358.321 65.6946 359.632 64.9215C360.269 64.5469 360.903 64.1882 361.517 63.7897L361.84 63.5785C361.561 63.3752 361.274 63.1799 360.979 63.0006C360.687 63.1839 360.4 63.3726 360.118 63.5665C358.851 64.4313 357.591 65.332 356.372 66.2605C355.564 66.8497 354.817 67.5171 354.14 68.2532C353.642 68.8191 353.028 69.5962 353.068 70.3972C353.104 71.1265 353.897 71.2899 354.495 71.3059C355.586 71.2896 356.67 71.122 357.715 70.8077C360.452 70.0659 363.131 69.1228 365.729 67.9862C365.53 67.6235 365.331 67.2728 365.084 66.934C363.212 67.8308 361.273 68.5797 359.285 69.1738V69.1738Z" fill="#541782"/>
<path opacity="0.4" d="M359.676 66.0135C359.441 66.2389 359.236 66.4933 359.066 66.7707C358.875 67.1014 358.715 67.3087 359.209 67.4123C360.062 67.5916 360.903 67.1811 361.68 66.8783C362.525 66.5488 363.378 66.234 364.239 65.9337L364.326 65.9059C363.799 65.2693 363.215 64.6824 362.581 64.1523C362.181 64.3303 361.789 64.5285 361.409 64.7461C360.777 65.0884 360.194 65.5148 359.676 66.0135V66.0135Z" fill="#541782"/>
<path opacity="0.4" d="M342.208 80.1292C343.113 78.9695 344.117 77.762 345.397 77.0048C346.007 76.6092 346.714 76.3899 347.441 76.3711C348.429 76.3711 349.266 76.953 350.231 77.1682C352.845 77.738 355.575 76.941 358.05 76.0802C361.218 74.9434 364.264 73.4893 367.14 71.7403C366.987 71.0104 366.774 70.2946 366.502 69.6002C364.908 70.1541 363.314 70.6921 361.68 71.1943C359.939 71.7363 358.193 72.2384 356.464 72.8083C354.981 73.3444 353.446 73.7224 351.884 73.9361C350.98 74.0358 349.314 74.1513 348.872 73.0833C348.429 72.0152 349.378 70.9034 350.007 70.186C351.096 69.0087 352.297 67.9409 353.594 66.9978C355.643 65.4077 357.715 63.7897 359.911 62.3988C359.422 62.1562 358.919 61.9433 358.404 61.7612C356.958 62.8492 355.491 63.9013 354.06 64.9853C351.969 66.5928 350.026 68.384 348.254 70.3374C345.827 73.0195 343.595 75.9168 341.013 78.4275C341.236 79.1628 341.523 79.8775 341.87 80.5636C341.981 80.4161 342.093 80.2647 342.208 80.1292Z" fill="#541782"/>
<path opacity="0.4" d="M346.556 81.9146C347.716 81.5496 348.927 81.3746 350.143 81.3965C351.49 81.3965 352.841 81.4682 354.184 81.3646C355.551 81.236 356.907 81.0069 358.241 80.6792C359.536 80.3926 360.81 80.0185 362.055 79.5593C363.32 79.1357 364.525 78.5517 365.642 77.8217C366.215 77.4232 366.761 76.953 367.311 76.4867C367.398 75.8993 367.446 75.3069 367.455 74.7133C366.815 75.1676 366.158 75.598 365.486 76.0045C363.478 77.2174 361.349 78.2178 359.134 78.9894C356.874 79.7586 354.527 80.3085 352.171 79.7626C350.976 79.4836 349.86 78.7902 348.633 78.7184C347.541 78.6625 346.458 78.9406 345.528 79.5155C344.45 80.1832 343.514 81.055 342.77 82.082C343.087 82.5451 343.432 82.9882 343.802 83.4091C344.641 82.7773 345.569 82.2736 346.556 81.9146Z" fill="#541782"/>
<path opacity="0.4" d="M352.534 84.76C351.51 83.3134 349.744 83.4648 348.254 83.9391C347.336 84.2387 346.458 84.6495 345.64 85.1626C346.098 85.5171 346.578 85.8419 347.078 86.135C347.971 85.3379 349.003 84.7959 350.207 84.9394C351.602 85.1107 351.853 86.6132 351.976 87.8566C352.322 87.9071 352.671 87.9443 353.024 87.9682C353.164 87.428 353.192 86.8653 353.108 86.3139C353.023 85.7625 352.828 85.2339 352.534 84.76V84.76Z" fill="#541782"/>
<path opacity="0.4" d="M357.376 86.127C358.372 85.1525 359.55 84.3845 360.843 83.8674C362.128 83.3493 363.44 82.8996 364.773 82.5204C365.147 82.0132 365.485 81.4805 365.785 80.9263C363.761 81.257 361.708 81.5041 359.771 82.1856C358.894 82.4659 358.073 82.8975 357.344 83.4609C356.675 84.0103 356.067 84.6303 355.531 85.31C354.847 86.1069 354.307 87.0173 353.937 88.0001C354.674 87.9978 355.41 87.9351 356.137 87.8128C356.467 87.1945 356.885 86.6267 357.376 86.127V86.127Z" fill="#541782"/>
<path opacity="0.4" d="M361.955 84.7202C360.882 85.2584 359.933 86.0128 359.166 86.936C360.762 86.2612 362.214 85.2857 363.442 84.0626C362.934 84.2529 362.438 84.4725 361.955 84.7202V84.7202Z" fill="#541782"/>
<g style="mix-blend-mode:multiply" opacity="0.7">
<path d="M353.929 61C351.259 61 348.65 61.7917 346.43 63.2749C344.21 64.758 342.48 66.8661 341.458 69.3326C340.437 71.799 340.169 74.513 340.69 77.1314C341.211 79.7498 342.497 82.1549 344.384 84.0426C346.272 85.9303 348.677 87.2159 351.296 87.7367C353.914 88.2575 356.628 87.9902 359.094 86.9686C361.561 85.947 363.669 84.2169 365.152 81.9972C366.635 79.7774 367.427 77.1677 367.427 74.4981C367.427 72.7255 367.078 70.9702 366.399 69.3326C365.721 67.6949 364.727 66.2069 363.473 64.9535C362.22 63.7001 360.732 62.7058 359.094 62.0275C357.457 61.3492 355.702 61 353.929 61V61ZM353.076 84.5648C350.909 84.5648 348.791 83.9223 346.99 82.7185C345.188 81.5147 343.784 79.8037 342.955 77.8018C342.125 75.8 341.908 73.5972 342.331 71.472C342.754 69.3469 343.797 67.3948 345.329 65.8627C346.862 64.3305 348.814 63.2871 350.939 62.8644C353.064 62.4417 355.267 62.6586 357.269 63.4878C359.27 64.317 360.981 65.7212 362.185 67.5228C363.389 69.3244 364.032 71.4426 364.032 73.6093C364.032 76.5149 362.877 79.3015 360.823 81.356C358.768 83.4106 355.982 84.5648 353.076 84.5648Z" fill="#0089BC"/>
</g>
<g style="mix-blend-mode:multiply">
<g style="mix-blend-mode:multiply">
<path d="M353.929 61C353.73 61 353.534 61 353.331 61C355.373 61.0381 357.378 61.548 359.189 62.4896C361.001 63.4313 362.571 64.7793 363.775 66.4282C364.979 68.0771 365.786 69.9822 366.132 71.9946C366.477 74.0069 366.353 76.072 365.768 78.0284C365.184 79.9847 364.154 81.7793 362.761 83.2717C361.367 84.7642 359.647 85.9141 357.736 86.6315C355.824 87.349 353.772 87.6145 351.741 87.4074C349.71 87.2003 347.754 86.5261 346.026 85.4375C347.752 86.6847 349.747 87.506 351.851 87.8345C353.954 88.1629 356.106 87.9892 358.129 87.3274C360.153 86.6657 361.991 85.5347 363.494 84.0268C364.997 82.5189 366.122 80.677 366.777 78.6513C367.432 76.6257 367.598 74.4738 367.263 72.3715C366.927 70.2692 366.1 68.276 364.847 66.5547C363.594 64.8335 361.952 63.4329 360.054 62.4676C358.157 61.5022 356.058 60.9993 353.929 61V61Z" fill="#0089BC"/>
</g>
</g>
<path d="M373.995 68.2133C373.421 66.679 370.045 66.3801 365.227 67.1652C365.461 67.5186 365.677 67.8839 365.877 68.2611C368.838 67.9304 370.822 68.2213 371.197 69.2176C371.572 70.2139 370.121 71.8957 367.423 73.701C364.633 75.5741 360.485 77.6344 355.726 79.4198C350.968 81.2052 346.56 82.349 343.233 82.7834C339.985 83.2138 337.789 82.9547 337.39 81.8986C336.992 80.8426 338.347 79.3521 340.837 77.6384C340.75 77.2678 340.682 76.8892 340.626 76.5066C336.745 78.9695 334.577 81.2929 335.131 82.7754C335.712 84.3336 339.184 84.6166 344.093 83.7877C348.287 83.0232 352.4 81.8705 356.38 80.3444C360.218 78.9352 363.925 77.1923 367.459 75.1357C371.982 72.4337 374.6 69.8273 373.995 68.2133Z" fill="#FF0074"/>
<path d="M373.951 68.1217C373.377 66.5873 370.001 66.2884 365.183 67.0735C365.417 67.4269 365.634 67.7922 365.833 68.1695C368.794 67.8427 370.779 68.1296 371.153 69.1259C371.528 70.1222 370.077 71.804 367.375 73.6093C364.585 75.4824 360.437 77.5428 355.678 79.3282C350.92 81.1136 346.512 82.2573 343.185 82.6957C339.917 83.1261 337.705 82.8631 337.31 81.807C336.916 80.7509 338.267 79.2604 340.758 77.5468C340.673 77.1748 340.602 76.7975 340.546 76.415C336.701 78.8738 334.529 81.2012 335.087 82.6798C335.669 84.242 339.136 84.513 344.05 83.692C348.243 82.9272 352.356 81.7745 356.336 80.2488C360.174 78.8389 363.881 77.096 367.415 75.04C371.934 72.342 374.553 69.7317 373.951 68.1217Z" fill="#FF7A9E"/>
<path d="M166.978 548.999C166.974 552.671 165.623 556.214 163.18 558.955C160.738 561.696 157.374 563.445 153.727 563.87C150.08 564.295 146.404 563.367 143.397 561.261C140.389 559.155 138.259 556.018 137.412 552.446C136.564 548.873 137.057 545.114 138.798 541.881C140.538 538.649 143.405 536.167 146.854 534.908C150.303 533.65 154.094 533.701 157.508 535.052C160.922 536.403 163.72 538.961 165.373 542.239C165.743 542.964 166.052 543.719 166.297 544.494C166.752 545.953 166.981 547.472 166.978 548.999V548.999Z" fill="#0072A5"/>
<path d="M148.793 557.736C148.366 558.611 147.83 559.505 147.899 560.478C147.929 560.886 148.068 561.283 148.073 561.695C148.092 561.899 148.048 562.105 147.945 562.283C147.843 562.46 147.688 562.602 147.502 562.689C147.274 562.725 147.041 562.685 146.838 562.575C146.636 562.464 146.476 562.289 146.384 562.078C146.161 561.675 146.071 561.203 145.818 560.816C145.321 560.081 144.412 559.823 143.677 559.326C141.462 557.91 140.936 554.592 138.566 553.445C138.247 553.296 137.914 553.178 137.573 553.092C136.96 550.933 136.838 548.664 137.217 546.451C137.596 544.239 138.466 542.139 139.763 540.307C140.225 540.539 140.737 540.65 141.253 540.63C141.842 540.521 142.438 540.464 143.037 540.461C143.628 540.521 144.254 540.958 144.244 541.549C144.234 542.14 143.533 542.686 143.677 543.297C143.851 544.027 144.889 543.958 145.634 544.032C145.994 544.06 146.339 544.184 146.633 544.392C146.927 544.601 147.158 544.885 147.303 545.215C147.365 545.384 147.391 545.563 147.379 545.743C147.368 545.922 147.32 546.097 147.238 546.257C147.156 546.417 147.042 546.558 146.902 546.672C146.763 546.786 146.602 546.87 146.429 546.918C145.465 547.102 144.313 546.004 143.623 546.705C143.315 547.018 143.35 547.519 143.235 547.946C142.982 548.94 141.994 549.471 141.179 550.067C140.364 550.663 139.614 551.702 140.056 552.601L144.676 551.776C145.039 551.667 145.428 551.686 145.778 551.831C146.146 552.039 146.275 552.486 146.538 552.824C147.179 553.733 148.525 553.981 149.057 554.955C149.543 555.794 149.221 556.852 148.793 557.736Z" fill="#72C400"/>
<path d="M165.373 542.239C165.251 542.406 165.091 542.542 164.906 542.635C164.721 542.728 164.517 542.777 164.31 542.776C163.903 542.776 163.54 542.488 163.133 542.438C161.976 542.299 161.196 543.878 160.029 543.859C158.782 543.859 158.077 542.026 156.835 542.115C156.369 542.224 155.924 542.41 155.519 542.667C155.082 542.86 154.461 542.87 154.227 542.448C154.121 542.183 154.11 541.89 154.197 541.618C154.324 540.568 154.693 539.561 155.275 538.678C155.772 538.037 156.492 537.595 157.029 536.979C157.393 536.429 157.651 535.816 157.789 535.171C161.075 536.554 163.763 539.059 165.373 542.239V542.239Z" fill="#72C400"/>
<path d="M166.978 548.999C166.98 551.526 166.344 554.011 165.128 556.226C163.912 558.44 162.157 560.311 160.024 561.665C159.14 560.558 158.464 559.326 158.534 557.95C158.588 557.046 158.976 556.197 159.155 555.313C159.333 554.428 159.254 553.38 158.564 552.794C157.873 552.208 156.825 552.268 156.11 551.726C154.933 550.827 155.424 548.811 156.607 547.922C157.789 547.033 159.358 546.898 160.809 546.585C162.713 546.132 164.55 545.431 166.272 544.499C166.735 545.955 166.973 547.472 166.978 548.999V548.999Z" fill="#72C400"/>
<g style="mix-blend-mode:multiply" opacity="0.33">
<path d="M151.982 534.004C150.981 534.004 149.983 534.104 149.002 534.302C150.693 534.792 152.257 535.646 153.584 536.804C154.91 537.962 155.968 539.396 156.682 541.005C157.396 542.615 157.75 544.361 157.718 546.122C157.687 547.883 157.27 549.615 156.499 551.198C155.727 552.781 154.619 554.176 153.252 555.285C151.884 556.395 150.291 557.192 148.583 557.621C146.875 558.05 145.094 558.1 143.364 557.768C141.635 557.436 139.999 556.73 138.571 555.7C139.765 558.089 141.575 560.117 143.814 561.572C146.053 563.028 148.641 563.859 151.309 563.98C153.977 564.1 156.629 563.506 158.99 562.259C161.352 561.011 163.337 559.156 164.742 556.884C166.146 554.612 166.918 552.006 166.978 549.336C167.038 546.666 166.384 544.028 165.083 541.696C163.782 539.363 161.882 537.42 159.579 536.068C157.276 534.716 154.653 534.003 151.982 534.004V534.004Z" fill="#0072A5"/>
</g>
<g style="mix-blend-mode:overlay" opacity="0.61">
<path d="M146.596 542.875C148.334 541.137 148.927 538.912 147.921 537.906C146.914 536.899 144.689 537.492 142.951 539.23C141.213 540.968 140.62 543.193 141.627 544.199C142.633 545.206 144.858 544.613 146.596 542.875Z" fill="white"/>
</g>
<path d="M27.3365 11.383C27.184 11.2706 27.0207 11.1735 26.849 11.093C26.3441 10.8948 25.8005 10.8137 25.2594 10.8556C25.4124 10.7631 25.5593 10.6609 25.6992 10.5498C26.1173 10.1677 26.3795 9.6458 26.4357 9.08363C26.347 8.4916 26.3596 7.88892 26.4728 7.30106C26.5344 7.04913 26.6548 6.81519 26.8242 6.61819C26.9935 6.42119 27.2072 6.26668 27.4477 6.16718C27.2975 6.10621 27.1356 6.07886 26.9735 6.08706C26.8114 6.09527 26.6532 6.13882 26.5099 6.21464C25.7681 6.53635 25.4183 7.10593 24.4911 7.16921C23.8446 7.20613 23.3148 6.65237 22.7849 6.39923C22.6677 6.34724 22.5421 6.31687 22.414 6.30957C22.7054 5.98787 22.8008 5.53959 23.1134 5.2548C23.283 5.10186 23.1876 4.83289 22.9651 5.00165C22.3875 5.42884 21.9053 5.10713 21.3066 4.97001C21.7623 4.81179 22.2868 4.68522 22.202 4.12619C22.0748 3.61961 21.7633 3.17801 21.3278 2.88683C21.1882 2.76713 21.0748 2.62017 20.9945 2.45507C20.9143 2.28996 20.8691 2.11022 20.8615 1.92699C20.8096 1.69781 20.8096 1.46001 20.8615 1.23083C20.9377 0.820211 21.133 0.440744 21.4231 0.139144C21.1739 0.107316 20.9207 0.139011 20.6871 0.231257C20.4535 0.323502 20.2474 0.473275 20.0879 0.666531C19.9094 1.0083 19.8064 1.38412 19.7859 1.76877C19.4997 3.17162 18.2333 2.43855 17.4385 2.5493C16.9458 2.61786 16.2145 2.80772 15.9496 3.30874C15.6688 3.05032 15.2926 2.87101 15.1071 2.52293C14.9905 2.3067 15.1071 1.99555 15.2502 1.65802C15.2422 1.41241 15.1994 1.16916 15.123 0.935498C15.088 0.973766 15.061 1.01858 15.0435 1.06734C14.956 1.28765 14.8122 1.48139 14.6263 1.62938C14.4404 1.77738 14.219 1.87451 13.9838 1.91116C13.6582 2.0069 13.3651 2.18924 13.136 2.43855C12.9164 2.69304 12.7506 2.989 12.6485 3.30874C12.2829 2.94484 11.6736 2.60731 11.2497 2.25397C11.0457 2.1492 10.8764 1.98805 10.7622 1.78986C10.6521 1.59522 10.5954 1.37511 10.5979 1.15173C9.30507 1.5209 9.5912 2.68115 9.07193 3.58825C9.04767 3.37854 8.95883 3.18143 8.81759 3.02395C8.14466 2.84991 7.46643 3.02395 6.7829 2.91847C6.54975 2.88683 6.16825 2.79717 6.12586 2.50711C6.10516 2.40441 6.10516 2.29865 6.12586 2.19595C5.54955 2.70814 5.17411 3.40692 5.06613 4.16838C5.02882 4.46532 5.05689 4.76678 5.14839 5.05183C5.23989 5.33688 5.39262 5.5987 5.59599 5.8191C5.75511 5.95536 5.93368 6.06733 6.12586 6.15136C6.307 6.22405 6.4839 6.3068 6.65573 6.39923L6.71931 6.48361C6.35677 6.51038 5.99993 6.58852 5.65958 6.71566C5.29397 6.87388 4.94426 7.04264 4.59984 7.24305C3.54011 7.7968 3.92161 6.43614 3.9587 6.18827C3.99579 5.9404 3.71496 5.85602 3.52951 5.81383H3.42354C2.6601 5.9672 1.97641 6.38596 1.49482 6.99517H1.59019C2.33201 7.05846 2.53336 7.29051 2.17835 7.68605C2.07205 7.85868 1.99004 8.045 1.93461 8.23981C1.94197 8.76064 2.04617 9.27561 2.24193 9.75868L2.34261 9.86416C2.47507 10.2808 3.03143 10.5339 3.40234 10.6341C3.69997 10.6909 4.00078 10.7296 4.30312 10.7502C4.13499 10.7539 3.96786 10.7769 3.80504 10.8187C3.46462 10.9312 3.16815 11.147 2.95725 11.4358C2.42738 12.0317 1.43123 12.7068 0.964949 11.652C0.857879 11.9089 0.776246 12.1756 0.72121 12.4484C0.635892 12.7366 0.650828 13.0451 0.763599 13.3238C0.811624 13.4015 0.874847 13.4688 0.949511 13.5216C1.02417 13.5745 1.10876 13.6119 1.19822 13.6315C1.28769 13.6512 1.38022 13.6528 1.47032 13.6362C1.56041 13.6195 1.64622 13.5851 1.72266 13.5348C2.03528 13.3291 2.44858 12.9336 2.86717 13.1129C3.03513 13.2489 3.17208 13.4189 3.26892 13.6117C3.36576 13.8045 3.42027 14.0156 3.42883 14.2309C2.48037 14.2309 2.3691 15.7234 1.42064 15.6971C1.17727 15.6904 0.939125 15.6253 0.726509 15.5072C1.30002 16.2778 2.03845 16.9119 2.88837 17.3636C2.50433 17.3241 2.11774 17.4092 1.78624 17.6062C1.56375 17.7463 1.35914 17.9128 1.1769 18.1019C0.811288 18.6662 0.896066 19.3993 0.72121 20.0902C0.69122 20.2462 0.618407 20.3908 0.510848 20.5081C0.403289 20.6254 0.265187 20.7108 0.111862 20.7547C0.477471 20.8865 0.911962 21.0764 1.27757 20.8285C1.87632 20.4277 2.40089 19.0776 3.1798 20.0111C3.4191 20.2869 3.72759 20.4947 4.07384 20.6133C4.42009 20.7319 4.79173 20.757 5.1509 20.6861C4.6367 20.8552 4.18354 21.1706 3.84743 21.5932C3.68338 21.8255 3.58294 22.0964 3.556 22.3791C3.55022 22.5828 3.58628 22.7856 3.66198 22.975C3.84743 23.4338 4.41969 23.9454 4.42499 24.457C4.43079 24.6787 4.37048 24.8973 4.25166 25.085C4.13285 25.2727 3.96085 25.4212 3.75735 25.5117C4.19096 25.5893 4.63755 25.5492 5.05023 25.3957C5.90861 25.0845 5.90332 23.7555 6.47557 23.2229C6.3784 23.3672 6.3217 23.5347 6.31131 23.7081C6.34311 24.2355 7.28627 25.19 6.63453 25.6436C6.60194 25.6711 6.5734 25.7031 6.54975 25.7385C6.86551 25.877 7.22039 25.8994 7.5512 25.8018C7.72754 25.7191 7.89158 25.6127 8.03868 25.4854C8.24685 25.2907 8.42535 25.0668 8.56855 24.8209C8.55893 25.0271 8.60258 25.2323 8.69535 25.417C8.78811 25.6016 8.92688 25.7596 9.09842 25.8756C9.92501 26.5349 11.9915 27.2363 10.1052 28.4756C9.97398 28.5578 9.8663 28.6722 9.79255 28.8079C10.2853 29.1296 11.308 29.0347 11.7319 28.9397C12.5059 28.7665 13.2149 28.3789 13.7772 27.8217C14.1755 27.2371 14.4047 26.5548 14.4395 25.8493C14.5202 25.896 14.6078 25.9298 14.6991 25.9495C15.229 26.0549 16.3894 25.9178 16.2887 26.7775C16.2751 26.8471 16.2751 26.9187 16.2887 26.9884C16.5483 26.9236 16.7887 26.7985 16.9904 26.6234C17.1921 26.4483 17.3493 26.2282 17.4491 25.9811C17.4173 25.6108 17.3071 25.2513 17.1259 24.9263C18.4347 24.9263 19.8653 23.3125 21.0575 24.2618C21.1306 24.0578 21.1566 23.8399 21.1337 23.6245C21.1108 23.4091 21.0395 23.2015 20.9251 23.0172C20.8016 22.793 20.714 22.551 20.6654 22.2999C20.5436 21.6935 20.5436 21.5036 20.6654 21.7304C20.8319 21.8472 21.023 21.9246 21.2241 21.9565C21.4253 21.9885 21.6311 21.9743 21.8258 21.915C22.5518 21.7989 23.1929 21.915 23.5214 22.6217C23.5745 22.7964 23.5793 22.982 23.5355 23.1593C23.4917 23.3365 23.4008 23.4987 23.2724 23.629C23.335 23.595 23.4007 23.5668 23.4684 23.5446C24.0383 23.4445 24.5677 23.1847 24.9944 22.7957C25.3405 22.4374 25.5483 21.9689 25.5813 21.473C25.6143 20.9771 25.4702 20.4855 25.1746 20.0849C25.021 19.8623 24.8433 19.6572 24.6447 19.4732C24.2325 19.2041 23.8427 18.9025 23.479 18.5713C24.8408 18.7032 25.2117 16.4618 26.1284 16.0873C26.2348 15.9706 26.3678 15.8809 26.5162 15.8258C26.6647 15.7708 26.8242 15.7519 26.9815 15.7709C26.9497 15.349 26.4516 15.08 25.9853 14.8902C25.7425 14.8607 25.4969 14.8607 25.2541 14.8902C25.0642 14.9304 24.8842 15.0074 24.7242 15.1169C24.8355 14.9007 24.9256 14.6792 25.0103 14.4841C25.1729 14.016 25.474 13.6078 25.874 13.3133C26.1671 13.037 26.5359 12.8535 26.9338 12.7859C27.2543 12.7479 27.5793 12.7933 27.8769 12.9177C27.902 12.356 27.7085 11.8062 27.3365 11.383V11.383Z" fill="#FF5D1D"/>
<path d="M10.8364 29.1349C10.4521 29.1543 10.0696 29.0705 9.72896 28.8923C9.70543 28.878 9.68807 28.8555 9.68024 28.8292C9.67241 28.8029 9.67466 28.7746 9.68658 28.7499C9.76983 28.5965 9.88998 28.466 10.0363 28.3702C10.5185 28.0538 10.7622 27.7531 10.7569 27.4842C10.7569 27.057 10.1476 26.6825 9.61769 26.3503C9.40769 26.2312 9.20428 26.1009 9.00834 25.96C8.74326 25.767 8.55552 25.4867 8.47848 25.1689C8.36492 25.3228 8.23526 25.4643 8.09167 25.5909C7.93226 25.7281 7.7538 25.8418 7.56181 25.9284C7.2105 26.0297 6.83426 26.0016 6.50207 25.8493C6.48751 25.842 6.47475 25.8316 6.46468 25.8188C6.4546 25.8061 6.44747 25.7912 6.44378 25.7754C6.43781 25.7612 6.43473 25.746 6.43473 25.7306C6.43473 25.7152 6.43781 25.7 6.44378 25.6858C6.47589 25.6394 6.51524 25.5985 6.56035 25.5645C6.87828 25.343 6.72461 24.9791 6.45968 24.4464C6.35087 24.2551 6.26549 24.0515 6.20534 23.8399C6.15236 23.9612 6.10467 24.0878 6.05168 24.2196C5.84503 24.747 5.62779 25.3166 5.07672 25.517C4.64113 25.6824 4.16843 25.7261 3.70967 25.6436C3.68495 25.6381 3.66285 25.6244 3.64701 25.6048C3.63116 25.5851 3.62253 25.5607 3.62253 25.5355C3.62253 25.5103 3.63116 25.4858 3.64701 25.4662C3.66285 25.4465 3.68495 25.4328 3.70967 25.4274C3.89244 25.3422 4.04581 25.2051 4.15047 25.0334C4.25513 24.8616 4.3064 24.6629 4.29782 24.4622C4.24092 24.138 4.09619 23.8353 3.87922 23.5868C3.74614 23.4114 3.63245 23.2222 3.54011 23.0225C3.4592 22.8197 3.42132 22.6024 3.42884 22.3843C3.45581 22.0788 3.56368 21.7858 3.74146 21.5352C3.96384 21.2403 4.24995 20.9988 4.57865 20.8286C4.29034 20.8186 4.00746 20.7477 3.74889 20.6203C3.49031 20.493 3.26198 20.3123 3.07912 20.0902C3.03205 20.0151 2.96942 19.9508 2.89541 19.9017C2.8214 19.8526 2.73771 19.8198 2.64993 19.8054C2.3903 19.8054 2.12006 20.1113 1.87632 20.4014C1.72351 20.5994 1.54538 20.7767 1.34646 20.9288C1.20835 21.02 1.0459 21.0677 0.880172 21.0659C0.628042 21.0511 0.380505 20.9922 0.148954 20.8918L0.0747729 20.8655C0.0510801 20.8573 0.0308614 20.8414 0.0173963 20.8203C0.00393118 20.7992 -0.00199062 20.7743 0.000591381 20.7494C0.00248349 20.7252 0.0123267 20.7023 0.0286042 20.6842C0.0448817 20.6661 0.0666901 20.6538 0.0906689 20.6492C0.318512 20.6018 0.503966 20.375 0.594043 20.0216C0.649695 19.7802 0.688644 19.5353 0.710614 19.2886C0.724801 18.8367 0.844534 18.3943 1.06033 17.9965C1.25041 17.794 1.46589 17.6168 1.70147 17.4691C1.92731 17.3239 2.18587 17.2369 2.45388 17.216C1.74073 16.7723 1.11715 16.1999 0.615238 15.5283C0.596846 15.5079 0.586685 15.4815 0.586717 15.4541C0.58675 15.4268 0.596973 15.4004 0.615414 15.38C0.633855 15.3597 0.659205 15.3469 0.686572 15.3441C0.713939 15.3413 0.741381 15.3487 0.763601 15.3648C0.960006 15.4736 1.18002 15.5334 1.40474 15.5389V15.5389C1.82864 15.5389 2.06708 15.2066 2.32141 14.8585C2.57575 14.5105 2.85128 14.1307 3.30697 14.078C3.26458 13.8565 3.06853 13.2869 2.80359 13.1709C2.53866 13.0549 2.21014 13.2658 1.94521 13.461L1.77035 13.5823C1.6388 13.6706 1.48396 13.7183 1.32526 13.7194C1.18879 13.7203 1.05444 13.6857 0.935487 13.6192C0.816538 13.5526 0.717109 13.4562 0.64703 13.3397C0.518896 13.0374 0.498332 12.7006 0.588745 12.3851C0.644881 12.1052 0.728288 11.8314 0.837783 11.5676C0.846565 11.5481 0.86062 11.5313 0.878391 11.5192C0.896161 11.5071 0.916952 11.5001 0.938457 11.4991C0.960593 11.5003 0.982019 11.5073 1.00061 11.5193C1.0192 11.5313 1.0343 11.548 1.04443 11.5676C1.1875 11.8946 1.38885 12.0528 1.65378 12.0528C2.13116 11.97 2.55914 11.7098 2.85128 11.325C3.03639 11.0847 3.27132 10.8868 3.54011 10.7449L3.34936 10.7027C3.11234 10.6577 2.88825 10.561 2.69314 10.4197C2.49803 10.2784 2.33671 10.0959 2.22074 9.88527L2.16245 9.82726L2.12006 9.79034V9.7587C1.91281 9.25658 1.80487 8.71937 1.80214 8.17654C1.80016 8.16431 1.80016 8.15185 1.80214 8.13962C1.85817 7.93584 1.94196 7.74065 2.05118 7.55949V7.55949C2.16245 7.43292 2.21014 7.32744 2.18365 7.26416C2.15715 7.20087 2.06178 7.10067 1.54781 7.0532H1.45773C1.43503 7.05465 1.41244 7.04915 1.39298 7.03743C1.37352 7.02571 1.35814 7.00834 1.34891 6.98766C1.33967 6.96697 1.33702 6.94397 1.34132 6.92174C1.34562 6.89952 1.35666 6.87914 1.37295 6.86334C1.87296 6.23218 2.58345 5.80003 3.37585 5.64508V5.64508H3.48712C3.63019 5.67672 4.05938 5.77692 4.01699 6.1461V6.23575C3.9746 6.43616 3.86863 6.96355 4.01699 7.14286C4.03314 7.16165 4.05363 7.17627 4.0767 7.18546C4.09977 7.19464 4.12474 7.19812 4.14946 7.1956C4.27736 7.1834 4.40069 7.14188 4.50977 7.0743C4.87538 6.87916 5.22509 6.7104 5.5695 6.54691C5.82835 6.44985 6.09642 6.37917 6.3696 6.33595L6.04108 6.18829L5.9616 6.1461C5.7883 6.06437 5.62912 5.95579 5.49002 5.82439C5.28118 5.59141 5.12564 5.31607 5.03416 5.01741C4.94267 4.71875 4.91742 4.40388 4.96015 4.09456C5.09076 3.32852 5.4817 2.63035 6.06758 2.11686C6.0872 2.10146 6.11147 2.09309 6.13646 2.09309C6.16145 2.09309 6.18572 2.10146 6.20534 2.11686C6.22717 2.12897 6.24427 2.14804 6.25388 2.171C6.2635 2.19396 6.26506 2.21948 6.25833 2.24343C6.24035 2.33219 6.24035 2.42364 6.25833 2.5124C6.29012 2.73917 6.66103 2.80774 6.81999 2.82883C6.99643 2.84005 7.17342 2.84005 7.34986 2.82883H8.02279C8.31509 2.82222 8.60705 2.85234 8.89177 2.91849C8.91208 2.92384 8.93045 2.93481 8.94476 2.95013C9.03136 3.042 9.09969 3.14937 9.14611 3.26656C9.20869 3.06244 9.25825 2.85459 9.29447 2.64425C9.45873 2.00083 9.63359 1.33105 10.5662 1.06208C10.5831 1.05703 10.6011 1.05608 10.6185 1.05933C10.636 1.06258 10.6524 1.06993 10.6664 1.08077C10.6804 1.0916 10.6916 1.10561 10.699 1.12163C10.7065 1.13764 10.71 1.1552 10.7092 1.17284C10.7006 1.3739 10.7444 1.57376 10.8364 1.75296C10.9382 1.93351 11.0912 2.08024 11.2762 2.17487C11.4935 2.34348 11.7199 2.50017 11.9544 2.64425C12.1717 2.79719 12.3942 2.95013 12.5744 3.11362C12.6798 2.8415 12.8322 2.58983 13.0247 2.37C13.2654 2.09635 13.577 1.89383 13.9255 1.7846C14.1449 1.75493 14.3527 1.66876 14.5283 1.53464C14.7039 1.40052 14.8414 1.22309 14.927 1.01989C14.9496 0.957864 14.9838 0.900619 15.0276 0.851129C15.0401 0.834631 15.057 0.821938 15.0764 0.814487C15.0957 0.807035 15.1168 0.805122 15.1372 0.808962C15.1576 0.812802 15.1765 0.822244 15.1918 0.836219C15.2071 0.850194 15.2181 0.868146 15.2237 0.888047C15.3079 1.13483 15.356 1.39236 15.3668 1.65276C15.3706 1.66835 15.3706 1.68463 15.3668 1.70022C15.2343 2.02193 15.1336 2.30144 15.2184 2.47021C15.3521 2.68405 15.5334 2.86448 15.7483 2.99759L15.9443 3.15054C16.3355 2.73423 16.8722 2.48317 17.4438 2.44911C17.706 2.42815 17.9697 2.44234 18.228 2.4913C18.4207 2.52415 18.6155 2.54353 18.8109 2.54932C19.1712 2.54932 19.558 2.45439 19.7011 1.75296C19.7011 1.67385 19.7329 1.5842 19.7435 1.48927C19.7608 1.17678 19.8574 0.873762 20.0243 0.608531C20.193 0.398347 20.4117 0.233313 20.6605 0.128343C20.9094 0.0233734 21.1806 -0.018224 21.4496 0.00731022C21.4697 0.0114401 21.4883 0.0210136 21.5032 0.0349736C21.5182 0.0489336 21.529 0.0667371 21.5344 0.0864183C21.5398 0.106005 21.5397 0.126698 21.5341 0.146231C21.5285 0.165765 21.5176 0.183387 21.5026 0.19717C21.2264 0.489748 21.0422 0.856412 20.9728 1.25194C20.9245 1.4655 20.9245 1.68707 20.9728 1.90063C20.9782 2.07223 21.0192 2.24087 21.093 2.39603C21.1669 2.55119 21.272 2.68954 21.402 2.80246L21.4337 2.82883C21.8758 3.13095 22.1893 3.58582 22.3133 4.10511C22.3928 4.63249 22.0431 4.81708 21.6775 4.9542H21.7093C21.9148 5.03193 22.131 5.07817 22.3504 5.09132C22.543 5.08678 22.729 5.02015 22.8803 4.90146C23.0445 4.78016 23.2194 4.81708 23.2777 4.96475C23.2986 5.02899 23.2997 5.09802 23.2808 5.16289C23.2619 5.22777 23.2239 5.28551 23.1717 5.32865C23.0233 5.48245 22.9032 5.66094 22.8167 5.85603C22.753 5.9795 22.6822 6.09924 22.6048 6.21466C22.6779 6.23137 22.749 6.25613 22.8167 6.28849C22.9998 6.37889 23.1768 6.48107 23.3466 6.59437C23.6609 6.85655 24.0503 7.01341 24.4593 7.04265C24.9214 6.9956 25.3588 6.81192 25.7151 6.51527C25.9406 6.35108 26.182 6.20974 26.4357 6.09336C26.5934 6.01145 26.7672 5.9652 26.9449 5.95791C27.1226 5.95061 27.2997 5.98246 27.4636 6.05117C27.4827 6.06016 27.4988 6.07435 27.51 6.09209C27.5213 6.10983 27.5273 6.13039 27.5272 6.15137C27.5273 6.17235 27.5213 6.19291 27.51 6.21065C27.4988 6.22839 27.4827 6.24258 27.4636 6.25157C27.2392 6.34387 27.0398 6.48745 26.8815 6.67069C26.7231 6.85393 26.6104 7.07169 26.5523 7.30635C26.4381 7.85456 26.4184 8.4181 26.494 8.97289V9.07837C26.4427 9.68427 26.1647 10.2489 25.7151 10.6605L25.5826 10.7607C26.0225 10.7611 26.4581 10.8471 26.8649 11.0139C27.0516 11.0974 27.2292 11.1999 27.3948 11.3198V11.3198C27.8013 11.7599 28.0182 12.3413 27.9988 12.9388C27.998 12.9571 27.9926 12.9748 27.9832 12.9905C27.9738 13.0062 27.9606 13.0193 27.9449 13.0287C27.9292 13.0381 27.9113 13.0435 27.893 13.0444C27.8747 13.0453 27.8564 13.0416 27.8398 13.0338C27.5622 12.9178 27.2595 12.8742 26.9603 12.9072C26.5807 12.9626 26.2264 13.1297 25.9429 13.3871C25.5589 13.6748 25.2694 14.0694 25.111 14.521L25.0845 14.5843L24.968 14.8533C25.0566 14.8119 25.1515 14.7851 25.2488 14.7741C25.5004 14.7431 25.7549 14.7431 26.0065 14.7741H26.033C26.4622 14.9429 27.0344 15.2224 27.0927 15.7129C27.0955 15.7268 27.0955 15.7412 27.0927 15.7551C27.0927 15.7845 27.081 15.8126 27.0601 15.8334C27.0393 15.8542 27.011 15.8658 26.9815 15.8658H26.955C26.8154 15.8505 26.6741 15.8688 26.5431 15.9193C26.4122 15.9698 26.2953 16.051 26.2026 16.1559H26.1708C25.7747 16.4167 25.4592 16.7819 25.2594 17.2107C24.8779 17.833 24.4487 18.5344 23.7493 18.6346C24.0503 18.8874 24.3651 19.1233 24.6924 19.3413C24.893 19.535 25.0708 19.7509 25.2223 19.9847C25.5292 20.4074 25.6776 20.9237 25.6418 21.444C25.606 21.9642 25.3882 22.4556 25.0262 22.8326C24.6666 23.1893 24.2097 23.4332 23.7122 23.534L23.4525 23.6132C23.4026 23.6508 23.3565 23.6932 23.3148 23.7397C23.2951 23.7551 23.2709 23.7635 23.2459 23.7635C23.2209 23.7635 23.1966 23.7551 23.177 23.7397C23.1624 23.7198 23.1545 23.6958 23.1545 23.6712C23.1545 23.6465 23.1624 23.6225 23.177 23.6026C23.3943 23.2809 23.5532 23.0067 23.4155 22.706C23.3277 22.4889 23.1722 22.3056 22.9719 22.1831C22.7716 22.0606 22.537 22.0054 22.3027 22.0257C22.1482 22.0276 21.994 22.0417 21.8417 22.0679C21.6516 22.1218 21.4527 22.138 21.2563 22.1153C21.0599 22.0927 20.8699 22.0318 20.6972 21.9361C20.6972 22.0257 20.7343 22.147 20.7661 22.3263C20.8132 22.5621 20.8954 22.7897 21.0099 23.0014C21.123 23.19 21.1943 23.4005 21.219 23.6188C21.2437 23.8372 21.2212 24.0582 21.1529 24.2671C21.1462 24.2826 21.136 24.2963 21.1232 24.3073C21.1103 24.3183 21.0951 24.3262 21.0787 24.3304C21.0631 24.3383 21.0459 24.3424 21.0284 24.3424C21.0109 24.3424 20.9937 24.3383 20.9781 24.3304C20.7585 24.1472 20.4804 24.0481 20.1939 24.0509C19.6703 24.1035 19.1634 24.2633 18.7049 24.5203C18.2591 24.7573 17.7778 24.9211 17.2796 25.0055L17.3485 25.1584C17.4873 25.4085 17.5585 25.6902 17.5551 25.9758C17.5562 25.9846 17.5562 25.9935 17.5551 26.0022C17.4488 26.2688 17.2797 26.5062 17.0621 26.6943C16.8445 26.8824 16.5848 27.0159 16.3046 27.0834C16.2773 27.0883 16.2492 27.083 16.2256 27.0683C16.2021 27.0537 16.1849 27.0308 16.1775 27.0043C16.1608 26.9207 16.1608 26.8347 16.1775 26.7511C16.1909 26.6875 16.1908 26.6217 16.1771 26.5581C16.1634 26.4945 16.1365 26.4345 16.098 26.3819C15.9178 26.1604 15.4674 26.1235 15.1018 26.0971C14.9482 26.0971 14.8051 26.0971 14.6885 26.0497L14.5508 26.0128C14.4994 26.6799 14.2768 27.3227 13.9043 27.8797C13.3224 28.4584 12.5874 28.8607 11.7849 29.04C11.4729 29.1046 11.155 29.1364 10.8364 29.1349V29.1349ZM9.94621 28.7605C10.2284 28.8745 10.5321 28.9267 10.8364 28.9134C11.1301 28.9134 11.4231 28.8834 11.7107 28.8237C12.4709 28.6597 13.1689 28.2848 13.7242 27.7426C14.0854 27.1749 14.2867 26.521 14.307 25.8493C14.3078 25.8305 14.3137 25.8123 14.3239 25.7966C14.3342 25.7808 14.3485 25.7681 14.3653 25.7596C14.3822 25.7499 14.4014 25.7448 14.4209 25.7448C14.4405 25.7448 14.4597 25.7499 14.4766 25.7596C14.5475 25.7997 14.6244 25.8282 14.7044 25.844C14.8104 25.844 14.9482 25.8756 15.0912 25.8862C15.5095 25.858 15.9227 25.9901 16.2463 26.2554C16.3027 26.3299 16.3431 26.4152 16.365 26.5059C16.3869 26.5966 16.3898 26.6909 16.3735 26.7828C16.3735 26.7828 16.3735 26.8249 16.3735 26.8408C16.585 26.7657 16.7785 26.6477 16.9418 26.4942C17.105 26.3408 17.2345 26.1553 17.322 25.9495C17.3153 25.7072 17.2498 25.4702 17.1312 25.2586C17.0835 25.1531 17.0411 25.0529 17.0041 24.9474C16.9961 24.9319 16.992 24.9148 16.992 24.8973C16.992 24.8799 16.9961 24.8628 17.0041 24.8472C17.0153 24.8285 17.0319 24.8135 17.0517 24.8041C17.0715 24.7948 17.0936 24.7914 17.1153 24.7945C17.64 24.7358 18.1478 24.5745 18.6095 24.3199C19.099 24.0473 19.6406 23.8802 20.1992 23.8294C20.4838 23.8266 20.7626 23.9093 20.9993 24.0667C21.0689 23.7176 21.0066 23.3551 20.8244 23.0488C20.7011 22.819 20.6136 22.5718 20.5648 22.3158C20.4323 21.6618 20.4694 21.6196 20.5118 21.5722C20.5237 21.5583 20.5383 21.547 20.5547 21.5389C20.571 21.5307 20.5889 21.5259 20.6072 21.5247C20.6813 21.5247 20.729 21.588 20.7661 21.6513C20.9206 21.7527 21.0959 21.8186 21.2792 21.8442C21.4626 21.8697 21.6493 21.8543 21.8258 21.7989C21.9887 21.772 22.1535 21.7579 22.3186 21.7568C22.5967 21.7353 22.8744 21.8024 23.1116 21.9484C23.3488 22.0944 23.5331 22.3117 23.638 22.5689C23.6924 22.702 23.714 22.8461 23.7011 22.9892C23.6882 23.1323 23.6411 23.2703 23.5638 23.3917L23.7122 23.3442C24.1624 23.2515 24.5762 23.0318 24.9044 22.7113C25.2344 22.3719 25.4326 21.9268 25.4637 21.4555C25.4947 20.9841 25.3566 20.5171 25.0739 20.1377C24.9313 19.9238 24.7661 19.7258 24.5812 19.547C24.1678 19.2796 23.7778 18.9779 23.4155 18.6452C23.4025 18.6266 23.3955 18.6045 23.3955 18.5819C23.3955 18.5593 23.4025 18.5372 23.4155 18.5186C23.4252 18.4979 23.4411 18.4807 23.461 18.4694C23.4809 18.4581 23.5039 18.4532 23.5267 18.4553C24.2632 18.5291 24.6924 17.8172 25.1163 17.1316C25.3339 16.6646 25.6791 16.268 26.1125 15.9871C26.3176 15.7821 26.5907 15.6584 26.8808 15.6391C26.7854 15.407 26.494 15.1961 26.0012 14.9956C25.7725 14.9676 25.5411 14.9676 25.3124 14.9956C25.153 15.0265 25.0015 15.0893 24.8673 15.1802L24.8143 15.2119C24.7934 15.2237 24.7692 15.2285 24.7453 15.2256C24.7215 15.2226 24.6992 15.212 24.6819 15.1954C24.6646 15.1787 24.6531 15.1569 24.6493 15.1333C24.6455 15.1097 24.6495 15.0854 24.6606 15.0642C24.756 14.8796 24.8408 14.6792 24.915 14.5052L24.9415 14.4419C25.1085 13.9445 25.4224 13.5089 25.8422 13.192C26.1539 12.9094 26.5432 12.7258 26.9603 12.6646C27.2457 12.6317 27.5348 12.6605 27.8081 12.749C27.7821 12.2697 27.5956 11.8129 27.2782 11.4516C27.1354 11.346 26.9828 11.2542 26.8225 11.1774C26.4125 11.0113 25.9721 10.9322 25.5296 10.9453H25.2647C25.2392 10.9466 25.2141 10.9396 25.193 10.9253C25.172 10.911 25.1562 10.8903 25.1481 10.8662C25.1396 10.8421 25.1397 10.8159 25.1483 10.7918C25.157 10.7678 25.1738 10.7475 25.1958 10.7344C25.3434 10.6452 25.485 10.5466 25.6197 10.439C26.0148 10.0754 26.2619 9.57986 26.3138 9.04672V8.96234C26.2326 8.39241 26.2487 7.81292 26.3615 7.24833C26.4752 6.80862 26.7565 6.43027 27.1457 6.19356C26.9412 6.18153 26.737 6.22146 26.5523 6.30959C26.3116 6.42029 26.0827 6.55455 25.8687 6.7104C25.4772 7.02828 24.9995 7.2229 24.4964 7.26943C24.0359 7.24793 23.595 7.07759 23.2406 6.78423C23.0829 6.67696 22.9183 6.58006 22.7478 6.49417C22.6442 6.44776 22.5328 6.42094 22.4193 6.41506C22.3986 6.41349 22.3787 6.40616 22.3619 6.39391C22.3452 6.38166 22.3322 6.36498 22.3245 6.34576C22.3167 6.32655 22.3146 6.30556 22.3182 6.28518C22.3219 6.2648 22.3312 6.24585 22.3451 6.23048C22.4651 6.0853 22.5666 5.92587 22.6471 5.75583C22.7454 5.53847 22.8818 5.34024 23.0498 5.17043C23.0681 5.15767 23.0823 5.13995 23.0908 5.11938C23.0992 5.09881 23.1016 5.07626 23.0975 5.0544L23.0445 5.08605C22.8495 5.23842 22.609 5.3219 22.361 5.32337C22.118 5.31132 21.8785 5.26149 21.651 5.1757C21.5344 5.13879 21.4126 5.10187 21.2907 5.07023C21.2673 5.06365 21.2465 5.04995 21.2313 5.03103C21.2161 5.01212 21.2072 4.98894 21.2059 4.96475C21.2045 4.94078 21.211 4.91702 21.2244 4.89704C21.2378 4.87707 21.2573 4.86196 21.2801 4.854L21.3967 4.81181C21.8735 4.64832 22.1597 4.52174 22.0961 4.13148C21.9785 3.66282 21.6919 3.25359 21.2907 2.98177L21.2589 2.9554C21.1069 2.82329 20.9837 2.66149 20.8971 2.48005C20.8106 2.29861 20.7623 2.10139 20.7555 1.90063C20.7011 1.66105 20.7011 1.41241 20.7555 1.17284C20.8311 0.829987 20.9812 0.507771 21.1953 0.228813C21.0024 0.238656 20.8135 0.28772 20.6404 0.37298C20.4672 0.45824 20.3135 0.577891 20.1886 0.724557C20.0498 0.96075 19.9698 1.22658 19.9554 1.49982C19.9554 1.59475 19.9289 1.68967 19.9077 1.77933C19.8886 2.05544 19.7613 2.31303 19.5531 2.49653C19.345 2.68004 19.0727 2.77476 18.795 2.76027C18.589 2.75534 18.3836 2.73596 18.1804 2.70226C17.9421 2.65041 17.6979 2.63089 17.4544 2.64425C17.0358 2.70226 16.2993 2.87102 16.0503 3.34567C16.0424 3.36077 16.0311 3.37385 16.0174 3.38391C16.0036 3.39397 15.9876 3.40074 15.9708 3.40368C15.945 3.40722 15.9187 3.40162 15.8966 3.38786C15.7981 3.31042 15.6955 3.23824 15.5893 3.17163C15.3534 3.02243 15.1542 2.82237 15.0064 2.58623C14.9627 2.42934 14.9514 2.26524 14.9732 2.10387C14.9951 1.9425 15.0497 1.78724 15.1336 1.64748C15.127 1.51818 15.1111 1.38952 15.0859 1.26249C14.9689 1.45974 14.8102 1.62933 14.6208 1.75954C14.4314 1.88975 14.2159 1.97748 13.9891 2.01665C13.6805 2.11637 13.4055 2.29885 13.1943 2.54404C12.9821 2.78408 12.82 3.06375 12.7174 3.36677C12.7116 3.38481 12.7013 3.40107 12.6874 3.414C12.6734 3.42693 12.6564 3.43609 12.6379 3.4406C12.619 3.44498 12.5993 3.44437 12.5807 3.43882C12.5621 3.43327 12.5453 3.42297 12.532 3.40896C12.3089 3.20237 12.0697 3.01368 11.8166 2.84465C11.5846 2.68115 11.3617 2.50509 11.149 2.31727C10.9234 2.19817 10.7388 2.01446 10.6191 1.78988C10.5319 1.62653 10.4796 1.44696 10.4655 1.26249C9.78195 1.51564 9.64419 2.03775 9.49052 2.6337C9.42061 2.96957 9.30472 3.2943 9.14611 3.59882C9.1345 3.61849 9.11707 3.63411 9.09621 3.64355C9.07534 3.65299 9.05206 3.65578 9.02954 3.65155C9.00636 3.64727 8.98514 3.63577 8.96895 3.61871C8.95276 3.60165 8.94243 3.57991 8.93946 3.55662C8.91996 3.38075 8.85006 3.21416 8.73811 3.0767C8.48226 3.02193 8.22085 2.99715 7.95921 3.00287H7.30217C7.12517 3.00496 6.94821 2.99616 6.7723 2.9765C6.51267 2.94486 6.06758 2.83938 6.01459 2.44911C5.54968 2.91404 5.25649 3.52184 5.1827 4.17367C5.14358 4.45721 5.16743 4.74584 5.25257 5.01921C5.33772 5.29258 5.48208 5.54403 5.67548 5.75583C5.79783 5.86447 5.93523 5.95506 6.08347 6.0248L6.15236 6.06171C6.33355 6.13428 6.51046 6.21704 6.68222 6.30959L6.71932 6.34123L6.767 6.40452C6.77981 6.42067 6.78784 6.44006 6.79019 6.46051C6.79254 6.48095 6.78912 6.50164 6.78032 6.52026C6.77152 6.53888 6.75768 6.55469 6.74035 6.56592C6.72302 6.57715 6.70289 6.58335 6.68222 6.58383C6.33254 6.60918 5.98823 6.68376 5.65958 6.80533C5.30457 6.95827 4.96015 7.12704 4.59984 7.33272C4.23953 7.5384 3.9746 7.52258 3.82624 7.33272C3.67787 7.14286 3.72556 6.50999 3.77855 6.24102V6.15664C3.77855 6.07226 3.77855 5.98788 3.43414 5.91405H3.35995C2.72341 6.04463 2.14685 6.37784 1.71736 6.86334C2.11476 6.91608 2.33731 7.02156 2.40619 7.20087C2.47507 7.38018 2.40619 7.52258 2.24193 7.72826C2.14404 7.89318 2.06917 8.07061 2.01939 8.25564C2.02697 8.7493 2.12576 9.23735 2.31082 9.69541V9.69541L2.3797 9.76397C2.39218 9.77748 2.40126 9.79375 2.40619 9.81143C2.51746 10.1595 3.00494 10.4074 3.39175 10.5076C3.58224 10.5422 3.77569 10.5581 3.9693 10.5551C4.08587 10.5551 4.19185 10.5551 4.29782 10.5867C4.32733 10.5867 4.35563 10.5984 4.3765 10.6191C4.39737 10.6399 4.40909 10.6681 4.40909 10.6974C4.40909 10.7268 4.39737 10.755 4.3765 10.7758C4.35563 10.7965 4.32733 10.8082 4.29782 10.8082C4.13869 10.8111 3.98044 10.8323 3.82624 10.8715C3.5021 10.9793 3.2203 11.1859 3.02084 11.4622C2.68756 11.8974 2.19737 12.1868 1.65378 12.2691C1.51349 12.269 1.37565 12.2325 1.2539 12.1631C1.13215 12.0937 1.03072 11.9939 0.959652 11.8735C0.896274 12.0451 0.846664 12.2215 0.811289 12.4009C0.73219 12.6639 0.741492 12.9453 0.837783 13.2025C0.888035 13.2849 0.958842 13.353 1.04333 13.4001C1.12782 13.4473 1.22311 13.4719 1.31996 13.4715C1.43294 13.4712 1.54339 13.4382 1.63788 13.3766L1.80744 13.2605C2.04587 13.0614 2.33993 12.94 2.64993 12.9125C2.74093 12.9119 2.83109 12.9298 2.91486 12.9652C3.34936 13.1551 3.5878 14.02 3.556 14.194C3.54873 14.2218 3.5332 14.2467 3.51145 14.2655C3.48971 14.2843 3.46276 14.2962 3.43414 14.2995C3.02084 14.2995 2.7771 14.637 2.52276 14.9904C2.26843 15.3437 1.9664 15.7656 1.46303 15.7656H1.39944C1.28502 15.762 1.17132 15.7461 1.06033 15.7182C1.58283 16.3323 2.2175 16.8423 2.93076 17.2212C2.9549 17.2321 2.97435 17.2512 2.9856 17.2751C2.99686 17.299 2.99918 17.3261 2.99216 17.3515C2.98513 17.3769 2.96921 17.399 2.94727 17.4138C2.92533 17.4286 2.89881 17.4351 2.87248 17.4322H2.71351C2.40187 17.4196 2.0936 17.5005 1.82864 17.6642C1.61386 17.798 1.41634 17.9574 1.24048 18.1389C1.05173 18.5015 0.946735 18.9015 0.933159 19.3097C0.908839 19.5582 0.868128 19.8048 0.811289 20.048C0.758388 20.3107 0.616176 20.5472 0.40859 20.7178C0.534304 20.7777 0.67191 20.8088 0.811289 20.8088C0.950668 20.8088 1.08827 20.7777 1.21399 20.7178C1.3945 20.5768 1.55649 20.4138 1.69617 20.2326C1.9823 19.9003 2.27902 19.5575 2.63933 19.5575C2.76437 19.5674 2.88556 19.6052 2.99383 19.6682C3.10211 19.7312 3.19466 19.8178 3.26458 19.9214C3.48841 20.1878 3.78031 20.3892 4.10949 20.5043C4.43868 20.6194 4.79297 20.644 5.13501 20.5754C5.16382 20.5684 5.19424 20.5731 5.21958 20.5884C5.24492 20.6038 5.2631 20.6285 5.27013 20.6571C5.27715 20.6858 5.27245 20.7161 5.25705 20.7413C5.24164 20.7665 5.21681 20.7846 5.188 20.7916C4.69469 20.954 4.25876 21.2543 3.93221 21.6565C3.77949 21.8733 3.68633 22.126 3.66198 22.3896C3.66057 22.5703 3.69478 22.7494 3.76265 22.917C3.84852 23.1029 3.95327 23.2797 4.07528 23.4444C4.32006 23.7283 4.47817 24.076 4.53096 24.4464C4.53325 24.6344 4.49575 24.8208 4.42089 24.9935C4.34603 25.1661 4.23549 25.3211 4.09647 25.4485C4.40569 25.4668 4.71548 25.4238 5.00784 25.3219C5.46353 25.1584 5.65958 24.6468 5.85033 24.1564C5.95408 23.7937 6.13476 23.4574 6.3802 23.1701C6.39847 23.1471 6.4252 23.1322 6.45451 23.1287C6.48383 23.1252 6.51332 23.1335 6.53651 23.1517C6.5597 23.1699 6.57468 23.1965 6.57816 23.2257C6.58163 23.2548 6.57333 23.2842 6.55506 23.3073C6.47122 23.4335 6.42023 23.5785 6.40669 23.7292C6.45002 23.9527 6.53252 24.167 6.65043 24.362C6.87828 24.8156 7.1803 25.3746 6.72991 25.728C6.98307 25.7974 7.25036 25.7974 7.50352 25.728C7.66238 25.649 7.81022 25.5497 7.94331 25.4326C8.1521 25.2471 8.3324 25.0321 8.47848 24.7945C8.49144 24.7737 8.51094 24.7578 8.53394 24.7492C8.55695 24.7406 8.58216 24.7399 8.60564 24.747C8.62939 24.7541 8.6501 24.7688 8.66449 24.7888C8.67889 24.8089 8.68615 24.8332 8.68512 24.8578C8.67854 25.0405 8.71771 25.2219 8.79911 25.3858C8.8805 25.5497 9.00157 25.6908 9.15141 25.7965C9.33685 25.9351 9.52965 26.0636 9.72896 26.1815C10.3065 26.5402 10.9636 26.9515 10.9742 27.5C10.9742 27.8586 10.7092 28.212 10.1529 28.5548C10.0732 28.6117 10.0034 28.6812 9.94621 28.7605V28.7605Z" fill="#FDBE80"/>
<path d="M21.4072 15.3701H21.492C21.4961 15.3583 21.5026 15.3475 21.511 15.3384C21.5195 15.3293 21.5298 15.322 21.5413 15.317C21.5528 15.3121 21.5651 15.3095 21.5776 15.3096C21.5901 15.3096 21.6025 15.3123 21.6139 15.3173H21.6616C21.9872 15.2654 22.3208 15.2962 22.6312 15.407C22.9059 15.3492 23.158 15.2137 23.3572 15.0167C23.7282 14.6138 23.9986 14.1296 24.1467 13.6033C24.3794 13.0595 24.7434 12.5813 25.2064 12.211C24.7575 12.2802 24.2982 12.1965 23.9029 11.9737C23.4264 11.6536 22.8545 11.5048 22.2815 11.5518C21.5715 11.921 21.0522 12.4695 21.2748 13.4346C21.3066 13.577 21.0893 13.635 21.0575 13.4926C20.992 13.2579 20.977 13.0121 21.0136 12.7713C21.0501 12.5304 21.1373 12.3 21.2695 12.095C21.2583 12.1047 21.2454 12.1121 21.2314 12.1168C21.2174 12.1216 21.2026 12.1235 21.1878 12.1225C21.173 12.1215 21.1586 12.1177 21.1454 12.1111C21.1321 12.1046 21.1203 12.0955 21.1105 12.0845C21.1008 12.0734 21.0933 12.0605 21.0886 12.0466C21.0838 12.0326 21.0819 12.0179 21.0829 12.0032C21.0839 11.9885 21.0878 11.9741 21.0943 11.9609C21.1009 11.9477 21.11 11.9359 21.1211 11.9262C21.4239 11.6042 21.8204 11.3847 22.255 11.2987L22.4405 11.2143C23.0021 10.9822 23.5903 10.8346 24.1573 10.6183C24.5693 10.4594 24.9162 10.168 25.1428 9.79033C24.3003 9.56883 23.3837 8.90959 22.5253 9.0098C22.4087 9.0098 22.3769 8.85158 22.467 8.79884C22.9227 8.53515 23.4101 8.71446 23.8817 8.5457C24.064 8.48176 24.2295 8.37798 24.3661 8.24199C24.5027 8.10601 24.607 7.94127 24.6712 7.75989C24.3543 7.98586 23.9857 8.12932 23.5988 8.17722C23.212 8.22512 22.8192 8.17593 22.4564 8.03413C21.9404 7.79052 21.3793 7.65585 20.8085 7.63859C20.8117 7.93494 20.833 8.23081 20.8721 8.5246C20.8721 8.667 20.6654 8.667 20.6442 8.5246C20.61 8.25337 20.5905 7.98048 20.5859 7.70715C20.5127 7.74668 20.4517 7.80543 20.4097 7.87703C20.3677 7.94863 20.3462 8.03032 20.3475 8.11324C20.3475 8.25564 20.1144 8.25564 20.1197 8.11324C20.1149 7.96976 20.1581 7.82875 20.2425 7.71232C20.3269 7.59589 20.4477 7.5106 20.5859 7.46983C20.5658 6.87938 20.7702 6.30309 21.1582 5.85602C20.1462 5.85602 18.8003 5.32864 18.387 6.49416C18.3446 6.61019 18.1592 6.59964 18.1645 6.46252C18.1806 6.06229 18.3035 5.67354 18.5204 5.33618C18.7374 4.99882 19.0406 4.725 19.399 4.54283C20.0084 4.13674 20.5383 3.7412 20.1091 2.96067V2.92903C19.5878 3.27801 18.9823 3.48194 18.3552 3.5197C17.7511 3.52296 17.1581 3.68097 16.6331 3.97853C15.9337 4.50591 15.2979 5.50795 16.1033 6.25156C16.2092 6.35177 16.0503 6.50998 15.9443 6.40978C15.711 6.19505 15.5656 5.90202 15.5363 5.58706C15.4727 5.80329 15.4038 6.02479 15.3456 6.24629C15.3378 6.27496 15.319 6.29941 15.2931 6.31424C15.2673 6.32908 15.2366 6.33309 15.2078 6.3254C15.179 6.31771 15.1544 6.29894 15.1395 6.27322C15.1246 6.24751 15.1206 6.21695 15.1283 6.18828C15.291 5.76611 15.3979 5.32468 15.4462 4.87508C15.3987 4.38366 15.1612 3.92983 14.7839 3.60935C14.5346 3.3698 14.3521 3.06997 14.254 2.73917C14.0039 3.05301 13.8152 3.4108 13.6977 3.79394C13.6049 4.16746 13.6311 4.56043 13.7725 4.91851C13.914 5.27659 14.1637 5.58208 14.4872 5.79274C14.609 5.87185 14.4872 6.06698 14.3759 5.98787C14.1755 5.85389 13.9968 5.69028 13.846 5.50267C13.9144 5.72673 13.9501 5.9594 13.952 6.19355C13.952 6.22292 13.9403 6.25109 13.9194 6.27186C13.8985 6.29263 13.8702 6.3043 13.8407 6.3043C13.8112 6.3043 13.7829 6.29263 13.7621 6.27186C13.7412 6.25109 13.7295 6.22292 13.7295 6.19355C13.7034 5.82501 13.5999 5.46602 13.4256 5.13986C13.2512 4.8137 13.0099 4.52764 12.7174 4.30023C12.2905 4.01918 11.8169 3.81563 11.3186 3.69901C10.8139 3.57619 10.3613 3.2974 10.0257 2.90266C10.0053 3.47708 10.1425 4.04619 10.4226 4.54886C10.7026 5.05153 11.115 5.46879 11.6153 5.75582C12.2935 6.17773 12.8499 6.6682 12.675 7.52784C12.6432 7.67024 12.426 7.60695 12.4578 7.46983C12.6962 6.38341 11.398 5.94568 10.6986 5.30227C10.9696 5.81849 11.0959 6.3978 11.0642 6.97936C11.0642 7.00873 11.0525 7.0369 11.0316 7.05767C11.0108 7.07844 10.9825 7.09011 10.953 7.09011C10.9234 7.09011 10.8951 7.07844 10.8743 7.05767C10.8534 7.0369 10.8417 7.00873 10.8417 6.97936C10.9043 6.31967 10.7152 5.66067 10.3118 5.1335C9.90153 4.74053 9.3688 4.49867 8.80169 4.4479C8.06291 4.40141 7.35387 4.14112 6.7617 3.69901C6.82931 4.14712 7.0118 4.57034 7.29157 4.92782C7.49257 5.16319 7.64878 5.43305 7.75255 5.72418C7.82766 6.13889 7.87369 6.55829 7.89032 6.97936C7.89032 7.03737 7.89032 7.12175 7.89032 7.22723C8.14466 7.39072 8.30362 7.75462 8.30362 8.37166C8.30362 8.40103 8.29189 8.4292 8.27102 8.44997C8.25016 8.47074 8.22185 8.48241 8.19234 8.48241C8.16283 8.48241 8.13453 8.47074 8.11366 8.44997C8.09279 8.4292 8.08107 8.40103 8.08107 8.37166C8.09581 8.11579 8.04089 7.86071 7.92211 7.63332C8.00689 8.5457 8.23473 9.93273 8.98185 9.51082C9.00784 9.49613 9.03864 9.49232 9.06746 9.50024C9.09627 9.50815 9.12075 9.52713 9.13551 9.55301C9.15026 9.57888 9.15409 9.60953 9.14614 9.63822C9.13819 9.6669 9.11912 9.69126 9.09312 9.70595C7.9645 10.3335 7.76845 8.36639 7.69427 7.6966C7.69427 7.60695 7.69427 7.51729 7.69427 7.42764C6.74051 6.95826 4.29252 9.17329 3.34935 8.36639C3.45533 9.02562 3.84743 9.70068 4.60514 9.6954C5.10958 9.62504 5.62142 9.62504 6.12586 9.6954C6.28126 9.74511 6.42244 9.83113 6.53761 9.94625C6.65278 10.0614 6.73859 10.2023 6.78787 10.3572C6.83715 10.512 6.84846 10.6764 6.82086 10.8365C6.79326 10.9967 6.72756 11.1479 6.62923 11.2776C6.78 11.461 6.88365 11.6782 6.93126 11.9104C6.95775 12.0528 6.74051 12.1108 6.71401 11.9684C6.48087 10.8346 5.12441 10.8293 4.40909 11.536C4.03816 11.9904 3.62672 12.4105 3.17979 12.7912C3.41839 12.832 3.64413 12.9276 3.83912 13.0704C4.03411 13.2132 4.19298 13.3993 4.30311 13.6139C4.38594 13.7965 4.43099 13.9937 4.43558 14.194C4.43558 14.4366 4.3508 14.7636 4.50976 14.9745C4.68679 15.1744 4.93325 15.3002 5.19962 15.3266C5.46599 15.353 5.73254 15.2781 5.9457 15.1169C5.9717 15.1016 6.00278 15.0971 6.03209 15.1045C6.0614 15.1119 6.08656 15.1306 6.10202 15.1565C6.11747 15.1824 6.12197 15.2133 6.11452 15.2425C6.10707 15.2717 6.08827 15.2967 6.06227 15.3121C5.89688 15.4041 5.71812 15.4699 5.53241 15.5072C5.52383 15.5342 5.50563 15.5572 5.48123 15.5717C5.45683 15.5863 5.42792 15.5915 5.39994 15.5863C4.44088 15.4281 3.87392 15.8025 3.28047 16.4143C3.70394 16.4714 4.10642 16.6328 4.45148 16.8837C5.1456 17.332 5.71786 17.5693 6.41199 16.9575C6.51796 16.8626 6.68222 17.0208 6.57095 17.1157C6.44748 17.2249 6.31246 17.3204 6.16825 17.4005V17.4005C5.35755 18.0967 4.43558 17.8752 3.51891 17.6326C3.92161 18.5344 4.98664 19.7421 6.04108 19.4573C6.10597 19.4362 6.16965 19.4116 6.23183 19.3835C6.36968 19.0306 6.54744 18.6944 6.7617 18.3815C6.84118 18.2602 7.03723 18.3815 6.95775 18.4975C6.79552 18.7377 6.64863 18.9878 6.51796 19.2464C7.03182 18.8637 7.50102 18.425 7.91681 17.9385C8.02279 17.8383 8.18175 17.9965 8.07577 18.0967C7.5459 18.6241 7.01604 19.2991 6.359 19.5892C6.28104 19.818 6.25569 20.0613 6.28482 20.3012C6.3431 20.7283 6.50736 21.145 6.52856 21.5774C6.55265 21.8109 6.50966 22.0463 6.40461 22.2563C6.29955 22.4664 6.13674 22.6425 5.93511 22.7641C6.95775 22.8854 8.05458 23.0172 8.83878 22.205C8.95627 22.0855 9.066 21.9587 9.1673 21.8253C9.25208 21.7093 9.33686 21.588 9.42164 21.4667C9.68127 21.0606 9.89852 20.6281 10.1264 20.201C10.1952 20.0744 10.386 20.201 10.3224 20.3117L10.2005 20.5438C10.4448 20.2813 10.7107 20.0397 10.9953 19.8212C11.1119 19.7316 11.2232 19.9267 11.1066 20.0164C9.60709 21.1661 8.38839 23.1807 9.77665 24.8261C9.74541 24.147 9.94721 23.4774 10.3489 22.9275C10.6845 22.5079 11.0687 22.1291 11.4934 21.7989C11.9423 21.3554 12.4421 20.966 12.9823 20.6387C13.1042 20.5596 13.2155 20.7547 13.0936 20.8338L12.5638 21.1819C12.5583 21.1978 12.5492 21.2122 12.5373 21.2241C12.1717 21.5616 11.7742 21.8622 11.398 22.1892C11.1433 22.4995 10.9825 22.8755 10.9347 23.2734C10.8868 23.6713 10.9538 24.0745 11.1278 24.4359C11.3367 24.7803 11.6256 25.0697 11.9703 25.2797C12.3412 25.5434 12.8499 25.8809 12.8658 26.3661C13.1722 26.1274 13.5025 25.9206 13.8513 25.7491C14.2996 25.5756 14.7059 25.3096 15.0435 24.9685C15.2133 24.7616 15.3366 24.5208 15.4052 24.2625C15.4737 24.0041 15.4859 23.7342 15.4409 23.4708C15.3615 22.416 15.9231 21.472 16.2516 20.491C16.2568 20.4749 16.2657 20.4603 16.2777 20.4484C16.2897 20.4365 16.3044 20.4276 16.3205 20.4225C16.4193 20.1119 16.4193 19.7785 16.3205 19.4679C16.2728 19.3308 16.4901 19.2728 16.5378 19.4099C16.664 19.8994 16.6095 20.4178 16.3841 20.8707C16.1143 21.4887 15.9565 22.1494 15.9178 22.8221C15.8735 23.1861 15.9435 23.5548 16.118 23.8777C16.2926 24.2006 16.5632 24.4619 16.8928 24.6257L16.9881 24.6785C16.903 24.4782 16.8592 24.263 16.8592 24.0456C16.8592 23.8282 16.903 23.613 16.9881 23.4127C17.2447 22.8931 17.5498 22.3987 17.8995 21.9361C17.9789 21.8071 18.0463 21.6712 18.1009 21.53C18.0987 21.2445 18.1289 20.9596 18.1909 20.6809C18.1949 20.6566 18.2081 20.6348 18.2279 20.62C18.2477 20.6053 18.2724 20.5987 18.2969 20.6018C18.3073 20.2762 18.2967 19.9503 18.2651 19.6261C18.2651 19.4837 18.4771 19.4837 18.4877 19.6261C18.5853 20.1859 18.5709 20.7595 18.4453 21.3137C18.4114 21.4123 18.3725 21.5092 18.3287 21.6038C18.3199 21.9441 18.417 22.2788 18.6067 22.562C18.7964 22.8453 19.0695 23.0632 19.3884 23.186C19.044 22.6269 19.2666 22.0943 19.6163 21.4667C19.8471 21.0811 19.9622 20.6379 19.9481 20.1894C19.934 19.7408 19.7913 19.3057 19.5368 18.9352C19.4422 18.9384 19.3496 18.9637 19.2666 19.0091C19.1394 19.0776 19.0228 18.8825 19.1553 18.8139C19.2262 18.7766 19.3008 18.7466 19.3779 18.7243C19.2033 18.5222 19.0019 18.3447 18.7791 18.1969C18.6625 18.1178 18.7791 17.9226 18.8904 18.0017C19.1756 18.1961 19.4293 18.4326 19.6428 18.7032C20.0402 18.7348 20.2945 19.1198 20.4906 19.5628C20.6318 20.079 20.9342 20.537 21.3543 20.8707C21.5969 20.9973 21.8626 21.0742 22.1357 21.0968C22.4087 21.1194 22.6835 21.0874 22.9439 21.0026C22.467 20.549 22.8326 19.9056 22.822 19.2886C22.8214 18.7986 22.6553 18.3231 22.3504 17.9385C22.0564 17.8944 21.7753 17.7883 21.5258 17.6273C21.2763 17.4663 21.0643 17.2541 20.9039 17.005L20.729 16.9575C20.5859 16.9259 20.6495 16.7096 20.7873 16.7413C21.4457 16.8843 22.0424 17.2293 22.4935 17.7275C22.7722 17.7554 23.0536 17.7175 23.3148 17.6168C24.0301 17.3267 24.2314 16.7096 24.6129 16.1612C23.8817 16.3563 23.2406 15.8711 22.5359 15.6338C22.2293 15.6804 21.9159 15.6496 21.6245 15.5441L21.4443 15.5863C21.3278 15.6285 21.2695 15.4123 21.4072 15.3701Z" fill="#E9271C"/>
<path d="M22.0696 14.8163C21.8426 14.6155 21.585 14.4518 21.3066 14.3311C21.5177 14.552 21.7795 14.7185 22.0696 14.8163V14.8163Z" fill="#FFB000"/>
<path d="M13.9732 24.0087C19.2114 24.0087 23.4578 19.7822 23.4578 14.5685C23.4578 9.35477 19.2114 5.12823 13.9732 5.12823C8.73499 5.12823 4.48857 9.35477 4.48857 14.5685C4.48857 19.7822 8.73499 24.0087 13.9732 24.0087Z" fill="#FFB000"/>
<path d="M5.188 15.1328C5.19557 12.7506 6.14217 10.4665 7.8242 8.7718C9.50622 7.07708 11.7893 6.1071 14.1824 6.07048C16.5755 6.03385 18.8875 6.93351 20.6211 8.57596C22.3547 10.2184 23.3714 12.4724 23.4525 14.8533C23.4525 14.7583 23.4525 14.6634 23.4525 14.5685C23.4503 12.8719 22.9888 11.2073 22.1165 9.74971C21.2442 8.29212 19.9934 7.09545 18.4956 6.28555C16.9979 5.47565 15.3085 5.08247 13.6052 5.14735C11.9019 5.21223 10.2476 5.73279 8.81642 6.65426C7.38521 7.57574 6.22995 8.86407 5.47215 10.3838C4.71434 11.9034 4.38201 13.5983 4.5101 15.2901C4.63818 16.9818 5.22196 18.608 6.20003 19.9975C7.17809 21.3869 8.51429 22.4884 10.0681 23.186C8.594 22.4144 7.36007 21.2561 6.49989 19.8366C5.6397 18.4171 5.18603 16.7905 5.188 15.1328V15.1328Z" fill="#FFEE61"/>
<path d="M91.9894 647.419C91.9894 647.662 91.9809 647.914 91.9639 648.175C91.8237 650.181 91.1332 652.109 89.9685 653.747C89.5011 654.41 88.9624 655.019 88.3619 655.565V655.565C86.8426 656.939 84.9686 657.861 82.9522 658.225C80.9359 658.589 78.8578 658.381 76.9538 657.624C75.0497 656.867 73.3957 655.592 72.1794 653.943C70.963 652.294 70.233 650.338 70.072 648.295C70.0502 648.009 70.0393 647.721 70.0393 647.43C70.0392 646.889 70.0793 646.348 70.1592 645.813C70.227 645.341 70.3266 644.875 70.4573 644.417C71.1101 642.13 72.4882 640.117 74.3841 638.681C76.28 637.245 78.5911 636.464 80.9693 636.456C83.3475 636.447 85.6642 637.212 87.5704 638.634C89.4767 640.056 90.8693 642.059 91.5387 644.341C91.6681 644.779 91.7689 645.226 91.8403 645.678C91.9362 646.254 91.9861 646.836 91.9894 647.419V647.419Z" fill="#F6E300"/>
<path d="M90.3174 641.607C89.8085 641.778 89.2597 641.898 88.7181 642.04C87.4492 642.299 86.16 642.446 84.8653 642.48C84.5418 642.48 84.2183 642.48 83.8948 642.498H83.4114C83.2515 642.498 83.0879 642.498 82.9244 642.476C82.2774 642.429 81.634 642.363 80.9943 642.254C80.6745 642.207 80.3546 642.156 80.0384 642.116C79.7222 642.076 79.4023 642.014 79.0861 641.978C78.45 641.92 77.8249 641.822 77.1852 641.807L76.7235 641.785H76.2438H75.2769H74.2883C73.9648 641.785 73.6413 641.756 73.3178 641.724C72.9966 641.694 72.6774 641.645 72.3619 641.578C72.1729 641.538 71.9984 641.498 71.8021 641.451C72.1652 640.89 72.5789 640.363 73.0379 639.877L73.2124 639.928C73.3614 639.972 73.5104 640.012 73.6595 640.059C74.8408 640.444 76.022 640.946 77.2615 641.149C77.5704 641.197 77.883 641.233 78.192 641.255C78.5036 641.285 78.8168 641.296 79.1297 641.287C79.4423 641.287 79.7549 641.287 80.0675 641.251C80.3801 641.215 80.6927 641.171 81.0016 641.135C81.3106 641.098 81.6195 641.051 81.9285 640.993C82.2374 640.935 82.5427 640.88 82.848 640.84C83.1534 640.8 83.4587 640.739 83.764 640.699C84.0693 640.659 84.3746 640.619 84.6799 640.568C85.2869 640.459 85.8939 640.364 86.4973 640.237C86.65 640.208 86.799 640.179 86.948 640.153C87.097 640.128 87.2497 640.103 87.3987 640.07C87.6968 640.008 87.9984 639.957 88.3038 639.91L88.9108 639.804C89.4413 640.355 89.9127 640.959 90.3174 641.607Z" fill="#FDAB00"/>
<path d="M91.8403 645.667L91.4296 645.809C91.1243 645.907 90.819 645.998 90.5064 646.082C90.1938 646.165 89.8849 646.245 89.5723 646.311C89.2578 646.378 88.9399 646.429 88.62 646.463C88.3001 646.5 87.9803 646.529 87.6568 646.547L86.6899 646.576C86.53 646.576 86.3701 646.576 86.2102 646.576H85.7267L85.2542 646.623L84.7781 646.652C84.4582 646.652 84.142 646.692 83.8294 646.725L83.3569 646.776L82.8808 646.819C82.5657 646.853 82.2495 646.893 81.9321 646.939L80.9762 647.056C80.3364 647.15 79.6931 647.198 79.0534 647.234C78.8935 647.234 78.7299 647.252 78.57 647.234H78.0866C77.7667 647.234 77.4432 647.234 77.1197 647.205C76.4764 647.161 75.833 647.136 75.1933 647.052C74.8735 647.012 74.55 646.979 74.2338 646.925C73.9175 646.87 73.5977 646.809 73.2815 646.743C72.2182 646.505 71.1735 646.19 70.1556 645.802C70.2234 645.33 70.323 644.864 70.4536 644.406C71.515 644.613 72.5691 644.806 73.6268 644.991C74.2338 645.093 74.8371 645.213 75.4441 645.318C76.0511 645.424 76.6581 645.529 77.2615 645.631L79.1043 645.878C79.4132 645.918 79.7222 645.962 80.0311 646.009C80.3401 646.056 80.649 646.093 80.9616 646.129C81.2742 646.165 81.5868 646.202 81.8994 646.223C82.212 646.245 82.5391 646.26 82.8444 646.26C83.1574 646.265 83.4705 646.253 83.7822 646.223C84.0947 646.197 84.4061 646.162 84.7163 646.118C85.9511 645.862 87.1668 645.52 88.3546 645.097L88.8017 644.973C88.9507 644.929 89.0998 644.889 89.2524 644.849C89.5505 644.773 89.8558 644.711 90.1575 644.639C90.4591 644.566 90.7645 644.508 91.0661 644.439L91.5532 644.33C91.6778 644.769 91.7737 645.216 91.8403 645.667V645.667Z" fill="#FDAB00"/>
<path d="M89.9685 653.747C89.5011 654.41 88.9624 655.019 88.3619 655.565V655.565C88.1293 655.59 87.893 655.608 87.6604 655.619L86.6936 655.648C86.5337 655.648 86.3737 655.648 86.2138 655.648H85.7304L85.2542 655.666L84.7781 655.71C84.4582 655.71 84.142 655.75 83.8294 655.783L83.3569 655.834L82.8808 655.877C82.5658 655.911 82.2495 655.951 81.9321 655.997L80.9762 656.113C80.3365 656.208 79.6931 656.255 79.0534 656.292C78.8935 656.292 78.7299 656.31 78.57 656.292H78.0866C77.7667 656.292 77.4432 656.292 77.1197 656.262C76.4764 656.219 75.833 656.193 75.1933 656.11C74.8735 656.07 74.55 656.037 74.2338 655.983H74.1429C73.3559 655.354 72.6588 654.62 72.0711 653.802L73.6304 654.082C74.2374 654.183 74.8408 654.303 75.4478 654.409C76.0548 654.514 76.6618 654.62 77.2651 654.721L79.1079 654.969C79.4169 655.009 79.7258 655.052 80.0348 655.099C80.3437 655.147 80.6527 655.183 80.9653 655.219C81.2778 655.256 81.5904 655.292 81.903 655.314C82.2156 655.336 82.5282 655.336 82.8408 655.336C83.1538 655.341 83.4669 655.329 83.7785 655.299C84.0911 655.273 84.4025 655.237 84.7127 655.194C85.9459 654.942 87.1604 654.606 88.3474 654.187L88.7944 654.063C88.9435 654.02 89.0925 653.98 89.2452 653.94C89.4814 653.856 89.7249 653.805 89.9685 653.747Z" fill="#FDAB00"/>
<path d="M91.953 648.175C91.9105 648.87 91.8009 649.559 91.6259 650.232L91.5205 650.276C91.2176 650.392 90.9135 650.503 90.6082 650.607C90.3029 650.72 89.9903 650.807 89.6813 650.898C89.3724 650.989 89.0561 651.076 88.7399 651.145C88.4237 651.214 88.1075 651.283 87.7876 651.337C87.4678 651.392 87.1443 651.428 86.8208 651.468C86.4973 651.508 86.1738 651.53 85.8503 651.556C85.5268 651.581 85.2033 651.603 84.8762 651.614L83.9021 651.639C83.5688 651.651 83.235 651.644 82.9026 651.617C82.5791 651.596 82.2519 651.566 81.9285 651.534C81.605 651.501 81.2815 651.436 80.958 651.388C79.6963 651.164 78.4215 651.021 77.1415 650.959C76.5055 650.923 75.8585 650.959 75.2115 650.981C74.5591 651.021 73.9048 651.021 73.2524 650.981C72.6055 650.926 71.966 650.805 71.3442 650.618C71.1879 650.574 71.0316 650.531 70.8789 650.48L70.4173 650.323C70.2325 649.66 70.1108 648.981 70.0538 648.295L70.9371 648.473L71.3878 648.571C71.5404 648.597 71.6895 648.633 71.8385 648.662C72.1402 648.728 72.4346 648.797 72.7363 648.869C73.0379 648.942 73.3287 649.033 73.6231 649.131C74.7971 649.495 75.9784 650.051 77.2179 650.247C77.526 650.297 77.8366 650.33 78.1484 650.345C78.3046 650.345 78.4609 650.363 78.6172 650.367C78.7735 650.371 78.9298 650.367 79.0861 650.367C79.7131 650.349 80.3378 650.282 80.9544 650.167L81.8776 650.004C82.1829 649.934 82.4882 649.873 82.7935 649.818L83.266 649.716L83.7204 649.636L84.6291 649.484C85.8358 649.251 87.0316 648.989 88.2383 648.757L88.6927 648.68L89.147 648.6C89.4487 648.55 89.754 648.51 90.0593 648.455C90.3646 648.401 90.67 648.361 90.9753 648.31C91.2806 648.259 91.5859 648.208 91.8949 648.168L91.953 648.175Z" fill="#FDAB00"/>
<g style="mix-blend-mode:overlay" opacity="0.64">
<path d="M77.066 642.936C78.3378 641.664 78.7716 640.036 78.0349 639.299C77.2982 638.563 75.67 638.996 74.3982 640.268C73.1263 641.54 72.6925 643.168 73.4292 643.905C74.1659 644.642 75.7941 644.208 77.066 642.936Z" fill="white"/>
</g>
<g style="mix-blend-mode:multiply" opacity="0.86">
<path d="M81.0089 636.446C80.2765 636.446 79.5459 636.519 78.828 636.664C80.0657 637.023 81.2101 637.647 82.1809 638.495C83.1517 639.342 83.9255 640.392 84.4482 641.569C84.9708 642.747 85.2296 644.025 85.2064 645.313C85.1832 646.602 84.8787 647.87 84.3141 649.028C83.7494 650.186 82.9384 651.207 81.9377 652.019C80.9371 652.831 79.771 653.414 78.5212 653.728C77.2715 654.042 75.9682 654.079 74.7027 653.836C73.4372 653.593 72.24 653.077 71.1951 652.322C72.0684 654.071 73.3929 655.554 75.0315 656.62C76.6702 657.685 78.5636 658.293 80.516 658.381C82.4684 658.47 84.409 658.035 86.1372 657.122C87.8653 656.209 89.3183 654.851 90.3459 653.189C91.3735 651.526 91.9385 649.62 91.9824 647.666C92.0263 645.712 91.5475 643.782 90.5956 642.075C89.6437 640.368 88.2532 638.946 86.5678 637.956C84.8824 636.967 82.9633 636.445 81.0089 636.446V636.446Z" fill="#F6E300"/>
</g>
<path d="M97.943 643.181C97.8147 642.728 97.5478 642.326 97.1797 642.033C96.9174 641.823 96.6244 641.655 96.311 641.535C95.5523 641.248 94.7544 641.079 93.9448 641.033C93.1736 640.97 92.3993 640.952 91.6259 640.978C91.0952 640.978 90.5355 641.029 89.9576 641.08C90.0811 641.252 90.2023 641.429 90.321 641.611C90.6958 642.209 91.0111 642.842 91.2624 643.501L91.7168 643.483C92.3917 643.456 93.0677 643.468 93.7413 643.519C94.2923 643.544 94.8364 643.652 95.3551 643.839L95.4169 643.864C94.9463 644.436 94.3747 644.917 93.7304 645.282C93.207 645.62 92.6 645.962 91.913 646.307L91.7967 646.365L91.684 646.42C88.4605 647.961 85.0963 649.189 81.6377 650.087C78.4185 650.973 75.1291 651.582 71.8058 651.904C71.5392 651.926 71.2787 651.944 71.0243 651.959C70.2851 652.008 69.5438 652.018 68.8035 651.992C68.0606 652.003 67.3218 651.879 66.6227 651.628V651.628L66.6517 651.588C67.0349 651.125 67.4902 650.726 68.0002 650.407C68.4933 650.075 69.0028 649.768 69.5268 649.487C69.7352 649.373 69.9509 649.261 70.1738 649.149C70.1277 648.863 70.0938 648.575 70.072 648.284C70.0502 647.993 70.0393 647.705 70.0393 647.419C70.0393 647.078 70.0393 646.74 70.0865 646.405C69.465 646.696 68.8798 646.99 68.3346 647.288C67.6804 647.652 67.0915 648.015 66.5899 648.339C65.8398 648.813 65.174 649.408 64.6199 650.102C64.4041 650.381 64.2358 650.694 64.122 651.028C63.9796 651.442 63.9631 651.889 64.0747 652.312C64.134 652.542 64.2324 652.761 64.3655 652.959C64.6686 653.38 65.0825 653.71 65.5613 653.911C66.5565 654.305 67.6169 654.508 68.6872 654.511C68.9634 654.511 69.2518 654.511 69.5522 654.511C70.301 654.511 71.1224 654.474 72.0057 654.398L72.5109 654.354C75.8129 653.999 79.0804 653.376 82.281 652.49C85.5531 651.629 88.748 650.498 91.8331 649.109C92.1311 648.971 92.4195 648.833 92.6981 648.695L92.8181 648.637C93.5912 648.254 94.3434 647.831 95.0716 647.368C96.0018 646.825 96.8177 646.107 97.4742 645.253C97.7859 644.829 97.9689 644.324 98.0012 643.799C98.0012 643.77 98.0012 643.744 98.0012 643.715C98.0048 643.536 97.9853 643.356 97.943 643.181V643.181Z" fill="#FFF563"/>
<path d="M336.51 417C340.1 417 343.01 414.09 343.01 410.5C343.01 406.91 340.1 404 336.51 404C332.92 404 330.01 406.91 330.01 410.5C330.01 414.09 332.92 417 336.51 417Z" fill="#21B502"/>
<path d="M332.37 410.113C332.727 409.896 333.018 409.587 333.212 409.218C333.407 408.849 333.498 408.434 333.475 408.017C333.458 407.654 333.354 407.299 333.172 406.984C332.99 406.669 332.735 406.402 332.429 406.206C332.243 406.096 332.037 406.025 331.824 405.998C330.81 407.05 330.182 408.414 330.042 409.868C330.691 410.414 331.593 410.618 332.37 410.113Z" fill="#CEDA00"/>
<path d="M333.12 413.882C334.035 413.112 334.766 412.146 335.26 411.056C335.732 410.068 335.961 408.98 335.926 407.885C335.892 406.608 335.515 405.225 334.667 404.267C334.1 404.438 333.56 404.685 333.061 405.002C333.848 405.275 334.36 406.032 334.566 406.814C334.808 407.796 334.659 408.834 334.149 409.708C333.623 410.652 332.837 411.425 331.885 411.936C331.402 412.211 330.884 412.421 330.346 412.559C330.628 413.404 331.081 414.183 331.676 414.846C332.188 414.572 332.672 414.25 333.12 413.882V413.882Z" fill="#CEDA00"/>
<path d="M337.022 415.618C338.489 413.527 339.277 411.035 339.277 408.48C339.26 407.108 339.056 405.596 338.466 404.299C337.831 404.1 337.17 403.999 336.505 404H336.456C336.711 404.387 336.928 404.797 337.103 405.226C337.637 406.528 337.864 407.936 337.765 409.341C337.586 411.61 336.451 413.752 334.853 415.338C334.495 415.699 334.12 416.04 333.728 416.363C334.446 416.712 335.224 416.924 336.02 416.99C336.382 416.544 336.703 416.083 337.022 415.618Z" fill="#CEDA00"/>
<path d="M341.99 409.618C341.934 408.44 341.717 407.276 341.346 406.157C340.923 405.688 340.435 405.283 339.897 404.953C340.153 405.496 340.357 406.061 340.505 406.642C341.039 408.775 340.877 410.998 340.304 413.105C340 414.303 339.544 415.456 338.946 416.537C339.669 416.244 340.333 415.824 340.907 415.297C341.705 413.514 342.076 411.569 341.99 409.618Z" fill="#CEDA00"/>
<path d="M333.475 408.017C333.458 407.654 333.354 407.299 333.172 406.984C332.99 406.669 332.735 406.402 332.429 406.206C332.243 406.096 332.037 406.025 331.824 405.998C331.704 406.122 331.59 406.251 331.48 406.385C331.702 406.461 331.905 406.582 332.079 406.739C332.252 406.896 332.392 407.086 332.49 407.299C332.648 407.591 332.713 407.925 332.676 408.256C332.639 408.586 332.501 408.897 332.282 409.147C332 409.429 331.636 409.614 331.242 409.676C330.848 409.737 330.445 409.672 330.091 409.49C330.071 409.615 330.054 409.735 330.042 409.868C330.694 410.414 331.593 410.603 332.37 410.113C332.727 409.896 333.018 409.587 333.212 409.218C333.407 408.849 333.498 408.434 333.475 408.017V408.017Z" fill="#C1DA40"/>
<path d="M335.929 407.885C335.892 406.608 335.515 405.225 334.667 404.267C334.495 404.319 334.326 404.377 334.159 404.441C334.351 404.638 334.516 404.86 334.65 405.1C334.901 405.509 335.089 405.954 335.206 406.419C335.338 407.028 335.385 407.653 335.346 408.275C335.329 408.902 335.212 409.522 335 410.113C334.551 411.241 333.76 412.2 332.738 412.855C332.172 413.25 331.559 413.573 330.914 413.816C331.13 414.18 331.382 414.523 331.664 414.838C332.177 414.568 332.662 414.248 333.113 413.882C334.028 413.112 334.759 412.146 335.252 411.056C335.728 410.068 335.96 408.981 335.929 407.885V407.885Z" fill="#C1DA40"/>
<path d="M338.466 404.299C338.18 404.209 337.888 404.14 337.593 404.091C338.061 404.676 338.4 405.353 338.588 406.078C339.172 408.262 338.875 410.691 337.966 412.74C337.279 414.279 336.305 415.672 335.096 416.846C335.4 416.914 335.709 416.959 336.02 416.983C336.375 416.544 336.703 416.083 337.022 415.618C338.489 413.527 339.277 411.035 339.277 408.48C339.26 407.108 339.056 405.596 338.466 404.299Z" fill="#C1DA40"/>
<path d="M341.99 409.618C341.934 408.44 341.717 407.276 341.346 406.157C341.139 405.927 340.916 405.711 340.679 405.512C341.06 406.353 341.308 407.247 341.414 408.164C341.551 409.479 341.524 410.807 341.333 412.115C341.139 413.382 340.779 414.618 340.265 415.792C340.49 415.633 340.706 415.46 340.909 415.275C341.703 413.498 342.073 411.562 341.99 409.618Z" fill="#C1DA40"/>
<g style="mix-blend-mode:multiply" opacity="0.5">
<path d="M336.51 404C335.224 403.998 333.966 404.378 332.896 405.091C331.826 405.804 330.991 406.818 330.498 408.006C330.004 409.193 329.874 410.501 330.124 411.762C330.373 413.024 330.992 414.183 331.9 415.093C332.809 416.003 333.967 416.623 335.228 416.874C336.489 417.126 337.797 416.998 338.985 416.506C340.173 416.014 341.189 415.181 341.904 414.112C342.619 413.043 343 411.786 343 410.5C343 408.778 342.317 407.126 341.1 405.907C339.883 404.689 338.232 404.003 336.51 404V404ZM335.998 415.142C334.934 415.142 333.895 414.827 333.01 414.236C332.126 413.645 331.437 412.806 331.03 411.823C330.623 410.841 330.516 409.76 330.723 408.717C330.931 407.673 331.442 406.715 332.194 405.963C332.946 405.211 333.904 404.699 334.947 404.491C335.99 404.283 337.071 404.389 338.054 404.796C339.036 405.203 339.876 405.891 340.468 406.775C341.059 407.659 341.375 408.699 341.375 409.762C341.375 410.469 341.236 411.168 340.966 411.821C340.696 412.474 340.3 413.067 339.801 413.566C339.301 414.066 338.709 414.462 338.056 414.733C337.403 415.003 336.704 415.142 335.998 415.142V415.142Z" fill="#20A107"/>
</g>
<g style="mix-blend-mode:multiply" opacity="0.5">
<path d="M340.914 405.716C342.076 406.946 342.713 408.58 342.689 410.272C342.666 411.964 341.983 413.58 340.786 414.777C339.59 415.973 337.974 416.656 336.282 416.68C334.59 416.704 332.955 416.067 331.725 414.904C332.322 415.536 333.04 416.042 333.836 416.391C334.631 416.74 335.489 416.927 336.358 416.939C337.227 416.951 338.089 416.789 338.895 416.462C339.7 416.136 340.431 415.65 341.046 415.036C341.66 414.421 342.145 413.69 342.472 412.885C342.799 412.08 342.961 411.217 342.949 410.348C342.937 409.479 342.75 408.621 342.401 407.826C342.051 407.03 341.546 406.313 340.914 405.716V405.716Z" fill="#20A107"/>
</g>
<path d="M46.6796 268.5C46.6796 270.374 46.0605 272.195 44.9185 273.681C43.7764 275.166 42.1755 276.233 40.3647 276.714C38.5539 277.196 36.6347 277.066 34.9055 276.344C33.1763 275.622 31.734 274.349 30.8031 272.723C30.7036 272.549 30.6097 272.37 30.5215 272.188C30.1516 271.422 29.9 270.603 29.7754 269.761C29.7454 269.574 29.7228 269.377 29.7078 269.173C29.6928 268.968 29.6834 268.745 29.6797 268.503C29.6763 266.701 30.2495 264.944 31.3155 263.491C31.4987 263.24 31.6961 262.999 31.9067 262.77C32.7912 261.804 33.8872 261.055 35.1092 260.581C36.3311 260.108 37.6458 259.924 38.9507 260.043C40.2556 260.162 41.5153 260.582 42.6314 261.268C43.7474 261.955 44.6897 262.89 45.3845 264.001C45.6062 264.355 45.801 264.724 45.9673 265.107C46.2982 265.867 46.5154 266.672 46.6121 267.495C46.6543 267.828 46.6768 268.164 46.6796 268.5V268.5Z" fill="#00BFFF"/>
<path d="M45.9673 265.107C45.6548 265.155 45.3395 265.192 45.0241 265.234C44.7088 265.276 44.3681 265.29 44.0359 265.31C43.7036 265.33 43.377 265.33 43.0476 265.335C42.7182 265.341 42.3888 265.318 42.0594 265.304C40.7521 265.201 39.4543 265.001 38.1768 264.705C36.9005 264.438 35.6457 264.135 34.4125 263.795C33.6298 263.683 32.8443 263.587 32.0559 263.531C31.8082 263.514 31.5604 263.497 31.3127 263.486C31.4959 263.234 31.6933 262.994 31.9039 262.765H32.0841C32.909 262.765 33.7368 262.799 34.5589 262.866H34.6012C35.854 263.125 37.1069 263.365 38.3655 263.531C39.624 263.697 40.8994 263.767 42.1382 263.852C42.4508 263.852 42.7633 263.888 43.0758 263.908C43.3883 263.928 43.7008 263.939 44.0134 263.956C44.3259 263.973 44.6412 263.975 44.9537 263.984H45.3845C45.6069 264.343 45.8017 264.719 45.9673 265.107Z" fill="#00AAD0"/>
<path d="M46.6796 268.5C46.4093 268.489 46.14 268.48 45.8716 268.475C44.8777 268.455 43.9007 268.475 42.9012 268.528C42.4085 268.553 41.913 268.576 41.4175 268.607L41.0515 268.629C40.9304 268.629 40.8065 268.629 40.6883 268.655C40.4546 268.68 40.2096 268.703 39.9647 268.736C39.4748 268.798 38.9821 268.877 38.4865 268.965C37.991 269.052 37.4927 269.153 36.9887 269.246C36.4847 269.339 35.9779 269.432 35.4627 269.508C35.2065 269.545 34.9475 269.578 34.6913 269.606C34.435 269.635 34.1845 269.666 33.9254 269.688C32.8959 269.782 31.862 269.818 30.8284 269.798C30.4736 269.798 30.1198 269.783 29.767 269.753C29.7369 269.565 29.7144 269.369 29.6994 269.164C30.0748 269.164 30.4502 269.15 30.8256 269.122C31.8265 269.067 32.8237 268.958 33.8128 268.796L34.5561 268.666C34.8039 268.627 35.046 268.579 35.291 268.528C35.778 268.43 36.2651 268.311 36.7522 268.187C37.2393 268.064 37.732 267.934 38.2275 267.802C38.723 267.669 39.2242 267.54 39.7338 267.427C39.99 267.371 40.2462 267.317 40.5137 267.272C40.6488 267.247 40.7784 267.236 40.9079 267.219C41.0374 267.202 41.1725 267.188 41.2992 267.177C41.8145 267.123 42.3381 267.098 42.859 267.095C44.1213 267.092 45.3803 267.223 46.6149 267.486C46.6565 267.823 46.6781 268.161 46.6796 268.5V268.5Z" fill="#00AAD0"/>
<path d="M45.3029 273.126C44.9809 273.621 44.6081 274.082 44.1907 274.5H44.1457L43.6389 274.469C43.3095 274.449 42.9744 274.421 42.6338 274.396C42.2931 274.37 41.9468 274.331 41.5977 274.277C41.4231 274.249 41.2485 274.224 41.074 274.19C40.8994 274.156 40.7249 274.12 40.5587 274.083C39.2101 273.779 37.915 273.421 36.6171 273.174L36.1328 273.086C35.9751 273.061 35.8146 273.036 35.657 273.022C35.3276 272.985 34.9953 272.954 34.6603 272.929C33.9902 272.875 33.3117 272.827 32.6303 272.746C32.0926 272.726 31.5548 272.715 31.0198 272.718H30.8002C30.7008 272.543 30.6069 272.365 30.5187 272.183L30.9945 272.138C31.5576 272.089 32.1132 272.055 32.6613 272.036H32.6923C33.3567 272.067 34.024 272.067 34.7025 272.073C35.0432 272.073 35.3839 272.073 35.7274 272.098C35.9047 272.098 36.0821 272.121 36.2567 272.138L36.7719 272.197C38.1431 272.368 39.4663 272.681 40.7784 272.841C40.9445 272.864 41.1021 272.881 41.2598 272.895C41.4175 272.909 41.5808 272.92 41.7413 272.932C42.065 272.948 42.3916 272.963 42.7239 272.971C43.0561 272.979 43.3968 272.994 43.7403 273.019C43.912 273.019 44.0837 273.05 44.2442 273.058L44.7257 273.089L45.3029 273.126Z" fill="#00AAD0"/>
<g style="mix-blend-mode:multiply" opacity="0.86">
<path d="M38.174 260C37.6067 260 37.0408 260.057 36.4847 260.169C37.4435 260.447 38.3299 260.931 39.0819 261.587C39.8339 262.243 40.4333 263.056 40.8381 263.969C41.243 264.881 41.4434 265.871 41.4255 266.869C41.4075 267.867 41.1716 268.849 40.7343 269.746C40.2969 270.643 39.6686 271.434 38.8935 272.063C38.1184 272.692 37.2152 273.144 36.2471 273.387C35.279 273.63 34.2694 273.658 33.2892 273.47C32.3089 273.282 31.3816 272.882 30.5722 272.298C31.2487 273.652 32.2746 274.802 33.5439 275.627C34.8132 276.452 36.2799 276.923 37.7923 276.991C39.3046 277.06 40.8078 276.723 42.1465 276.016C43.4851 275.309 44.6106 274.257 45.4066 272.969C46.2026 271.681 46.6402 270.204 46.6742 268.691C46.7082 267.177 46.3374 265.682 45.6 264.36C44.8627 263.038 43.7856 261.937 42.48 261.17C41.1745 260.403 39.6879 260 38.174 260V260Z" fill="#00BFFF"/>
</g>
<g style="mix-blend-mode:overlay" opacity="0.61">
<path d="M35.1198 265.027C36.105 264.042 36.441 262.781 35.8703 262.21C35.2997 261.639 34.0384 261.975 33.0533 262.961C32.0681 263.946 31.7321 265.207 32.3027 265.778C32.8734 266.348 34.1346 266.012 35.1198 265.027Z" fill="white"/>
</g>
<path d="M51.2914 265.217C51.192 264.866 50.9852 264.555 50.7002 264.327C50.497 264.165 50.27 264.035 50.0273 263.942C49.4395 263.72 48.8215 263.589 48.1944 263.553C47.5969 263.504 46.9972 263.49 46.3981 263.511C45.987 263.511 45.5534 263.55 45.1058 263.59C45.2015 263.723 45.2953 263.86 45.3873 264.001C45.6776 264.464 45.9219 264.954 46.1165 265.465L46.4685 265.451C46.9913 265.43 47.5149 265.439 48.0367 265.479C48.4635 265.498 48.885 265.582 49.2868 265.727L49.3346 265.746C48.9701 266.189 48.5273 266.562 48.0283 266.844C47.6228 267.106 47.1526 267.371 46.6205 267.638L46.5304 267.683L46.4431 267.726C43.9462 268.92 41.3402 269.871 38.6611 270.567C36.1675 271.253 33.6195 271.724 31.0452 271.974C30.8387 271.991 30.6369 272.005 30.4399 272.017C29.8672 272.054 29.2931 272.063 28.7196 272.042C28.1441 272.05 27.5719 271.955 27.0303 271.76V271.76L27.0528 271.729C27.3496 271.37 27.7023 271.061 28.0974 270.814C28.4793 270.557 28.874 270.319 29.2799 270.102C29.4413 270.014 29.6083 269.926 29.781 269.84C29.7454 269.619 29.7191 269.395 29.7022 269.17C29.6853 268.945 29.6769 268.721 29.6769 268.5C29.6769 268.235 29.6769 267.973 29.7135 267.714C29.232 267.94 28.7787 268.168 28.3564 268.399C27.8496 268.68 27.3935 268.962 27.005 269.212C26.424 269.58 25.9083 270.041 25.479 270.578C25.3118 270.794 25.1814 271.037 25.0932 271.296C24.9829 271.616 24.9702 271.962 25.0566 272.29C25.1026 272.468 25.1787 272.638 25.2819 272.791C25.5166 273.117 25.8372 273.373 26.2082 273.528C26.979 273.834 27.8004 273.991 28.6295 273.993C28.8435 273.993 29.0668 273.993 29.2996 273.993C29.8796 273.993 30.5159 273.965 31.2 273.906L31.5914 273.872C34.1491 273.597 36.6802 273.114 39.1594 272.428C41.694 271.761 44.1689 270.885 46.5586 269.809C46.7894 269.702 47.0128 269.595 47.2287 269.488L47.3216 269.443C47.9204 269.147 48.5031 268.819 49.0672 268.461C49.7877 268.04 50.4197 267.483 50.9282 266.822C51.1697 266.494 51.3115 266.103 51.3365 265.696C51.3365 265.673 51.3365 265.654 51.3365 265.631C51.3393 265.492 51.3241 265.353 51.2914 265.217V265.217Z" fill="#80E3FF"/>
</svg>
